%TF.GenerationSoftware,KiCad,Pcbnew,8.0.2*%
%TF.CreationDate,2024-05-14T19:41:18+03:00*%
%TF.ProjectId,PCB1,50434231-2e6b-4696-9361-645f70636258,rev?*%
%TF.SameCoordinates,Original*%
%TF.FileFunction,Copper,L4,Bot*%
%TF.FilePolarity,Positive*%
%FSLAX46Y46*%
G04 Gerber Fmt 4.6, Leading zero omitted, Abs format (unit mm)*
G04 Created by KiCad (PCBNEW 8.0.2) date 2024-05-14 19:41:18*
%MOMM*%
%LPD*%
G01*
G04 APERTURE LIST*
%TA.AperFunction,ComponentPad*%
%ADD10C,1.600000*%
%TD*%
%TA.AperFunction,ComponentPad*%
%ADD11O,1.600000X1.600000*%
%TD*%
%TA.AperFunction,ComponentPad*%
%ADD12R,1.600000X1.600000*%
%TD*%
%TA.AperFunction,ComponentPad*%
%ADD13C,2.000000*%
%TD*%
%TA.AperFunction,ComponentPad*%
%ADD14R,1.905000X2.000000*%
%TD*%
%TA.AperFunction,ComponentPad*%
%ADD15O,1.905000X2.000000*%
%TD*%
%TA.AperFunction,ComponentPad*%
%ADD16R,2.600000X2.600000*%
%TD*%
%TA.AperFunction,ComponentPad*%
%ADD17C,2.600000*%
%TD*%
%TA.AperFunction,Conductor*%
%ADD18C,0.500000*%
%TD*%
G04 APERTURE END LIST*
D10*
%TO.P,R3,1*%
%TO.N,Net-(U1-THR)*%
X140650000Y-119000000D03*
D11*
%TO.P,R3,2*%
%TO.N,Net-(U1-DIS)*%
X153350000Y-119000000D03*
%TD*%
D10*
%TO.P,C1,1*%
%TO.N,Net-(J1-Pin_1)*%
X156500000Y-42500000D03*
%TO.P,C1,2*%
%TO.N,GND*%
X161500000Y-42500000D03*
%TD*%
D12*
%TO.P,U5,1,B*%
%TO.N,unconnected-(U5-B-Pad1)*%
X142000000Y-63300000D03*
D11*
%TO.P,U5,2,QB*%
%TO.N,Net-(U5-QB)*%
X142000000Y-65840000D03*
%TO.P,U5,3,QA*%
%TO.N,Net-(U5-QA)*%
X142000000Y-68380000D03*
%TO.P,U5,4,DOWN*%
%TO.N,+5V*%
X142000000Y-70920000D03*
%TO.P,U5,5,UP*%
%TO.N,Net-(U5-UP)*%
X142000000Y-73460000D03*
%TO.P,U5,6,QC*%
%TO.N,Net-(U5-QC)*%
X142000000Y-76000000D03*
%TO.P,U5,7,QD*%
%TO.N,Net-(U5-QD)*%
X142000000Y-78540000D03*
%TO.P,U5,8,GND*%
%TO.N,GND*%
X142000000Y-81080000D03*
%TO.P,U5,9,D*%
%TO.N,unconnected-(U5-D-Pad9)*%
X149620000Y-81080000D03*
%TO.P,U5,10,C*%
%TO.N,unconnected-(U5-C-Pad10)*%
X149620000Y-78540000D03*
%TO.P,U5,11,~{LOAD}*%
%TO.N,unconnected-(U5-~{LOAD}-Pad11)*%
X149620000Y-76000000D03*
%TO.P,U5,12,~{CO}*%
%TO.N,unconnected-(U5-~{CO}-Pad12)*%
X149620000Y-73460000D03*
%TO.P,U5,13,~{BO}*%
%TO.N,unconnected-(U5-~{BO}-Pad13)*%
X149620000Y-70920000D03*
%TO.P,U5,14,CLR*%
%TO.N,Net-(U5-CLR)*%
X149620000Y-68380000D03*
%TO.P,U5,15,A*%
%TO.N,unconnected-(U5-A-Pad15)*%
X149620000Y-65840000D03*
%TO.P,U5,16,VCC*%
%TO.N,+5V*%
X149620000Y-63300000D03*
%TD*%
D10*
%TO.P,R18,1*%
%TO.N,Net-(U9-Qg)*%
X201150000Y-84500000D03*
D11*
%TO.P,R18,2*%
%TO.N,Net-(U11-G)*%
X213850000Y-84500000D03*
%TD*%
D10*
%TO.P,R14,1*%
%TO.N,Net-(U9-Qc)*%
X201150000Y-65500000D03*
D11*
%TO.P,R14,2*%
%TO.N,Net-(U11-C)*%
X213850000Y-65500000D03*
%TD*%
D10*
%TO.P,R5,1*%
%TO.N,Net-(U8-Qa)*%
X183150000Y-89250000D03*
D11*
%TO.P,R5,2*%
%TO.N,Net-(U10-A)*%
X195850000Y-89250000D03*
%TD*%
D10*
%TO.P,R8,1*%
%TO.N,Net-(U8-Qd)*%
X183150000Y-103500000D03*
D11*
%TO.P,R8,2*%
%TO.N,Net-(U10-D)*%
X195850000Y-103500000D03*
%TD*%
D10*
%TO.P,R13,1*%
%TO.N,Net-(U9-Qb)*%
X201150000Y-60750000D03*
D11*
%TO.P,R13,2*%
%TO.N,Net-(U11-B)*%
X213850000Y-60750000D03*
%TD*%
D10*
%TO.P,R6,1*%
%TO.N,Net-(U8-Qb)*%
X183150000Y-94000000D03*
D11*
%TO.P,R6,2*%
%TO.N,Net-(U10-B)*%
X195850000Y-94000000D03*
%TD*%
D10*
%TO.P,C4,1*%
%TO.N,+5V*%
X159000000Y-120000000D03*
%TO.P,C4,2*%
%TO.N,Net-(C3-Pad2)*%
X161000000Y-120000000D03*
%TD*%
D13*
%TO.P,SW1,1,1*%
%TO.N,+5V*%
X170250000Y-43250000D03*
X176750000Y-43250000D03*
%TO.P,SW1,2,2*%
%TO.N,Net-(U2A-C)*%
X170250000Y-47750000D03*
X176750000Y-47750000D03*
%TD*%
D12*
%TO.P,U6,1,B*%
%TO.N,unconnected-(U6-B-Pad1)*%
X154000000Y-63300000D03*
D11*
%TO.P,U6,2,QB*%
%TO.N,Net-(U6-QB)*%
X154000000Y-65840000D03*
%TO.P,U6,3,QA*%
%TO.N,Net-(U6-QA)*%
X154000000Y-68380000D03*
%TO.P,U6,4,DOWN*%
%TO.N,+5V*%
X154000000Y-70920000D03*
%TO.P,U6,5,UP*%
%TO.N,Net-(U6-UP)*%
X154000000Y-73460000D03*
%TO.P,U6,6,QC*%
%TO.N,Net-(U6-QC)*%
X154000000Y-76000000D03*
%TO.P,U6,7,QD*%
%TO.N,Net-(U6-QD)*%
X154000000Y-78540000D03*
%TO.P,U6,8,GND*%
%TO.N,GND*%
X154000000Y-81080000D03*
%TO.P,U6,9,D*%
%TO.N,unconnected-(U6-D-Pad9)*%
X161620000Y-81080000D03*
%TO.P,U6,10,C*%
%TO.N,unconnected-(U6-C-Pad10)*%
X161620000Y-78540000D03*
%TO.P,U6,11,~{LOAD}*%
%TO.N,unconnected-(U6-~{LOAD}-Pad11)*%
X161620000Y-76000000D03*
%TO.P,U6,12,~{CO}*%
%TO.N,unconnected-(U6-~{CO}-Pad12)*%
X161620000Y-73460000D03*
%TO.P,U6,13,~{BO}*%
%TO.N,unconnected-(U6-~{BO}-Pad13)*%
X161620000Y-70920000D03*
%TO.P,U6,14,CLR*%
%TO.N,Net-(U6-CLR)*%
X161620000Y-68380000D03*
%TO.P,U6,15,A*%
%TO.N,unconnected-(U6-A-Pad15)*%
X161620000Y-65840000D03*
%TO.P,U6,16,VCC*%
%TO.N,+5V*%
X161620000Y-63300000D03*
%TD*%
D10*
%TO.P,R15,1*%
%TO.N,Net-(U9-Qd)*%
X201150000Y-70250000D03*
D11*
%TO.P,R15,2*%
%TO.N,Net-(U11-D)*%
X213850000Y-70250000D03*
%TD*%
D10*
%TO.P,R1,1*%
%TO.N,GND*%
X159880000Y-54500000D03*
D11*
%TO.P,R1,2*%
%TO.N,Net-(U2A-C)*%
X175120000Y-54500000D03*
%TD*%
D12*
%TO.P,U11,1,CC*%
%TO.N,GND*%
X214000000Y-91340000D03*
D10*
%TO.P,U11,2,F*%
%TO.N,Net-(U11-F)*%
X214000000Y-93880000D03*
%TO.P,U11,3,G*%
%TO.N,Net-(U11-G)*%
X214000000Y-96420000D03*
%TO.P,U11,4,E*%
%TO.N,Net-(U11-E)*%
X214000000Y-98960000D03*
%TO.P,U11,5,D*%
%TO.N,Net-(U11-D)*%
X214000000Y-101500000D03*
%TO.P,U11,6,CC*%
%TO.N,GND*%
X219080000Y-101500000D03*
%TO.P,U11,7,DP*%
%TO.N,unconnected-(U11-DP-Pad7)*%
X219080000Y-98960000D03*
%TO.P,U11,8,C*%
%TO.N,Net-(U11-C)*%
X219080000Y-96420000D03*
%TO.P,U11,9,B*%
%TO.N,Net-(U11-B)*%
X219080000Y-93880000D03*
%TO.P,U11,10,A*%
%TO.N,Net-(U11-A)*%
X219080000Y-91340000D03*
%TD*%
%TO.P,R10,1*%
%TO.N,Net-(U8-Qf)*%
X183150000Y-113000000D03*
D11*
%TO.P,R10,2*%
%TO.N,Net-(U10-F)*%
X195850000Y-113000000D03*
%TD*%
D12*
%TO.P,U3,1*%
%TO.N,Net-(U2A-Q)*%
X144700000Y-92375000D03*
D11*
%TO.P,U3,2*%
%TO.N,Net-(U1-Q)*%
X144700000Y-94915000D03*
%TO.P,U3,3*%
%TO.N,Net-(U6-UP)*%
X144700000Y-97455000D03*
%TO.P,U3,4*%
%TO.N,Net-(U6-QC)*%
X144700000Y-99995000D03*
%TO.P,U3,5*%
%TO.N,Net-(U6-QB)*%
X144700000Y-102535000D03*
%TO.P,U3,6*%
%TO.N,Net-(U5-UP)*%
X144700000Y-105075000D03*
%TO.P,U3,7,GND*%
%TO.N,GND*%
X144700000Y-107615000D03*
%TO.P,U3,8*%
%TO.N,Net-(U3-Pad8)*%
X152320000Y-107615000D03*
%TO.P,U3,9*%
%TO.N,Net-(U5-QC)*%
X152320000Y-105075000D03*
%TO.P,U3,10*%
%TO.N,Net-(U5-QB)*%
X152320000Y-102535000D03*
%TO.P,U3,11*%
%TO.N,unconnected-(U3-Pad11)*%
X152320000Y-99995000D03*
%TO.P,U3,12*%
%TO.N,unconnected-(U3-Pad12)*%
X152320000Y-97455000D03*
%TO.P,U3,13*%
%TO.N,unconnected-(U3-Pad13)*%
X152320000Y-94915000D03*
%TO.P,U3,14,VCC*%
%TO.N,+5V*%
X152320000Y-92375000D03*
%TD*%
D10*
%TO.P,R11,1*%
%TO.N,Net-(U8-Qg)*%
X183150000Y-117750000D03*
D11*
%TO.P,R11,2*%
%TO.N,Net-(U10-G)*%
X195850000Y-117750000D03*
%TD*%
D12*
%TO.P,U7,1*%
%TO.N,Net-(R4-Pad1)*%
X159000000Y-92300000D03*
D11*
%TO.P,U7,2*%
%TO.N,Net-(U5-UP)*%
X159000000Y-94840000D03*
%TO.P,U7,3*%
%TO.N,Net-(U6-CLR)*%
X159000000Y-97380000D03*
%TO.P,U7,4*%
%TO.N,Net-(U5-CLR)*%
X159000000Y-99920000D03*
%TO.P,U7,5*%
%TO.N,Net-(R4-Pad1)*%
X159000000Y-102460000D03*
%TO.P,U7,6*%
%TO.N,Net-(U3-Pad8)*%
X159000000Y-105000000D03*
%TO.P,U7,7,VSS*%
%TO.N,+5V*%
X159000000Y-107540000D03*
%TO.P,U7,8*%
%TO.N,unconnected-(U7-Pad8)*%
X166620000Y-107540000D03*
%TO.P,U7,9*%
%TO.N,unconnected-(U7-Pad9)*%
X166620000Y-105000000D03*
%TO.P,U7,10*%
%TO.N,unconnected-(U7-Pad10)*%
X166620000Y-102460000D03*
%TO.P,U7,11*%
%TO.N,unconnected-(U7-Pad11)*%
X166620000Y-99920000D03*
%TO.P,U7,12*%
%TO.N,unconnected-(U7-Pad12)*%
X166620000Y-97380000D03*
%TO.P,U7,13*%
%TO.N,unconnected-(U7-Pad13)*%
X166620000Y-94840000D03*
%TO.P,U7,14,VDD*%
%TO.N,GND*%
X166620000Y-92300000D03*
%TD*%
D10*
%TO.P,C3,1*%
%TO.N,Net-(U1-CV)*%
X157000000Y-114500000D03*
%TO.P,C3,2*%
%TO.N,Net-(C3-Pad2)*%
X162000000Y-114500000D03*
%TD*%
%TO.P,R4,1*%
%TO.N,Net-(R4-Pad1)*%
X180380000Y-54500000D03*
D11*
%TO.P,R4,2*%
%TO.N,GND*%
X195620000Y-54500000D03*
%TD*%
D10*
%TO.P,R12,1*%
%TO.N,Net-(U9-Qa)*%
X201150000Y-56000000D03*
D11*
%TO.P,R12,2*%
%TO.N,Net-(U11-A)*%
X213850000Y-56000000D03*
%TD*%
D12*
%TO.P,U2,1,C*%
%TO.N,unconnected-(U2B-C-Pad1)*%
X200300000Y-48620000D03*
D11*
%TO.P,U2,2,~{R}*%
%TO.N,unconnected-(U2B-~{R}-Pad2)*%
X202840000Y-48620000D03*
%TO.P,U2,3,K*%
%TO.N,unconnected-(U2B-K-Pad3)*%
X205380000Y-48620000D03*
%TO.P,U2,4,VCC*%
%TO.N,+5V*%
X207920000Y-48620000D03*
%TO.P,U2,5,C*%
%TO.N,Net-(U2A-C)*%
X210460000Y-48620000D03*
%TO.P,U2,6,~{R}*%
%TO.N,+5V*%
X213000000Y-48620000D03*
%TO.P,U2,7,J*%
X215540000Y-48620000D03*
%TO.P,U2,8,~{Q}*%
%TO.N,unconnected-(U2A-~{Q}-Pad8)*%
X215540000Y-41000000D03*
%TO.P,U2,9,Q*%
%TO.N,Net-(U2A-Q)*%
X213000000Y-41000000D03*
%TO.P,U2,10,K*%
%TO.N,+5V*%
X210460000Y-41000000D03*
%TO.P,U2,11,GND*%
%TO.N,GND*%
X207920000Y-41000000D03*
%TO.P,U2,12,Q*%
%TO.N,unconnected-(U2B-Q-Pad12)*%
X205380000Y-41000000D03*
%TO.P,U2,13,~{Q}*%
%TO.N,unconnected-(U2B-~{Q}-Pad13)*%
X202840000Y-41000000D03*
%TO.P,U2,14,J*%
%TO.N,unconnected-(U2B-J-Pad14)*%
X200300000Y-41000000D03*
%TD*%
D10*
%TO.P,R17,1*%
%TO.N,Net-(U9-Qf)*%
X201150000Y-79750000D03*
D11*
%TO.P,R17,2*%
%TO.N,Net-(U11-F)*%
X213850000Y-79750000D03*
%TD*%
D13*
%TO.P,SW2,1,1*%
%TO.N,+5V*%
X183750000Y-43250000D03*
X190250000Y-43250000D03*
%TO.P,SW2,2,2*%
%TO.N,Net-(R4-Pad1)*%
X183750000Y-47750000D03*
X190250000Y-47750000D03*
%TD*%
D10*
%TO.P,R9,1*%
%TO.N,Net-(U8-Qe)*%
X183150000Y-108250000D03*
D11*
%TO.P,R9,2*%
%TO.N,Net-(U10-E)*%
X195850000Y-108250000D03*
%TD*%
D14*
%TO.P,U4,1,IN*%
%TO.N,Net-(J1-Pin_1)*%
X143960000Y-56945000D03*
D15*
%TO.P,U4,2,GND*%
%TO.N,GND*%
X146500000Y-56945000D03*
%TO.P,U4,3,OUT*%
%TO.N,+5V*%
X149040000Y-56945000D03*
%TD*%
D10*
%TO.P,R2,1*%
%TO.N,Net-(U1-DIS)*%
X140650000Y-114500000D03*
D11*
%TO.P,R2,2*%
%TO.N,+5V*%
X153350000Y-114500000D03*
%TD*%
D10*
%TO.P,C2,1*%
%TO.N,+5V*%
X156500000Y-47500000D03*
%TO.P,C2,2*%
%TO.N,GND*%
X161500000Y-47500000D03*
%TD*%
D12*
%TO.P,U10,1,CC*%
%TO.N,GND*%
X203000000Y-91300000D03*
D10*
%TO.P,U10,2,F*%
%TO.N,Net-(U10-F)*%
X203000000Y-93840000D03*
%TO.P,U10,3,G*%
%TO.N,Net-(U10-G)*%
X203000000Y-96380000D03*
%TO.P,U10,4,E*%
%TO.N,Net-(U10-E)*%
X203000000Y-98920000D03*
%TO.P,U10,5,D*%
%TO.N,Net-(U10-D)*%
X203000000Y-101460000D03*
%TO.P,U10,6,CC*%
%TO.N,GND*%
X208080000Y-101460000D03*
%TO.P,U10,7,DP*%
%TO.N,unconnected-(U10-DP-Pad7)*%
X208080000Y-98920000D03*
%TO.P,U10,8,C*%
%TO.N,Net-(U10-C)*%
X208080000Y-96380000D03*
%TO.P,U10,9,B*%
%TO.N,Net-(U10-B)*%
X208080000Y-93840000D03*
%TO.P,U10,10,A*%
%TO.N,Net-(U10-A)*%
X208080000Y-91300000D03*
%TD*%
%TO.P,R7,1*%
%TO.N,Net-(U8-Qc)*%
X183150000Y-98750000D03*
D11*
%TO.P,R7,2*%
%TO.N,Net-(U10-C)*%
X195850000Y-98750000D03*
%TD*%
D12*
%TO.P,U1,1,GND*%
%TO.N,GND*%
X164700000Y-114200000D03*
D11*
%TO.P,U1,2,TR*%
%TO.N,Net-(U1-THR)*%
X164700000Y-116740000D03*
%TO.P,U1,3,Q*%
%TO.N,Net-(U1-Q)*%
X164700000Y-119280000D03*
%TO.P,U1,4,R*%
%TO.N,+5V*%
X164700000Y-121820000D03*
%TO.P,U1,5,CV*%
%TO.N,Net-(U1-CV)*%
X172320000Y-121820000D03*
%TO.P,U1,6,THR*%
%TO.N,Net-(U1-THR)*%
X172320000Y-119280000D03*
%TO.P,U1,7,DIS*%
%TO.N,Net-(U1-DIS)*%
X172320000Y-116740000D03*
%TO.P,U1,8,VCC*%
%TO.N,+5V*%
X172320000Y-114200000D03*
%TD*%
D10*
%TO.P,R16,1*%
%TO.N,Net-(U9-Qe)*%
X201150000Y-75000000D03*
D11*
%TO.P,R16,2*%
%TO.N,Net-(U11-E)*%
X213850000Y-75000000D03*
%TD*%
D16*
%TO.P,J1,1,Pin_1*%
%TO.N,Net-(J1-Pin_1)*%
X149000000Y-45195000D03*
D17*
%TO.P,J1,2,Pin_2*%
%TO.N,GND*%
X144000000Y-45195000D03*
%TD*%
D12*
%TO.P,U8,1,DB*%
%TO.N,Net-(U5-QB)*%
X171880000Y-61840000D03*
D11*
%TO.P,U8,2,DC*%
%TO.N,Net-(U5-QC)*%
X171880000Y-64380000D03*
%TO.P,U8,3,~{LT}*%
%TO.N,+5V*%
X171880000Y-66920000D03*
%TO.P,U8,4,~{BI}*%
X171880000Y-69460000D03*
%TO.P,U8,5,~{EL}*%
%TO.N,GND*%
X171880000Y-72000000D03*
%TO.P,U8,6,DD*%
%TO.N,Net-(U5-QD)*%
X171880000Y-74540000D03*
%TO.P,U8,7,DA*%
%TO.N,Net-(U5-QA)*%
X171880000Y-77080000D03*
%TO.P,U8,8,Vss*%
%TO.N,GND*%
X171880000Y-79620000D03*
%TO.P,U8,9,Qe*%
%TO.N,Net-(U8-Qe)*%
X179500000Y-79620000D03*
%TO.P,U8,10,Qd*%
%TO.N,Net-(U8-Qd)*%
X179500000Y-77080000D03*
%TO.P,U8,11,Qc*%
%TO.N,Net-(U8-Qc)*%
X179500000Y-74540000D03*
%TO.P,U8,12,Qb*%
%TO.N,Net-(U8-Qb)*%
X179500000Y-72000000D03*
%TO.P,U8,13,Qa*%
%TO.N,Net-(U8-Qa)*%
X179500000Y-69460000D03*
%TO.P,U8,14,Qg*%
%TO.N,Net-(U8-Qg)*%
X179500000Y-66920000D03*
%TO.P,U8,15,Qf*%
%TO.N,Net-(U8-Qf)*%
X179500000Y-64380000D03*
%TO.P,U8,16,Vdd*%
%TO.N,+5V*%
X179500000Y-61840000D03*
%TD*%
%TO.P,U9,16,Vdd*%
%TO.N,+5V*%
X193500000Y-61840000D03*
%TO.P,U9,15,Qf*%
%TO.N,Net-(U9-Qf)*%
X193500000Y-64380000D03*
%TO.P,U9,14,Qg*%
%TO.N,Net-(U9-Qg)*%
X193500000Y-66920000D03*
%TO.P,U9,13,Qa*%
%TO.N,Net-(U9-Qa)*%
X193500000Y-69460000D03*
%TO.P,U9,12,Qb*%
%TO.N,Net-(U9-Qb)*%
X193500000Y-72000000D03*
%TO.P,U9,11,Qc*%
%TO.N,Net-(U9-Qc)*%
X193500000Y-74540000D03*
%TO.P,U9,10,Qd*%
%TO.N,Net-(U9-Qd)*%
X193500000Y-77080000D03*
%TO.P,U9,9,Qe*%
%TO.N,Net-(U9-Qe)*%
X193500000Y-79620000D03*
%TO.P,U9,8,Vss*%
%TO.N,GND*%
X185880000Y-79620000D03*
%TO.P,U9,7,DA*%
%TO.N,Net-(U6-QA)*%
X185880000Y-77080000D03*
%TO.P,U9,6,DD*%
%TO.N,Net-(U6-QD)*%
X185880000Y-74540000D03*
%TO.P,U9,5,~{EL}*%
%TO.N,GND*%
X185880000Y-72000000D03*
%TO.P,U9,4,~{BI}*%
%TO.N,+5V*%
X185880000Y-69460000D03*
%TO.P,U9,3,~{LT}*%
X185880000Y-66920000D03*
%TO.P,U9,2,DC*%
%TO.N,Net-(U6-QC)*%
X185880000Y-64380000D03*
D12*
%TO.P,U9,1,DB*%
%TO.N,Net-(U6-QB)*%
X185880000Y-61840000D03*
%TD*%
D18*
%TO.N,Net-(U5-QD)*%
X142000000Y-78829950D02*
X142000000Y-78540000D01*
X147500000Y-84329950D02*
X142000000Y-78829950D01*
X159100000Y-109500000D02*
X149500000Y-109500000D01*
X164200000Y-104400000D02*
X159100000Y-109500000D01*
X164200000Y-91010050D02*
X164200000Y-104400000D01*
X173130000Y-75790000D02*
X173130000Y-82080050D01*
X149500000Y-109500000D02*
X147500000Y-107500000D01*
X147500000Y-107500000D02*
X147500000Y-84329950D01*
X173130000Y-82080050D02*
X164200000Y-91010050D01*
X171880000Y-74540000D02*
X173130000Y-75790000D01*
%TO.N,Net-(U6-QC)*%
X174000000Y-58500000D02*
X170500000Y-58500000D01*
X172700000Y-110300000D02*
X176600000Y-106400000D01*
X148300000Y-110300000D02*
X172700000Y-110300000D01*
X146500000Y-108500000D02*
X148300000Y-110300000D01*
X146500000Y-101500000D02*
X146500000Y-108500000D01*
X176600000Y-106400000D02*
X176600000Y-61100000D01*
X144995000Y-99995000D02*
X146500000Y-101500000D01*
X144700000Y-99995000D02*
X144995000Y-99995000D01*
X176600000Y-61100000D02*
X174000000Y-58500000D01*
%TO.N,Net-(U6-QB)*%
X189000000Y-120500000D02*
X189000000Y-64960000D01*
X187500000Y-122000000D02*
X189000000Y-120500000D01*
X182500000Y-122000000D02*
X187500000Y-122000000D01*
X175500000Y-111000000D02*
X178000000Y-113500000D01*
X143500000Y-111000000D02*
X175500000Y-111000000D01*
X141500000Y-109000000D02*
X143500000Y-111000000D01*
X141500000Y-105735000D02*
X141500000Y-109000000D01*
X178000000Y-117500000D02*
X182500000Y-122000000D01*
X189000000Y-64960000D02*
X185880000Y-61840000D01*
X178000000Y-113500000D02*
X178000000Y-117500000D01*
X144700000Y-102535000D02*
X141500000Y-105735000D01*
%TO.N,Net-(U5-QA)*%
X145500000Y-62000000D02*
X145500000Y-64880000D01*
X146000000Y-61500000D02*
X145500000Y-62000000D01*
X149587767Y-61500000D02*
X146000000Y-61500000D01*
X152500000Y-72949950D02*
X152000000Y-72449950D01*
X152500000Y-82500000D02*
X152500000Y-72949950D01*
X153500000Y-83500000D02*
X152500000Y-82500000D01*
X145500000Y-64880000D02*
X142000000Y-68380000D01*
X152000000Y-63912233D02*
X149587767Y-61500000D01*
X163000000Y-83500000D02*
X153500000Y-83500000D01*
X169420000Y-77080000D02*
X163000000Y-83500000D01*
X171880000Y-77080000D02*
X169420000Y-77080000D01*
X152000000Y-72449950D02*
X152000000Y-63912233D01*
%TO.N,Net-(U6-UP)*%
X152750000Y-72210000D02*
X154000000Y-73460000D01*
X152750000Y-62250000D02*
X152750000Y-72210000D01*
X140000000Y-62000000D02*
X141500000Y-60500000D01*
X140000000Y-84500000D02*
X140000000Y-62000000D01*
X141500000Y-60500000D02*
X151000000Y-60500000D01*
X145950000Y-90450000D02*
X140000000Y-84500000D01*
X151000000Y-60500000D02*
X152750000Y-62250000D01*
X145950000Y-96205000D02*
X145950000Y-90450000D01*
X144700000Y-97455000D02*
X145950000Y-96205000D01*
%TO.N,Net-(U5-CLR)*%
X151000000Y-69760000D02*
X149620000Y-68380000D01*
X151000000Y-72549950D02*
X151000000Y-69760000D01*
X157000000Y-85000000D02*
X153500000Y-85000000D01*
X153500000Y-85000000D02*
X151500000Y-83000000D01*
X162000000Y-92800000D02*
X162000000Y-90000000D01*
X163500000Y-94300000D02*
X162000000Y-92800000D01*
X163500000Y-95420000D02*
X163500000Y-94300000D01*
X162000000Y-90000000D02*
X157000000Y-85000000D01*
X151500000Y-83000000D02*
X151500000Y-73049950D01*
X151500000Y-73049950D02*
X151000000Y-72549950D01*
X159000000Y-99920000D02*
X163500000Y-95420000D01*
%TO.N,Net-(U3-Pad8)*%
X157000000Y-94500000D02*
X157000000Y-103000000D01*
X152500000Y-90000000D02*
X157000000Y-94500000D01*
X157000000Y-103000000D02*
X159000000Y-105000000D01*
X151500000Y-90000000D02*
X152500000Y-90000000D01*
X152320000Y-107615000D02*
X150200000Y-105495000D01*
X150200000Y-105495000D02*
X150200000Y-91300000D01*
X150200000Y-91300000D02*
X151500000Y-90000000D01*
%TO.N,Net-(U5-UP)*%
X147500000Y-83340000D02*
X159000000Y-94840000D01*
X147500000Y-78960000D02*
X147500000Y-83340000D01*
X142000000Y-73460000D02*
X147500000Y-78960000D01*
%TO.N,Net-(U8-Qf)*%
X177300000Y-107150000D02*
X183150000Y-113000000D01*
X177300000Y-65200000D02*
X177300000Y-107150000D01*
X178120000Y-64380000D02*
X177300000Y-65200000D01*
X179500000Y-64380000D02*
X178120000Y-64380000D01*
%TO.N,Net-(U6-QC)*%
X170500000Y-58500000D02*
X163000000Y-58500000D01*
X180000000Y-58500000D02*
X170500000Y-58500000D01*
%TO.N,Net-(U1-Q)*%
X143615000Y-96000000D02*
X144700000Y-94915000D01*
X142800000Y-96000000D02*
X143615000Y-96000000D01*
X137300000Y-101500000D02*
X142800000Y-96000000D01*
X137300000Y-119800000D02*
X137300000Y-101500000D01*
X143000000Y-125500000D02*
X137300000Y-119800000D01*
X166000000Y-125500000D02*
X143000000Y-125500000D01*
X167500000Y-124000000D02*
X166000000Y-125500000D01*
X167500000Y-120000000D02*
X167500000Y-124000000D01*
X164700000Y-119280000D02*
X166780000Y-119280000D01*
X166780000Y-119280000D02*
X167500000Y-120000000D01*
%TO.N,Net-(U6-QC)*%
X156000000Y-74000000D02*
X154000000Y-76000000D01*
X156000000Y-65500000D02*
X156000000Y-74000000D01*
X163000000Y-58500000D02*
X156000000Y-65500000D01*
X185880000Y-64380000D02*
X180000000Y-58500000D01*
%TO.N,Net-(U6-QB)*%
X181540000Y-57500000D02*
X162340000Y-57500000D01*
X185880000Y-61840000D02*
X181540000Y-57500000D01*
X162340000Y-57500000D02*
X154000000Y-65840000D01*
%TO.N,Net-(U8-Qc)*%
X181750000Y-98750000D02*
X183150000Y-98750000D01*
X178000000Y-95000000D02*
X181750000Y-98750000D01*
X178000000Y-76040000D02*
X178000000Y-95000000D01*
X179500000Y-74540000D02*
X178000000Y-76040000D01*
%TO.N,Net-(U8-Qg)*%
X183150000Y-115850000D02*
X183150000Y-117750000D01*
X188000000Y-111000000D02*
X183150000Y-115850000D01*
X188000000Y-88500000D02*
X188000000Y-111000000D01*
X184500000Y-85000000D02*
X188000000Y-88500000D01*
X184630000Y-84870000D02*
X184500000Y-85000000D01*
X184630000Y-72050000D02*
X184630000Y-84870000D01*
X179500000Y-66920000D02*
X184630000Y-72050000D01*
%TO.N,Net-(U8-Qb)*%
X180000000Y-72000000D02*
X179500000Y-72000000D01*
X181500000Y-92350000D02*
X181500000Y-73500000D01*
X183150000Y-94000000D02*
X181500000Y-92350000D01*
X181500000Y-73500000D02*
X180000000Y-72000000D01*
%TO.N,Net-(U8-Qa)*%
X183150000Y-73110000D02*
X179500000Y-69460000D01*
X183150000Y-89250000D02*
X183150000Y-73110000D01*
%TO.N,Net-(U10-G)*%
X204250000Y-109350000D02*
X195850000Y-117750000D01*
X204250000Y-97630000D02*
X204250000Y-109350000D01*
X203000000Y-96380000D02*
X204250000Y-97630000D01*
%TO.N,Net-(U10-E)*%
X195850000Y-106070000D02*
X195850000Y-108250000D01*
X203000000Y-98920000D02*
X195850000Y-106070000D01*
%TO.N,Net-(U9-Qg)*%
X200500000Y-84500000D02*
X201150000Y-84500000D01*
X198500000Y-82500000D02*
X200500000Y-84500000D01*
X193500000Y-66920000D02*
X198500000Y-71920000D01*
X198500000Y-71920000D02*
X198500000Y-82500000D01*
%TO.N,Net-(U9-Qf)*%
X199500000Y-78100000D02*
X201150000Y-79750000D01*
X193500000Y-64380000D02*
X199500000Y-70380000D01*
X199500000Y-70380000D02*
X199500000Y-78100000D01*
%TO.N,Net-(U11-A)*%
X219500000Y-90920000D02*
X219080000Y-91340000D01*
X219500000Y-61650000D02*
X219500000Y-90920000D01*
X213850000Y-56000000D02*
X219500000Y-61650000D01*
%TO.N,Net-(U11-C)*%
X217830000Y-95170000D02*
X219080000Y-96420000D01*
X217830000Y-69480000D02*
X217830000Y-95170000D01*
X213850000Y-65500000D02*
X217830000Y-69480000D01*
%TD*%
M02*
