%TF.GenerationSoftware,KiCad,Pcbnew,8.0.2*%
%TF.CreationDate,2024-05-14T19:41:18+03:00*%
%TF.ProjectId,PCB1,50434231-2e6b-4696-9361-645f70636258,rev?*%
%TF.SameCoordinates,Original*%
%TF.FileFunction,Soldermask,Bot*%
%TF.FilePolarity,Negative*%
%FSLAX46Y46*%
G04 Gerber Fmt 4.6, Leading zero omitted, Abs format (unit mm)*
G04 Created by KiCad (PCBNEW 8.0.2) date 2024-05-14 19:41:18*
%MOMM*%
%LPD*%
G01*
G04 APERTURE LIST*
%ADD10C,1.600000*%
%ADD11O,1.600000X1.600000*%
%ADD12R,1.600000X1.600000*%
%ADD13C,2.000000*%
%ADD14R,1.905000X2.000000*%
%ADD15O,1.905000X2.000000*%
%ADD16R,2.600000X2.600000*%
%ADD17C,2.600000*%
G04 APERTURE END LIST*
D10*
%TO.C,R3*%
X140650000Y-119000000D03*
D11*
X153350000Y-119000000D03*
%TD*%
D10*
%TO.C,C1*%
X156500000Y-42500000D03*
X161500000Y-42500000D03*
%TD*%
D12*
%TO.C,U5*%
X142000000Y-63300000D03*
D11*
X142000000Y-65840000D03*
X142000000Y-68380000D03*
X142000000Y-70920000D03*
X142000000Y-73460000D03*
X142000000Y-76000000D03*
X142000000Y-78540000D03*
X142000000Y-81080000D03*
X149620000Y-81080000D03*
X149620000Y-78540000D03*
X149620000Y-76000000D03*
X149620000Y-73460000D03*
X149620000Y-70920000D03*
X149620000Y-68380000D03*
X149620000Y-65840000D03*
X149620000Y-63300000D03*
%TD*%
D10*
%TO.C,R18*%
X201150000Y-84500000D03*
D11*
X213850000Y-84500000D03*
%TD*%
D10*
%TO.C,R14*%
X201150000Y-65500000D03*
D11*
X213850000Y-65500000D03*
%TD*%
D10*
%TO.C,R5*%
X183150000Y-89250000D03*
D11*
X195850000Y-89250000D03*
%TD*%
D10*
%TO.C,R8*%
X183150000Y-103500000D03*
D11*
X195850000Y-103500000D03*
%TD*%
D10*
%TO.C,R13*%
X201150000Y-60750000D03*
D11*
X213850000Y-60750000D03*
%TD*%
D10*
%TO.C,R6*%
X183150000Y-94000000D03*
D11*
X195850000Y-94000000D03*
%TD*%
D10*
%TO.C,C4*%
X159000000Y-120000000D03*
X161000000Y-120000000D03*
%TD*%
D13*
%TO.C,SW1*%
X170250000Y-43250000D03*
X176750000Y-43250000D03*
X170250000Y-47750000D03*
X176750000Y-47750000D03*
%TD*%
D12*
%TO.C,U6*%
X154000000Y-63300000D03*
D11*
X154000000Y-65840000D03*
X154000000Y-68380000D03*
X154000000Y-70920000D03*
X154000000Y-73460000D03*
X154000000Y-76000000D03*
X154000000Y-78540000D03*
X154000000Y-81080000D03*
X161620000Y-81080000D03*
X161620000Y-78540000D03*
X161620000Y-76000000D03*
X161620000Y-73460000D03*
X161620000Y-70920000D03*
X161620000Y-68380000D03*
X161620000Y-65840000D03*
X161620000Y-63300000D03*
%TD*%
D10*
%TO.C,R15*%
X201150000Y-70250000D03*
D11*
X213850000Y-70250000D03*
%TD*%
D10*
%TO.C,R1*%
X159880000Y-54500000D03*
D11*
X175120000Y-54500000D03*
%TD*%
D12*
%TO.C,U11*%
X214000000Y-91340000D03*
D10*
X214000000Y-93880000D03*
X214000000Y-96420000D03*
X214000000Y-98960000D03*
X214000000Y-101500000D03*
X219080000Y-101500000D03*
X219080000Y-98960000D03*
X219080000Y-96420000D03*
X219080000Y-93880000D03*
X219080000Y-91340000D03*
%TD*%
%TO.C,R10*%
X183150000Y-113000000D03*
D11*
X195850000Y-113000000D03*
%TD*%
D12*
%TO.C,U3*%
X144700000Y-92375000D03*
D11*
X144700000Y-94915000D03*
X144700000Y-97455000D03*
X144700000Y-99995000D03*
X144700000Y-102535000D03*
X144700000Y-105075000D03*
X144700000Y-107615000D03*
X152320000Y-107615000D03*
X152320000Y-105075000D03*
X152320000Y-102535000D03*
X152320000Y-99995000D03*
X152320000Y-97455000D03*
X152320000Y-94915000D03*
X152320000Y-92375000D03*
%TD*%
D10*
%TO.C,R11*%
X183150000Y-117750000D03*
D11*
X195850000Y-117750000D03*
%TD*%
D12*
%TO.C,U7*%
X159000000Y-92300000D03*
D11*
X159000000Y-94840000D03*
X159000000Y-97380000D03*
X159000000Y-99920000D03*
X159000000Y-102460000D03*
X159000000Y-105000000D03*
X159000000Y-107540000D03*
X166620000Y-107540000D03*
X166620000Y-105000000D03*
X166620000Y-102460000D03*
X166620000Y-99920000D03*
X166620000Y-97380000D03*
X166620000Y-94840000D03*
X166620000Y-92300000D03*
%TD*%
D10*
%TO.C,C3*%
X157000000Y-114500000D03*
X162000000Y-114500000D03*
%TD*%
%TO.C,R4*%
X180380000Y-54500000D03*
D11*
X195620000Y-54500000D03*
%TD*%
D10*
%TO.C,R12*%
X201150000Y-56000000D03*
D11*
X213850000Y-56000000D03*
%TD*%
D12*
%TO.C,U2*%
X200300000Y-48620000D03*
D11*
X202840000Y-48620000D03*
X205380000Y-48620000D03*
X207920000Y-48620000D03*
X210460000Y-48620000D03*
X213000000Y-48620000D03*
X215540000Y-48620000D03*
X215540000Y-41000000D03*
X213000000Y-41000000D03*
X210460000Y-41000000D03*
X207920000Y-41000000D03*
X205380000Y-41000000D03*
X202840000Y-41000000D03*
X200300000Y-41000000D03*
%TD*%
D10*
%TO.C,R17*%
X201150000Y-79750000D03*
D11*
X213850000Y-79750000D03*
%TD*%
D13*
%TO.C,SW2*%
X183750000Y-43250000D03*
X190250000Y-43250000D03*
X183750000Y-47750000D03*
X190250000Y-47750000D03*
%TD*%
D10*
%TO.C,R9*%
X183150000Y-108250000D03*
D11*
X195850000Y-108250000D03*
%TD*%
D14*
%TO.C,U4*%
X143960000Y-56945000D03*
D15*
X146500000Y-56945000D03*
X149040000Y-56945000D03*
%TD*%
D10*
%TO.C,R2*%
X140650000Y-114500000D03*
D11*
X153350000Y-114500000D03*
%TD*%
D10*
%TO.C,C2*%
X156500000Y-47500000D03*
X161500000Y-47500000D03*
%TD*%
D12*
%TO.C,U10*%
X203000000Y-91300000D03*
D10*
X203000000Y-93840000D03*
X203000000Y-96380000D03*
X203000000Y-98920000D03*
X203000000Y-101460000D03*
X208080000Y-101460000D03*
X208080000Y-98920000D03*
X208080000Y-96380000D03*
X208080000Y-93840000D03*
X208080000Y-91300000D03*
%TD*%
%TO.C,R7*%
X183150000Y-98750000D03*
D11*
X195850000Y-98750000D03*
%TD*%
D12*
%TO.C,U1*%
X164700000Y-114200000D03*
D11*
X164700000Y-116740000D03*
X164700000Y-119280000D03*
X164700000Y-121820000D03*
X172320000Y-121820000D03*
X172320000Y-119280000D03*
X172320000Y-116740000D03*
X172320000Y-114200000D03*
%TD*%
D10*
%TO.C,R16*%
X201150000Y-75000000D03*
D11*
X213850000Y-75000000D03*
%TD*%
D16*
%TO.C,J1*%
X149000000Y-45195000D03*
D17*
X144000000Y-45195000D03*
%TD*%
D12*
%TO.C,U8*%
X171880000Y-61840000D03*
D11*
X171880000Y-64380000D03*
X171880000Y-66920000D03*
X171880000Y-69460000D03*
X171880000Y-72000000D03*
X171880000Y-74540000D03*
X171880000Y-77080000D03*
X171880000Y-79620000D03*
X179500000Y-79620000D03*
X179500000Y-77080000D03*
X179500000Y-74540000D03*
X179500000Y-72000000D03*
X179500000Y-69460000D03*
X179500000Y-66920000D03*
X179500000Y-64380000D03*
X179500000Y-61840000D03*
%TD*%
%TO.C,U9*%
X193500000Y-61840000D03*
X193500000Y-64380000D03*
X193500000Y-66920000D03*
X193500000Y-69460000D03*
X193500000Y-72000000D03*
X193500000Y-74540000D03*
X193500000Y-77080000D03*
X193500000Y-79620000D03*
X185880000Y-79620000D03*
X185880000Y-77080000D03*
X185880000Y-74540000D03*
X185880000Y-72000000D03*
X185880000Y-69460000D03*
X185880000Y-66920000D03*
X185880000Y-64380000D03*
D12*
X185880000Y-61840000D03*
%TD*%
M02*
