%TF.GenerationSoftware,KiCad,Pcbnew,8.0.2*%
%TF.CreationDate,2024-05-14T19:41:19+03:00*%
%TF.ProjectId,PCB1,50434231-2e6b-4696-9361-645f70636258,rev?*%
%TF.SameCoordinates,Original*%
%TF.FileFunction,Other,User*%
%FSLAX46Y46*%
G04 Gerber Fmt 4.6, Leading zero omitted, Abs format (unit mm)*
G04 Created by KiCad (PCBNEW 8.0.2) date 2024-05-14 19:41:19*
%MOMM*%
%LPD*%
G01*
G04 APERTURE LIST*
%ADD10C,0.050000*%
G04 APERTURE END LIST*
D10*
%TO.C,R3*%
X139600000Y-117150000D02*
X139600000Y-120850000D01*
X139600000Y-120850000D02*
X154400000Y-120850000D01*
X154400000Y-117150000D02*
X139600000Y-117150000D01*
X154400000Y-120850000D02*
X154400000Y-117150000D01*
%TO.C,C1*%
X155450000Y-41300000D02*
X155450000Y-43700000D01*
X155450000Y-43700000D02*
X162550000Y-43700000D01*
X162550000Y-41300000D02*
X155450000Y-41300000D01*
X162550000Y-43700000D02*
X162550000Y-41300000D01*
%TO.C,U5*%
X140900000Y-61750000D02*
X140900000Y-82600000D01*
X140900000Y-82600000D02*
X150700000Y-82600000D01*
X150700000Y-61750000D02*
X140900000Y-61750000D01*
X150700000Y-82600000D02*
X150700000Y-61750000D01*
%TO.C,R18*%
X200100000Y-82650000D02*
X200100000Y-86350000D01*
X200100000Y-86350000D02*
X214900000Y-86350000D01*
X214900000Y-82650000D02*
X200100000Y-82650000D01*
X214900000Y-86350000D02*
X214900000Y-82650000D01*
%TO.C,R14*%
X200100000Y-63650000D02*
X200100000Y-67350000D01*
X200100000Y-67350000D02*
X214900000Y-67350000D01*
X214900000Y-63650000D02*
X200100000Y-63650000D01*
X214900000Y-67350000D02*
X214900000Y-63650000D01*
%TO.C,R5*%
X182100000Y-87400000D02*
X182100000Y-91100000D01*
X182100000Y-91100000D02*
X196900000Y-91100000D01*
X196900000Y-87400000D02*
X182100000Y-87400000D01*
X196900000Y-91100000D02*
X196900000Y-87400000D01*
%TO.C,R8*%
X182100000Y-101650000D02*
X182100000Y-105350000D01*
X182100000Y-105350000D02*
X196900000Y-105350000D01*
X196900000Y-101650000D02*
X182100000Y-101650000D01*
X196900000Y-105350000D02*
X196900000Y-101650000D01*
%TO.C,R13*%
X200100000Y-58900000D02*
X200100000Y-62600000D01*
X200100000Y-62600000D02*
X214900000Y-62600000D01*
X214900000Y-58900000D02*
X200100000Y-58900000D01*
X214900000Y-62600000D02*
X214900000Y-58900000D01*
%TO.C,R6*%
X182100000Y-92150000D02*
X182100000Y-95850000D01*
X182100000Y-95850000D02*
X196900000Y-95850000D01*
X196900000Y-92150000D02*
X182100000Y-92150000D01*
X196900000Y-95850000D02*
X196900000Y-92150000D01*
%TO.C,C4*%
X162750000Y-120000000D02*
G75*
G02*
X157250000Y-120000000I-2750000J0D01*
G01*
X157250000Y-120000000D02*
G75*
G02*
X162750000Y-120000000I2750000J0D01*
G01*
%TO.C,SW1*%
X168750000Y-41750000D02*
X169000000Y-41750000D01*
X168750000Y-42000000D02*
X168750000Y-41750000D01*
X168750000Y-49000000D02*
X168750000Y-42000000D01*
X168750000Y-49000000D02*
X168750000Y-49250000D01*
X168750000Y-49250000D02*
X169000000Y-49250000D01*
X169000000Y-41750000D02*
X178000000Y-41750000D01*
X178000000Y-41750000D02*
X178250000Y-41750000D01*
X178000000Y-49250000D02*
X169000000Y-49250000D01*
X178000000Y-49250000D02*
X178250000Y-49250000D01*
X178250000Y-41750000D02*
X178250000Y-42000000D01*
X178250000Y-42000000D02*
X178250000Y-49000000D01*
X178250000Y-49250000D02*
X178250000Y-49000000D01*
%TO.C,U6*%
X152900000Y-61750000D02*
X152900000Y-82600000D01*
X152900000Y-82600000D02*
X162700000Y-82600000D01*
X162700000Y-61750000D02*
X152900000Y-61750000D01*
X162700000Y-82600000D02*
X162700000Y-61750000D01*
%TO.C,R15*%
X200100000Y-68400000D02*
X200100000Y-72100000D01*
X200100000Y-72100000D02*
X214900000Y-72100000D01*
X214900000Y-68400000D02*
X200100000Y-68400000D01*
X214900000Y-72100000D02*
X214900000Y-68400000D01*
%TO.C,R1*%
X158830000Y-52650000D02*
X158830000Y-56350000D01*
X158830000Y-56350000D02*
X176170000Y-56350000D01*
X176170000Y-52650000D02*
X158830000Y-52650000D01*
X176170000Y-56350000D02*
X176170000Y-52650000D01*
%TO.C,U11*%
X212500000Y-89840000D02*
X220600000Y-89840000D01*
X212500000Y-103040000D02*
X212500000Y-89840000D01*
X220600000Y-89840000D02*
X220600000Y-103040000D01*
X220600000Y-103040000D02*
X212500000Y-103040000D01*
%TO.C,R10*%
X182100000Y-111150000D02*
X182100000Y-114850000D01*
X182100000Y-114850000D02*
X196900000Y-114850000D01*
X196900000Y-111150000D02*
X182100000Y-111150000D01*
X196900000Y-114850000D02*
X196900000Y-111150000D01*
%TO.C,U3*%
X143600000Y-90825000D02*
X143600000Y-109175000D01*
X143600000Y-109175000D02*
X153400000Y-109175000D01*
X153400000Y-90825000D02*
X143600000Y-90825000D01*
X153400000Y-109175000D02*
X153400000Y-90825000D01*
%TO.C,R11*%
X182100000Y-115900000D02*
X182100000Y-119600000D01*
X182100000Y-119600000D02*
X196900000Y-119600000D01*
X196900000Y-115900000D02*
X182100000Y-115900000D01*
X196900000Y-119600000D02*
X196900000Y-115900000D01*
%TO.C,U7*%
X157900000Y-90750000D02*
X157900000Y-109100000D01*
X157900000Y-109100000D02*
X167700000Y-109100000D01*
X167700000Y-90750000D02*
X157900000Y-90750000D01*
X167700000Y-109100000D02*
X167700000Y-90750000D01*
%TO.C,C3*%
X155950000Y-113300000D02*
X155950000Y-115700000D01*
X155950000Y-115700000D02*
X163050000Y-115700000D01*
X163050000Y-113300000D02*
X155950000Y-113300000D01*
X163050000Y-115700000D02*
X163050000Y-113300000D01*
%TO.C,R4*%
X179330000Y-52650000D02*
X179330000Y-56350000D01*
X179330000Y-56350000D02*
X196670000Y-56350000D01*
X196670000Y-52650000D02*
X179330000Y-52650000D01*
X196670000Y-56350000D02*
X196670000Y-52650000D01*
%TO.C,R12*%
X200100000Y-54150000D02*
X200100000Y-57850000D01*
X200100000Y-57850000D02*
X214900000Y-57850000D01*
X214900000Y-54150000D02*
X200100000Y-54150000D01*
X214900000Y-57850000D02*
X214900000Y-54150000D01*
%TO.C,U2*%
X198750000Y-39920000D02*
X198750000Y-49720000D01*
X198750000Y-49720000D02*
X217100000Y-49720000D01*
X217100000Y-39920000D02*
X198750000Y-39920000D01*
X217100000Y-49720000D02*
X217100000Y-39920000D01*
%TO.C,R17*%
X200100000Y-77900000D02*
X200100000Y-81600000D01*
X200100000Y-81600000D02*
X214900000Y-81600000D01*
X214900000Y-77900000D02*
X200100000Y-77900000D01*
X214900000Y-81600000D02*
X214900000Y-77900000D01*
%TO.C,SW2*%
X182250000Y-41750000D02*
X182500000Y-41750000D01*
X182250000Y-42000000D02*
X182250000Y-41750000D01*
X182250000Y-49000000D02*
X182250000Y-42000000D01*
X182250000Y-49000000D02*
X182250000Y-49250000D01*
X182250000Y-49250000D02*
X182500000Y-49250000D01*
X182500000Y-41750000D02*
X191500000Y-41750000D01*
X191500000Y-41750000D02*
X191750000Y-41750000D01*
X191500000Y-49250000D02*
X182500000Y-49250000D01*
X191500000Y-49250000D02*
X191750000Y-49250000D01*
X191750000Y-41750000D02*
X191750000Y-42000000D01*
X191750000Y-42000000D02*
X191750000Y-49000000D01*
X191750000Y-49250000D02*
X191750000Y-49000000D01*
%TO.C,R9*%
X182100000Y-106400000D02*
X182100000Y-110100000D01*
X182100000Y-110100000D02*
X196900000Y-110100000D01*
X196900000Y-106400000D02*
X182100000Y-106400000D01*
X196900000Y-110100000D02*
X196900000Y-106400000D01*
%TO.C,U4*%
X141250000Y-53545000D02*
X141250000Y-58455000D01*
X141250000Y-58455000D02*
X151750000Y-58455000D01*
X151750000Y-53545000D02*
X141250000Y-53545000D01*
X151750000Y-58455000D02*
X151750000Y-53545000D01*
%TO.C,R2*%
X139600000Y-112650000D02*
X139600000Y-116350000D01*
X139600000Y-116350000D02*
X154400000Y-116350000D01*
X154400000Y-112650000D02*
X139600000Y-112650000D01*
X154400000Y-116350000D02*
X154400000Y-112650000D01*
%TO.C,C2*%
X155450000Y-46300000D02*
X155450000Y-48700000D01*
X155450000Y-48700000D02*
X162550000Y-48700000D01*
X162550000Y-46300000D02*
X155450000Y-46300000D01*
X162550000Y-48700000D02*
X162550000Y-46300000D01*
%TO.C,U10*%
X201500000Y-89800000D02*
X209600000Y-89800000D01*
X201500000Y-103000000D02*
X201500000Y-89800000D01*
X209600000Y-89800000D02*
X209600000Y-103000000D01*
X209600000Y-103000000D02*
X201500000Y-103000000D01*
%TO.C,R7*%
X182100000Y-96900000D02*
X182100000Y-100600000D01*
X182100000Y-100600000D02*
X196900000Y-100600000D01*
X196900000Y-96900000D02*
X182100000Y-96900000D01*
X196900000Y-100600000D02*
X196900000Y-96900000D01*
%TO.C,U1*%
X163600000Y-112650000D02*
X163600000Y-123350000D01*
X163600000Y-123350000D02*
X173400000Y-123350000D01*
X173400000Y-112650000D02*
X163600000Y-112650000D01*
X173400000Y-123350000D02*
X173400000Y-112650000D01*
%TO.C,R16*%
X200100000Y-73150000D02*
X200100000Y-76850000D01*
X200100000Y-76850000D02*
X214900000Y-76850000D01*
X214900000Y-73150000D02*
X200100000Y-73150000D01*
X214900000Y-76850000D02*
X214900000Y-73150000D01*
%TO.C,J1*%
X141000000Y-40095000D02*
X141000000Y-50905000D01*
X141000000Y-50905000D02*
X152000000Y-50905000D01*
X152000000Y-40095000D02*
X141000000Y-40095000D01*
X152000000Y-50905000D02*
X152000000Y-40095000D01*
%TO.C,U8*%
X170780000Y-60290000D02*
X170780000Y-81140000D01*
X170780000Y-81140000D02*
X180580000Y-81140000D01*
X180580000Y-60290000D02*
X170780000Y-60290000D01*
X180580000Y-81140000D02*
X180580000Y-60290000D01*
%TO.C,U9*%
X194580000Y-81140000D02*
X194580000Y-60290000D01*
X194580000Y-60290000D02*
X184780000Y-60290000D01*
X184780000Y-81140000D02*
X194580000Y-81140000D01*
X184780000Y-60290000D02*
X184780000Y-81140000D01*
%TD*%
M02*
