M48
; DRILL file {KiCad 8.0.2} date 2024-05-14T19:41:37+0300
; FORMAT={-:-/ absolute / metric / decimal}
; #@! TF.CreationDate,2024-05-14T19:41:37+03:00
; #@! TF.GenerationSoftware,Kicad,Pcbnew,8.0.2
; #@! TF.FileFunction,Plated,1,4,PTH
FMAT,2
METRIC
; #@! TA.AperFunction,Plated,PTH,ComponentDrill
T1C0.800
; #@! TA.AperFunction,Plated,PTH,ComponentDrill
T2C1.100
; #@! TA.AperFunction,Plated,PTH,ComponentDrill
T3C1.300
%
G90
G05
T1
X140.65Y-114.5
X140.65Y-119.0
X142.0Y-63.3
X142.0Y-65.84
X142.0Y-68.38
X142.0Y-70.92
X142.0Y-73.46
X142.0Y-76.0
X142.0Y-78.54
X142.0Y-81.08
X144.7Y-92.375
X144.7Y-94.915
X144.7Y-97.455
X144.7Y-99.995
X144.7Y-102.535
X144.7Y-105.075
X144.7Y-107.615
X149.62Y-63.3
X149.62Y-65.84
X149.62Y-68.38
X149.62Y-70.92
X149.62Y-73.46
X149.62Y-76.0
X149.62Y-78.54
X149.62Y-81.08
X152.32Y-92.375
X152.32Y-94.915
X152.32Y-97.455
X152.32Y-99.995
X152.32Y-102.535
X152.32Y-105.075
X152.32Y-107.615
X153.35Y-114.5
X153.35Y-119.0
X154.0Y-63.3
X154.0Y-65.84
X154.0Y-68.38
X154.0Y-70.92
X154.0Y-73.46
X154.0Y-76.0
X154.0Y-78.54
X154.0Y-81.08
X156.5Y-42.5
X156.5Y-47.5
X157.0Y-114.5
X159.0Y-92.3
X159.0Y-94.84
X159.0Y-97.38
X159.0Y-99.92
X159.0Y-102.46
X159.0Y-105.0
X159.0Y-107.54
X159.0Y-120.0
X159.88Y-54.5
X161.0Y-120.0
X161.5Y-42.5
X161.5Y-47.5
X161.62Y-63.3
X161.62Y-65.84
X161.62Y-68.38
X161.62Y-70.92
X161.62Y-73.46
X161.62Y-76.0
X161.62Y-78.54
X161.62Y-81.08
X162.0Y-114.5
X164.7Y-114.2
X164.7Y-116.74
X164.7Y-119.28
X164.7Y-121.82
X166.62Y-92.3
X166.62Y-94.84
X166.62Y-97.38
X166.62Y-99.92
X166.62Y-102.46
X166.62Y-105.0
X166.62Y-107.54
X171.88Y-61.84
X171.88Y-64.38
X171.88Y-66.92
X171.88Y-69.46
X171.88Y-72.0
X171.88Y-74.54
X171.88Y-77.08
X171.88Y-79.62
X172.32Y-114.2
X172.32Y-116.74
X172.32Y-119.28
X172.32Y-121.82
X175.12Y-54.5
X179.5Y-61.84
X179.5Y-64.38
X179.5Y-66.92
X179.5Y-69.46
X179.5Y-72.0
X179.5Y-74.54
X179.5Y-77.08
X179.5Y-79.62
X180.38Y-54.5
X183.15Y-89.25
X183.15Y-94.0
X183.15Y-98.75
X183.15Y-103.5
X183.15Y-108.25
X183.15Y-113.0
X183.15Y-117.75
X185.88Y-61.84
X185.88Y-64.38
X185.88Y-66.92
X185.88Y-69.46
X185.88Y-72.0
X185.88Y-74.54
X185.88Y-77.08
X185.88Y-79.62
X193.5Y-61.84
X193.5Y-64.38
X193.5Y-66.92
X193.5Y-69.46
X193.5Y-72.0
X193.5Y-74.54
X193.5Y-77.08
X193.5Y-79.62
X195.62Y-54.5
X195.85Y-89.25
X195.85Y-94.0
X195.85Y-98.75
X195.85Y-103.5
X195.85Y-108.25
X195.85Y-113.0
X195.85Y-117.75
X200.3Y-41.0
X200.3Y-48.62
X201.15Y-56.0
X201.15Y-60.75
X201.15Y-65.5
X201.15Y-70.25
X201.15Y-75.0
X201.15Y-79.75
X201.15Y-84.5
X202.84Y-41.0
X202.84Y-48.62
X203.0Y-91.3
X203.0Y-93.84
X203.0Y-96.38
X203.0Y-98.92
X203.0Y-101.46
X205.38Y-41.0
X205.38Y-48.62
X207.92Y-41.0
X207.92Y-48.62
X208.08Y-91.3
X208.08Y-93.84
X208.08Y-96.38
X208.08Y-98.92
X208.08Y-101.46
X210.46Y-41.0
X210.46Y-48.62
X213.0Y-41.0
X213.0Y-48.62
X213.85Y-56.0
X213.85Y-60.75
X213.85Y-65.5
X213.85Y-70.25
X213.85Y-75.0
X213.85Y-79.75
X213.85Y-84.5
X214.0Y-91.34
X214.0Y-93.88
X214.0Y-96.42
X214.0Y-98.96
X214.0Y-101.5
X215.54Y-41.0
X215.54Y-48.62
X219.08Y-91.34
X219.08Y-93.88
X219.08Y-96.42
X219.08Y-98.96
X219.08Y-101.5
T2
X143.96Y-56.945
X146.5Y-56.945
X149.04Y-56.945
X170.25Y-43.25
X170.25Y-47.75
X176.75Y-43.25
X176.75Y-47.75
X183.75Y-43.25
X183.75Y-47.75
X190.25Y-43.25
X190.25Y-47.75
T3
X144.0Y-45.195
X149.0Y-45.195
M30
