%TF.GenerationSoftware,KiCad,Pcbnew,8.0.2*%
%TF.CreationDate,2024-05-14T19:41:18+03:00*%
%TF.ProjectId,PCB1,50434231-2e6b-4696-9361-645f70636258,rev?*%
%TF.SameCoordinates,Original*%
%TF.FileFunction,Legend,Top*%
%TF.FilePolarity,Positive*%
%FSLAX46Y46*%
G04 Gerber Fmt 4.6, Leading zero omitted, Abs format (unit mm)*
G04 Created by KiCad (PCBNEW 8.0.2) date 2024-05-14 19:41:18*
%MOMM*%
%LPD*%
G01*
G04 APERTURE LIST*
%ADD10C,0.100000*%
%ADD11C,0.150000*%
%ADD12C,0.120000*%
G04 APERTURE END LIST*
D10*
X203256265Y-120104912D02*
X203399122Y-120152531D01*
X203399122Y-120152531D02*
X203637217Y-120152531D01*
X203637217Y-120152531D02*
X203732455Y-120104912D01*
X203732455Y-120104912D02*
X203780074Y-120057292D01*
X203780074Y-120057292D02*
X203827693Y-119962054D01*
X203827693Y-119962054D02*
X203827693Y-119866816D01*
X203827693Y-119866816D02*
X203780074Y-119771578D01*
X203780074Y-119771578D02*
X203732455Y-119723959D01*
X203732455Y-119723959D02*
X203637217Y-119676340D01*
X203637217Y-119676340D02*
X203446741Y-119628721D01*
X203446741Y-119628721D02*
X203351503Y-119581102D01*
X203351503Y-119581102D02*
X203303884Y-119533483D01*
X203303884Y-119533483D02*
X203256265Y-119438245D01*
X203256265Y-119438245D02*
X203256265Y-119343007D01*
X203256265Y-119343007D02*
X203303884Y-119247769D01*
X203303884Y-119247769D02*
X203351503Y-119200150D01*
X203351503Y-119200150D02*
X203446741Y-119152531D01*
X203446741Y-119152531D02*
X203684836Y-119152531D01*
X203684836Y-119152531D02*
X203827693Y-119200150D01*
X204684836Y-120152531D02*
X204684836Y-119628721D01*
X204684836Y-119628721D02*
X204637217Y-119533483D01*
X204637217Y-119533483D02*
X204541979Y-119485864D01*
X204541979Y-119485864D02*
X204351503Y-119485864D01*
X204351503Y-119485864D02*
X204256265Y-119533483D01*
X204684836Y-120104912D02*
X204589598Y-120152531D01*
X204589598Y-120152531D02*
X204351503Y-120152531D01*
X204351503Y-120152531D02*
X204256265Y-120104912D01*
X204256265Y-120104912D02*
X204208646Y-120009673D01*
X204208646Y-120009673D02*
X204208646Y-119914435D01*
X204208646Y-119914435D02*
X204256265Y-119819197D01*
X204256265Y-119819197D02*
X204351503Y-119771578D01*
X204351503Y-119771578D02*
X204589598Y-119771578D01*
X204589598Y-119771578D02*
X204684836Y-119723959D01*
X205161027Y-119485864D02*
X205161027Y-120152531D01*
X205161027Y-119581102D02*
X205208646Y-119533483D01*
X205208646Y-119533483D02*
X205303884Y-119485864D01*
X205303884Y-119485864D02*
X205446741Y-119485864D01*
X205446741Y-119485864D02*
X205541979Y-119533483D01*
X205541979Y-119533483D02*
X205589598Y-119628721D01*
X205589598Y-119628721D02*
X205589598Y-120152531D01*
X206494360Y-120152531D02*
X206494360Y-119152531D01*
X206494360Y-120104912D02*
X206399122Y-120152531D01*
X206399122Y-120152531D02*
X206208646Y-120152531D01*
X206208646Y-120152531D02*
X206113408Y-120104912D01*
X206113408Y-120104912D02*
X206065789Y-120057292D01*
X206065789Y-120057292D02*
X206018170Y-119962054D01*
X206018170Y-119962054D02*
X206018170Y-119676340D01*
X206018170Y-119676340D02*
X206065789Y-119581102D01*
X206065789Y-119581102D02*
X206113408Y-119533483D01*
X206113408Y-119533483D02*
X206208646Y-119485864D01*
X206208646Y-119485864D02*
X206399122Y-119485864D01*
X206399122Y-119485864D02*
X206494360Y-119533483D01*
X207399122Y-120152531D02*
X207399122Y-119628721D01*
X207399122Y-119628721D02*
X207351503Y-119533483D01*
X207351503Y-119533483D02*
X207256265Y-119485864D01*
X207256265Y-119485864D02*
X207065789Y-119485864D01*
X207065789Y-119485864D02*
X206970551Y-119533483D01*
X207399122Y-120104912D02*
X207303884Y-120152531D01*
X207303884Y-120152531D02*
X207065789Y-120152531D01*
X207065789Y-120152531D02*
X206970551Y-120104912D01*
X206970551Y-120104912D02*
X206922932Y-120009673D01*
X206922932Y-120009673D02*
X206922932Y-119914435D01*
X206922932Y-119914435D02*
X206970551Y-119819197D01*
X206970551Y-119819197D02*
X207065789Y-119771578D01*
X207065789Y-119771578D02*
X207303884Y-119771578D01*
X207303884Y-119771578D02*
X207399122Y-119723959D01*
X209161027Y-119200150D02*
X209065789Y-119152531D01*
X209065789Y-119152531D02*
X208922932Y-119152531D01*
X208922932Y-119152531D02*
X208780075Y-119200150D01*
X208780075Y-119200150D02*
X208684837Y-119295388D01*
X208684837Y-119295388D02*
X208637218Y-119390626D01*
X208637218Y-119390626D02*
X208589599Y-119581102D01*
X208589599Y-119581102D02*
X208589599Y-119723959D01*
X208589599Y-119723959D02*
X208637218Y-119914435D01*
X208637218Y-119914435D02*
X208684837Y-120009673D01*
X208684837Y-120009673D02*
X208780075Y-120104912D01*
X208780075Y-120104912D02*
X208922932Y-120152531D01*
X208922932Y-120152531D02*
X209018170Y-120152531D01*
X209018170Y-120152531D02*
X209161027Y-120104912D01*
X209161027Y-120104912D02*
X209208646Y-120057292D01*
X209208646Y-120057292D02*
X209208646Y-119723959D01*
X209208646Y-119723959D02*
X209018170Y-119723959D01*
X210018170Y-120104912D02*
X209922932Y-120152531D01*
X209922932Y-120152531D02*
X209732456Y-120152531D01*
X209732456Y-120152531D02*
X209637218Y-120104912D01*
X209637218Y-120104912D02*
X209589599Y-120009673D01*
X209589599Y-120009673D02*
X209589599Y-119628721D01*
X209589599Y-119628721D02*
X209637218Y-119533483D01*
X209637218Y-119533483D02*
X209732456Y-119485864D01*
X209732456Y-119485864D02*
X209922932Y-119485864D01*
X209922932Y-119485864D02*
X210018170Y-119533483D01*
X210018170Y-119533483D02*
X210065789Y-119628721D01*
X210065789Y-119628721D02*
X210065789Y-119723959D01*
X210065789Y-119723959D02*
X209589599Y-119819197D01*
X210637218Y-120152531D02*
X210541980Y-120104912D01*
X210541980Y-120104912D02*
X210494361Y-120057292D01*
X210494361Y-120057292D02*
X210446742Y-119962054D01*
X210446742Y-119962054D02*
X210446742Y-119676340D01*
X210446742Y-119676340D02*
X210494361Y-119581102D01*
X210494361Y-119581102D02*
X210541980Y-119533483D01*
X210541980Y-119533483D02*
X210637218Y-119485864D01*
X210637218Y-119485864D02*
X210780075Y-119485864D01*
X210780075Y-119485864D02*
X210875313Y-119533483D01*
X210875313Y-119533483D02*
X210922932Y-119581102D01*
X210922932Y-119581102D02*
X210970551Y-119676340D01*
X210970551Y-119676340D02*
X210970551Y-119962054D01*
X210970551Y-119962054D02*
X210922932Y-120057292D01*
X210922932Y-120057292D02*
X210875313Y-120104912D01*
X210875313Y-120104912D02*
X210780075Y-120152531D01*
X210780075Y-120152531D02*
X210637218Y-120152531D01*
X211399123Y-120152531D02*
X211399123Y-119485864D01*
X211399123Y-119676340D02*
X211446742Y-119581102D01*
X211446742Y-119581102D02*
X211494361Y-119533483D01*
X211494361Y-119533483D02*
X211589599Y-119485864D01*
X211589599Y-119485864D02*
X211684837Y-119485864D01*
X212446742Y-119485864D02*
X212446742Y-120295388D01*
X212446742Y-120295388D02*
X212399123Y-120390626D01*
X212399123Y-120390626D02*
X212351504Y-120438245D01*
X212351504Y-120438245D02*
X212256266Y-120485864D01*
X212256266Y-120485864D02*
X212113409Y-120485864D01*
X212113409Y-120485864D02*
X212018171Y-120438245D01*
X212446742Y-120104912D02*
X212351504Y-120152531D01*
X212351504Y-120152531D02*
X212161028Y-120152531D01*
X212161028Y-120152531D02*
X212065790Y-120104912D01*
X212065790Y-120104912D02*
X212018171Y-120057292D01*
X212018171Y-120057292D02*
X211970552Y-119962054D01*
X211970552Y-119962054D02*
X211970552Y-119676340D01*
X211970552Y-119676340D02*
X212018171Y-119581102D01*
X212018171Y-119581102D02*
X212065790Y-119533483D01*
X212065790Y-119533483D02*
X212161028Y-119485864D01*
X212161028Y-119485864D02*
X212351504Y-119485864D01*
X212351504Y-119485864D02*
X212446742Y-119533483D01*
X212922933Y-120152531D02*
X212922933Y-119485864D01*
X212922933Y-119152531D02*
X212875314Y-119200150D01*
X212875314Y-119200150D02*
X212922933Y-119247769D01*
X212922933Y-119247769D02*
X212970552Y-119200150D01*
X212970552Y-119200150D02*
X212922933Y-119152531D01*
X212922933Y-119152531D02*
X212922933Y-119247769D01*
X213827694Y-120152531D02*
X213827694Y-119628721D01*
X213827694Y-119628721D02*
X213780075Y-119533483D01*
X213780075Y-119533483D02*
X213684837Y-119485864D01*
X213684837Y-119485864D02*
X213494361Y-119485864D01*
X213494361Y-119485864D02*
X213399123Y-119533483D01*
X213827694Y-120104912D02*
X213732456Y-120152531D01*
X213732456Y-120152531D02*
X213494361Y-120152531D01*
X213494361Y-120152531D02*
X213399123Y-120104912D01*
X213399123Y-120104912D02*
X213351504Y-120009673D01*
X213351504Y-120009673D02*
X213351504Y-119914435D01*
X213351504Y-119914435D02*
X213399123Y-119819197D01*
X213399123Y-119819197D02*
X213494361Y-119771578D01*
X213494361Y-119771578D02*
X213732456Y-119771578D01*
X213732456Y-119771578D02*
X213827694Y-119723959D01*
X214303885Y-119485864D02*
X214303885Y-120152531D01*
X214303885Y-119581102D02*
X214351504Y-119533483D01*
X214351504Y-119533483D02*
X214446742Y-119485864D01*
X214446742Y-119485864D02*
X214589599Y-119485864D01*
X214589599Y-119485864D02*
X214684837Y-119533483D01*
X214684837Y-119533483D02*
X214732456Y-119628721D01*
X214732456Y-119628721D02*
X214732456Y-120152531D01*
X215637218Y-120152531D02*
X215637218Y-119628721D01*
X215637218Y-119628721D02*
X215589599Y-119533483D01*
X215589599Y-119533483D02*
X215494361Y-119485864D01*
X215494361Y-119485864D02*
X215303885Y-119485864D01*
X215303885Y-119485864D02*
X215208647Y-119533483D01*
X215637218Y-120104912D02*
X215541980Y-120152531D01*
X215541980Y-120152531D02*
X215303885Y-120152531D01*
X215303885Y-120152531D02*
X215208647Y-120104912D01*
X215208647Y-120104912D02*
X215161028Y-120009673D01*
X215161028Y-120009673D02*
X215161028Y-119914435D01*
X215161028Y-119914435D02*
X215208647Y-119819197D01*
X215208647Y-119819197D02*
X215303885Y-119771578D01*
X215303885Y-119771578D02*
X215541980Y-119771578D01*
X215541980Y-119771578D02*
X215637218Y-119723959D01*
X216113409Y-119771578D02*
X216875314Y-119771578D01*
X217351504Y-120152531D02*
X217351504Y-119152531D01*
X217970551Y-120152531D02*
X217875313Y-120104912D01*
X217875313Y-120104912D02*
X217827694Y-120057292D01*
X217827694Y-120057292D02*
X217780075Y-119962054D01*
X217780075Y-119962054D02*
X217780075Y-119676340D01*
X217780075Y-119676340D02*
X217827694Y-119581102D01*
X217827694Y-119581102D02*
X217875313Y-119533483D01*
X217875313Y-119533483D02*
X217970551Y-119485864D01*
X217970551Y-119485864D02*
X218113408Y-119485864D01*
X218113408Y-119485864D02*
X218208646Y-119533483D01*
X218208646Y-119533483D02*
X218256265Y-119581102D01*
X218256265Y-119581102D02*
X218303884Y-119676340D01*
X218303884Y-119676340D02*
X218303884Y-119962054D01*
X218303884Y-119962054D02*
X218256265Y-120057292D01*
X218256265Y-120057292D02*
X218208646Y-120104912D01*
X218208646Y-120104912D02*
X218113408Y-120152531D01*
X218113408Y-120152531D02*
X217970551Y-120152531D01*
X219161027Y-120152531D02*
X219161027Y-119628721D01*
X219161027Y-119628721D02*
X219113408Y-119533483D01*
X219113408Y-119533483D02*
X219018170Y-119485864D01*
X219018170Y-119485864D02*
X218827694Y-119485864D01*
X218827694Y-119485864D02*
X218732456Y-119533483D01*
X219161027Y-120104912D02*
X219065789Y-120152531D01*
X219065789Y-120152531D02*
X218827694Y-120152531D01*
X218827694Y-120152531D02*
X218732456Y-120104912D01*
X218732456Y-120104912D02*
X218684837Y-120009673D01*
X218684837Y-120009673D02*
X218684837Y-119914435D01*
X218684837Y-119914435D02*
X218732456Y-119819197D01*
X218732456Y-119819197D02*
X218827694Y-119771578D01*
X218827694Y-119771578D02*
X219065789Y-119771578D01*
X219065789Y-119771578D02*
X219161027Y-119723959D01*
X219637218Y-119485864D02*
X219637218Y-120152531D01*
X219637218Y-119581102D02*
X219684837Y-119533483D01*
X219684837Y-119533483D02*
X219780075Y-119485864D01*
X219780075Y-119485864D02*
X219922932Y-119485864D01*
X219922932Y-119485864D02*
X220018170Y-119533483D01*
X220018170Y-119533483D02*
X220065789Y-119628721D01*
X220065789Y-119628721D02*
X220065789Y-120152531D01*
X220970551Y-120152531D02*
X220970551Y-119628721D01*
X220970551Y-119628721D02*
X220922932Y-119533483D01*
X220922932Y-119533483D02*
X220827694Y-119485864D01*
X220827694Y-119485864D02*
X220637218Y-119485864D01*
X220637218Y-119485864D02*
X220541980Y-119533483D01*
X220970551Y-120104912D02*
X220875313Y-120152531D01*
X220875313Y-120152531D02*
X220637218Y-120152531D01*
X220637218Y-120152531D02*
X220541980Y-120104912D01*
X220541980Y-120104912D02*
X220494361Y-120009673D01*
X220494361Y-120009673D02*
X220494361Y-119914435D01*
X220494361Y-119914435D02*
X220541980Y-119819197D01*
X220541980Y-119819197D02*
X220637218Y-119771578D01*
X220637218Y-119771578D02*
X220875313Y-119771578D01*
X220875313Y-119771578D02*
X220970551Y-119723959D01*
X203875312Y-121667236D02*
X203827693Y-121714856D01*
X203827693Y-121714856D02*
X203684836Y-121762475D01*
X203684836Y-121762475D02*
X203589598Y-121762475D01*
X203589598Y-121762475D02*
X203446741Y-121714856D01*
X203446741Y-121714856D02*
X203351503Y-121619617D01*
X203351503Y-121619617D02*
X203303884Y-121524379D01*
X203303884Y-121524379D02*
X203256265Y-121333903D01*
X203256265Y-121333903D02*
X203256265Y-121191046D01*
X203256265Y-121191046D02*
X203303884Y-121000570D01*
X203303884Y-121000570D02*
X203351503Y-120905332D01*
X203351503Y-120905332D02*
X203446741Y-120810094D01*
X203446741Y-120810094D02*
X203589598Y-120762475D01*
X203589598Y-120762475D02*
X203684836Y-120762475D01*
X203684836Y-120762475D02*
X203827693Y-120810094D01*
X203827693Y-120810094D02*
X203875312Y-120857713D01*
X204732455Y-121762475D02*
X204732455Y-121238665D01*
X204732455Y-121238665D02*
X204684836Y-121143427D01*
X204684836Y-121143427D02*
X204589598Y-121095808D01*
X204589598Y-121095808D02*
X204399122Y-121095808D01*
X204399122Y-121095808D02*
X204303884Y-121143427D01*
X204732455Y-121714856D02*
X204637217Y-121762475D01*
X204637217Y-121762475D02*
X204399122Y-121762475D01*
X204399122Y-121762475D02*
X204303884Y-121714856D01*
X204303884Y-121714856D02*
X204256265Y-121619617D01*
X204256265Y-121619617D02*
X204256265Y-121524379D01*
X204256265Y-121524379D02*
X204303884Y-121429141D01*
X204303884Y-121429141D02*
X204399122Y-121381522D01*
X204399122Y-121381522D02*
X204637217Y-121381522D01*
X204637217Y-121381522D02*
X204732455Y-121333903D01*
X205351503Y-121762475D02*
X205256265Y-121714856D01*
X205256265Y-121714856D02*
X205208646Y-121619617D01*
X205208646Y-121619617D02*
X205208646Y-120762475D01*
X206161027Y-121714856D02*
X206065789Y-121762475D01*
X206065789Y-121762475D02*
X205875313Y-121762475D01*
X205875313Y-121762475D02*
X205780075Y-121714856D01*
X205780075Y-121714856D02*
X205732456Y-121667236D01*
X205732456Y-121667236D02*
X205684837Y-121571998D01*
X205684837Y-121571998D02*
X205684837Y-121286284D01*
X205684837Y-121286284D02*
X205732456Y-121191046D01*
X205732456Y-121191046D02*
X205780075Y-121143427D01*
X205780075Y-121143427D02*
X205875313Y-121095808D01*
X205875313Y-121095808D02*
X206065789Y-121095808D01*
X206065789Y-121095808D02*
X206161027Y-121143427D01*
X207018170Y-121095808D02*
X207018170Y-121762475D01*
X206589599Y-121095808D02*
X206589599Y-121619617D01*
X206589599Y-121619617D02*
X206637218Y-121714856D01*
X206637218Y-121714856D02*
X206732456Y-121762475D01*
X206732456Y-121762475D02*
X206875313Y-121762475D01*
X206875313Y-121762475D02*
X206970551Y-121714856D01*
X206970551Y-121714856D02*
X207018170Y-121667236D01*
X207637218Y-121762475D02*
X207541980Y-121714856D01*
X207541980Y-121714856D02*
X207494361Y-121619617D01*
X207494361Y-121619617D02*
X207494361Y-120762475D01*
X208446742Y-121762475D02*
X208446742Y-121238665D01*
X208446742Y-121238665D02*
X208399123Y-121143427D01*
X208399123Y-121143427D02*
X208303885Y-121095808D01*
X208303885Y-121095808D02*
X208113409Y-121095808D01*
X208113409Y-121095808D02*
X208018171Y-121143427D01*
X208446742Y-121714856D02*
X208351504Y-121762475D01*
X208351504Y-121762475D02*
X208113409Y-121762475D01*
X208113409Y-121762475D02*
X208018171Y-121714856D01*
X208018171Y-121714856D02*
X207970552Y-121619617D01*
X207970552Y-121619617D02*
X207970552Y-121524379D01*
X207970552Y-121524379D02*
X208018171Y-121429141D01*
X208018171Y-121429141D02*
X208113409Y-121381522D01*
X208113409Y-121381522D02*
X208351504Y-121381522D01*
X208351504Y-121381522D02*
X208446742Y-121333903D01*
X208780076Y-121095808D02*
X209161028Y-121095808D01*
X208922933Y-120762475D02*
X208922933Y-121619617D01*
X208922933Y-121619617D02*
X208970552Y-121714856D01*
X208970552Y-121714856D02*
X209065790Y-121762475D01*
X209065790Y-121762475D02*
X209161028Y-121762475D01*
X209637219Y-121762475D02*
X209541981Y-121714856D01*
X209541981Y-121714856D02*
X209494362Y-121667236D01*
X209494362Y-121667236D02*
X209446743Y-121571998D01*
X209446743Y-121571998D02*
X209446743Y-121286284D01*
X209446743Y-121286284D02*
X209494362Y-121191046D01*
X209494362Y-121191046D02*
X209541981Y-121143427D01*
X209541981Y-121143427D02*
X209637219Y-121095808D01*
X209637219Y-121095808D02*
X209780076Y-121095808D01*
X209780076Y-121095808D02*
X209875314Y-121143427D01*
X209875314Y-121143427D02*
X209922933Y-121191046D01*
X209922933Y-121191046D02*
X209970552Y-121286284D01*
X209970552Y-121286284D02*
X209970552Y-121571998D01*
X209970552Y-121571998D02*
X209922933Y-121667236D01*
X209922933Y-121667236D02*
X209875314Y-121714856D01*
X209875314Y-121714856D02*
X209780076Y-121762475D01*
X209780076Y-121762475D02*
X209637219Y-121762475D01*
X210827695Y-121762475D02*
X210827695Y-121238665D01*
X210827695Y-121238665D02*
X210780076Y-121143427D01*
X210780076Y-121143427D02*
X210684838Y-121095808D01*
X210684838Y-121095808D02*
X210494362Y-121095808D01*
X210494362Y-121095808D02*
X210399124Y-121143427D01*
X210827695Y-121714856D02*
X210732457Y-121762475D01*
X210732457Y-121762475D02*
X210494362Y-121762475D01*
X210494362Y-121762475D02*
X210399124Y-121714856D01*
X210399124Y-121714856D02*
X210351505Y-121619617D01*
X210351505Y-121619617D02*
X210351505Y-121524379D01*
X210351505Y-121524379D02*
X210399124Y-121429141D01*
X210399124Y-121429141D02*
X210494362Y-121381522D01*
X210494362Y-121381522D02*
X210732457Y-121381522D01*
X210732457Y-121381522D02*
X210827695Y-121333903D01*
X211303886Y-121762475D02*
X211303886Y-121095808D01*
X211303886Y-121286284D02*
X211351505Y-121191046D01*
X211351505Y-121191046D02*
X211399124Y-121143427D01*
X211399124Y-121143427D02*
X211494362Y-121095808D01*
X211494362Y-121095808D02*
X211589600Y-121095808D01*
X212303886Y-121714856D02*
X212208648Y-121762475D01*
X212208648Y-121762475D02*
X212018172Y-121762475D01*
X212018172Y-121762475D02*
X211922934Y-121714856D01*
X211922934Y-121714856D02*
X211875315Y-121619617D01*
X211875315Y-121619617D02*
X211875315Y-121238665D01*
X211875315Y-121238665D02*
X211922934Y-121143427D01*
X211922934Y-121143427D02*
X212018172Y-121095808D01*
X212018172Y-121095808D02*
X212208648Y-121095808D01*
X212208648Y-121095808D02*
X212303886Y-121143427D01*
X212303886Y-121143427D02*
X212351505Y-121238665D01*
X212351505Y-121238665D02*
X212351505Y-121333903D01*
X212351505Y-121333903D02*
X211875315Y-121429141D01*
X203256265Y-123086704D02*
X203732455Y-123086704D01*
X203161027Y-123372419D02*
X203494360Y-122372419D01*
X203494360Y-122372419D02*
X203827693Y-123372419D01*
X204161027Y-122705752D02*
X204161027Y-123372419D01*
X204161027Y-122800990D02*
X204208646Y-122753371D01*
X204208646Y-122753371D02*
X204303884Y-122705752D01*
X204303884Y-122705752D02*
X204446741Y-122705752D01*
X204446741Y-122705752D02*
X204541979Y-122753371D01*
X204541979Y-122753371D02*
X204589598Y-122848609D01*
X204589598Y-122848609D02*
X204589598Y-123372419D01*
X205494360Y-122705752D02*
X205494360Y-123372419D01*
X205065789Y-122705752D02*
X205065789Y-123229561D01*
X205065789Y-123229561D02*
X205113408Y-123324800D01*
X205113408Y-123324800D02*
X205208646Y-123372419D01*
X205208646Y-123372419D02*
X205351503Y-123372419D01*
X205351503Y-123372419D02*
X205446741Y-123324800D01*
X205446741Y-123324800D02*
X205494360Y-123277180D01*
X206113408Y-123372419D02*
X206018170Y-123324800D01*
X206018170Y-123324800D02*
X205970551Y-123229561D01*
X205970551Y-123229561D02*
X205970551Y-122372419D01*
X207208647Y-122467657D02*
X207256266Y-122420038D01*
X207256266Y-122420038D02*
X207351504Y-122372419D01*
X207351504Y-122372419D02*
X207589599Y-122372419D01*
X207589599Y-122372419D02*
X207684837Y-122420038D01*
X207684837Y-122420038D02*
X207732456Y-122467657D01*
X207732456Y-122467657D02*
X207780075Y-122562895D01*
X207780075Y-122562895D02*
X207780075Y-122658133D01*
X207780075Y-122658133D02*
X207732456Y-122800990D01*
X207732456Y-122800990D02*
X207161028Y-123372419D01*
X207161028Y-123372419D02*
X207780075Y-123372419D01*
X175500000Y-112000000D02*
X171000000Y-112000000D01*
X175500000Y-124500000D02*
X175500000Y-112000000D01*
X138000000Y-124500000D02*
X175500000Y-124500000D01*
X138000000Y-112000000D02*
X138000000Y-124500000D01*
X140500000Y-112000000D02*
X138000000Y-112000000D01*
X139000000Y-87000000D02*
X139000000Y-59500000D01*
X166000000Y-87000000D02*
X138500000Y-87000000D01*
X166000000Y-59500000D02*
X166000000Y-87000000D01*
X164500000Y-59500000D02*
X166000000Y-59500000D01*
X154500000Y-59500000D02*
X164500000Y-59500000D01*
X139000000Y-38000000D02*
X139500000Y-38000000D01*
X139000000Y-59500000D02*
X139000000Y-38000000D01*
X154500000Y-59500000D02*
X139000000Y-59500000D01*
X154500000Y-51500000D02*
X154500000Y-59500000D01*
X163500000Y-51500000D02*
X154500000Y-51500000D01*
X163500000Y-38000000D02*
X163500000Y-51500000D01*
X139500000Y-38000000D02*
X163500000Y-38000000D01*
X131500000Y-32000000D02*
X231500000Y-32000000D01*
X231500000Y-132000000D01*
X131500000Y-132000000D01*
X131500000Y-32000000D01*
X168500000Y-59000000D02*
X196500000Y-59000000D01*
X196500000Y-85000000D01*
X168500000Y-85000000D01*
X168500000Y-59000000D01*
X195500000Y-38500000D02*
X220500000Y-38500000D01*
X220500000Y-52000000D01*
X195500000Y-52000000D01*
X195500000Y-38500000D01*
X199500000Y-88460000D02*
X223000000Y-88460000D01*
X223000000Y-109460000D01*
X199500000Y-109460000D01*
X199500000Y-88460000D01*
X140500000Y-89500000D02*
X171000000Y-89500000D01*
X171000000Y-112000000D01*
X140500000Y-112000000D01*
X140500000Y-89500000D01*
D11*
X145408207Y-39869819D02*
X145074874Y-39393628D01*
X144836779Y-39869819D02*
X144836779Y-38869819D01*
X144836779Y-38869819D02*
X145217731Y-38869819D01*
X145217731Y-38869819D02*
X145312969Y-38917438D01*
X145312969Y-38917438D02*
X145360588Y-38965057D01*
X145360588Y-38965057D02*
X145408207Y-39060295D01*
X145408207Y-39060295D02*
X145408207Y-39203152D01*
X145408207Y-39203152D02*
X145360588Y-39298390D01*
X145360588Y-39298390D02*
X145312969Y-39346009D01*
X145312969Y-39346009D02*
X145217731Y-39393628D01*
X145217731Y-39393628D02*
X144836779Y-39393628D01*
X146217731Y-39822200D02*
X146122493Y-39869819D01*
X146122493Y-39869819D02*
X145932017Y-39869819D01*
X145932017Y-39869819D02*
X145836779Y-39822200D01*
X145836779Y-39822200D02*
X145789160Y-39726961D01*
X145789160Y-39726961D02*
X145789160Y-39346009D01*
X145789160Y-39346009D02*
X145836779Y-39250771D01*
X145836779Y-39250771D02*
X145932017Y-39203152D01*
X145932017Y-39203152D02*
X146122493Y-39203152D01*
X146122493Y-39203152D02*
X146217731Y-39250771D01*
X146217731Y-39250771D02*
X146265350Y-39346009D01*
X146265350Y-39346009D02*
X146265350Y-39441247D01*
X146265350Y-39441247D02*
X145789160Y-39536485D01*
X147122493Y-39203152D02*
X147122493Y-40012676D01*
X147122493Y-40012676D02*
X147074874Y-40107914D01*
X147074874Y-40107914D02*
X147027255Y-40155533D01*
X147027255Y-40155533D02*
X146932017Y-40203152D01*
X146932017Y-40203152D02*
X146789160Y-40203152D01*
X146789160Y-40203152D02*
X146693922Y-40155533D01*
X147122493Y-39822200D02*
X147027255Y-39869819D01*
X147027255Y-39869819D02*
X146836779Y-39869819D01*
X146836779Y-39869819D02*
X146741541Y-39822200D01*
X146741541Y-39822200D02*
X146693922Y-39774580D01*
X146693922Y-39774580D02*
X146646303Y-39679342D01*
X146646303Y-39679342D02*
X146646303Y-39393628D01*
X146646303Y-39393628D02*
X146693922Y-39298390D01*
X146693922Y-39298390D02*
X146741541Y-39250771D01*
X146741541Y-39250771D02*
X146836779Y-39203152D01*
X146836779Y-39203152D02*
X147027255Y-39203152D01*
X147027255Y-39203152D02*
X147122493Y-39250771D01*
X148027255Y-39203152D02*
X148027255Y-39869819D01*
X147598684Y-39203152D02*
X147598684Y-39726961D01*
X147598684Y-39726961D02*
X147646303Y-39822200D01*
X147646303Y-39822200D02*
X147741541Y-39869819D01*
X147741541Y-39869819D02*
X147884398Y-39869819D01*
X147884398Y-39869819D02*
X147979636Y-39822200D01*
X147979636Y-39822200D02*
X148027255Y-39774580D01*
X148646303Y-39869819D02*
X148551065Y-39822200D01*
X148551065Y-39822200D02*
X148503446Y-39726961D01*
X148503446Y-39726961D02*
X148503446Y-38869819D01*
X149455827Y-39869819D02*
X149455827Y-39346009D01*
X149455827Y-39346009D02*
X149408208Y-39250771D01*
X149408208Y-39250771D02*
X149312970Y-39203152D01*
X149312970Y-39203152D02*
X149122494Y-39203152D01*
X149122494Y-39203152D02*
X149027256Y-39250771D01*
X149455827Y-39822200D02*
X149360589Y-39869819D01*
X149360589Y-39869819D02*
X149122494Y-39869819D01*
X149122494Y-39869819D02*
X149027256Y-39822200D01*
X149027256Y-39822200D02*
X148979637Y-39726961D01*
X148979637Y-39726961D02*
X148979637Y-39631723D01*
X148979637Y-39631723D02*
X149027256Y-39536485D01*
X149027256Y-39536485D02*
X149122494Y-39488866D01*
X149122494Y-39488866D02*
X149360589Y-39488866D01*
X149360589Y-39488866D02*
X149455827Y-39441247D01*
X149789161Y-39203152D02*
X150170113Y-39203152D01*
X149932018Y-38869819D02*
X149932018Y-39726961D01*
X149932018Y-39726961D02*
X149979637Y-39822200D01*
X149979637Y-39822200D02*
X150074875Y-39869819D01*
X150074875Y-39869819D02*
X150170113Y-39869819D01*
X150646304Y-39869819D02*
X150551066Y-39822200D01*
X150551066Y-39822200D02*
X150503447Y-39774580D01*
X150503447Y-39774580D02*
X150455828Y-39679342D01*
X150455828Y-39679342D02*
X150455828Y-39393628D01*
X150455828Y-39393628D02*
X150503447Y-39298390D01*
X150503447Y-39298390D02*
X150551066Y-39250771D01*
X150551066Y-39250771D02*
X150646304Y-39203152D01*
X150646304Y-39203152D02*
X150789161Y-39203152D01*
X150789161Y-39203152D02*
X150884399Y-39250771D01*
X150884399Y-39250771D02*
X150932018Y-39298390D01*
X150932018Y-39298390D02*
X150979637Y-39393628D01*
X150979637Y-39393628D02*
X150979637Y-39679342D01*
X150979637Y-39679342D02*
X150932018Y-39774580D01*
X150932018Y-39774580D02*
X150884399Y-39822200D01*
X150884399Y-39822200D02*
X150789161Y-39869819D01*
X150789161Y-39869819D02*
X150646304Y-39869819D01*
X151408209Y-39869819D02*
X151408209Y-39203152D01*
X151408209Y-39393628D02*
X151455828Y-39298390D01*
X151455828Y-39298390D02*
X151503447Y-39250771D01*
X151503447Y-39250771D02*
X151598685Y-39203152D01*
X151598685Y-39203152D02*
X151693923Y-39203152D01*
X153217733Y-39869819D02*
X153217733Y-38869819D01*
X153217733Y-39822200D02*
X153122495Y-39869819D01*
X153122495Y-39869819D02*
X152932019Y-39869819D01*
X152932019Y-39869819D02*
X152836781Y-39822200D01*
X152836781Y-39822200D02*
X152789162Y-39774580D01*
X152789162Y-39774580D02*
X152741543Y-39679342D01*
X152741543Y-39679342D02*
X152741543Y-39393628D01*
X152741543Y-39393628D02*
X152789162Y-39298390D01*
X152789162Y-39298390D02*
X152836781Y-39250771D01*
X152836781Y-39250771D02*
X152932019Y-39203152D01*
X152932019Y-39203152D02*
X153122495Y-39203152D01*
X153122495Y-39203152D02*
X153217733Y-39250771D01*
X154074876Y-39822200D02*
X153979638Y-39869819D01*
X153979638Y-39869819D02*
X153789162Y-39869819D01*
X153789162Y-39869819D02*
X153693924Y-39822200D01*
X153693924Y-39822200D02*
X153646305Y-39726961D01*
X153646305Y-39726961D02*
X153646305Y-39346009D01*
X153646305Y-39346009D02*
X153693924Y-39250771D01*
X153693924Y-39250771D02*
X153789162Y-39203152D01*
X153789162Y-39203152D02*
X153979638Y-39203152D01*
X153979638Y-39203152D02*
X154074876Y-39250771D01*
X154074876Y-39250771D02*
X154122495Y-39346009D01*
X154122495Y-39346009D02*
X154122495Y-39441247D01*
X154122495Y-39441247D02*
X153646305Y-39536485D01*
X155170115Y-39203152D02*
X155551067Y-39203152D01*
X155312972Y-38869819D02*
X155312972Y-39726961D01*
X155312972Y-39726961D02*
X155360591Y-39822200D01*
X155360591Y-39822200D02*
X155455829Y-39869819D01*
X155455829Y-39869819D02*
X155551067Y-39869819D01*
X156265353Y-39822200D02*
X156170115Y-39869819D01*
X156170115Y-39869819D02*
X155979639Y-39869819D01*
X155979639Y-39869819D02*
X155884401Y-39822200D01*
X155884401Y-39822200D02*
X155836782Y-39726961D01*
X155836782Y-39726961D02*
X155836782Y-39346009D01*
X155836782Y-39346009D02*
X155884401Y-39250771D01*
X155884401Y-39250771D02*
X155979639Y-39203152D01*
X155979639Y-39203152D02*
X156170115Y-39203152D01*
X156170115Y-39203152D02*
X156265353Y-39250771D01*
X156265353Y-39250771D02*
X156312972Y-39346009D01*
X156312972Y-39346009D02*
X156312972Y-39441247D01*
X156312972Y-39441247D02*
X155836782Y-39536485D01*
X156741544Y-39203152D02*
X156741544Y-39869819D01*
X156741544Y-39298390D02*
X156789163Y-39250771D01*
X156789163Y-39250771D02*
X156884401Y-39203152D01*
X156884401Y-39203152D02*
X157027258Y-39203152D01*
X157027258Y-39203152D02*
X157122496Y-39250771D01*
X157122496Y-39250771D02*
X157170115Y-39346009D01*
X157170115Y-39346009D02*
X157170115Y-39869819D01*
X157598687Y-39822200D02*
X157693925Y-39869819D01*
X157693925Y-39869819D02*
X157884401Y-39869819D01*
X157884401Y-39869819D02*
X157979639Y-39822200D01*
X157979639Y-39822200D02*
X158027258Y-39726961D01*
X158027258Y-39726961D02*
X158027258Y-39679342D01*
X158027258Y-39679342D02*
X157979639Y-39584104D01*
X157979639Y-39584104D02*
X157884401Y-39536485D01*
X157884401Y-39536485D02*
X157741544Y-39536485D01*
X157741544Y-39536485D02*
X157646306Y-39488866D01*
X157646306Y-39488866D02*
X157598687Y-39393628D01*
X157598687Y-39393628D02*
X157598687Y-39346009D01*
X157598687Y-39346009D02*
X157646306Y-39250771D01*
X157646306Y-39250771D02*
X157741544Y-39203152D01*
X157741544Y-39203152D02*
X157884401Y-39203152D01*
X157884401Y-39203152D02*
X157979639Y-39250771D01*
X158455830Y-39869819D02*
X158455830Y-39203152D01*
X158455830Y-38869819D02*
X158408211Y-38917438D01*
X158408211Y-38917438D02*
X158455830Y-38965057D01*
X158455830Y-38965057D02*
X158503449Y-38917438D01*
X158503449Y-38917438D02*
X158455830Y-38869819D01*
X158455830Y-38869819D02*
X158455830Y-38965057D01*
X159360591Y-39203152D02*
X159360591Y-39869819D01*
X158932020Y-39203152D02*
X158932020Y-39726961D01*
X158932020Y-39726961D02*
X158979639Y-39822200D01*
X158979639Y-39822200D02*
X159074877Y-39869819D01*
X159074877Y-39869819D02*
X159217734Y-39869819D01*
X159217734Y-39869819D02*
X159312972Y-39822200D01*
X159312972Y-39822200D02*
X159360591Y-39774580D01*
X159836782Y-39203152D02*
X159836782Y-39869819D01*
X159836782Y-39298390D02*
X159884401Y-39250771D01*
X159884401Y-39250771D02*
X159979639Y-39203152D01*
X159979639Y-39203152D02*
X160122496Y-39203152D01*
X160122496Y-39203152D02*
X160217734Y-39250771D01*
X160217734Y-39250771D02*
X160265353Y-39346009D01*
X160265353Y-39346009D02*
X160265353Y-39869819D01*
X161122496Y-39822200D02*
X161027258Y-39869819D01*
X161027258Y-39869819D02*
X160836782Y-39869819D01*
X160836782Y-39869819D02*
X160741544Y-39822200D01*
X160741544Y-39822200D02*
X160693925Y-39726961D01*
X160693925Y-39726961D02*
X160693925Y-39346009D01*
X160693925Y-39346009D02*
X160741544Y-39250771D01*
X160741544Y-39250771D02*
X160836782Y-39203152D01*
X160836782Y-39203152D02*
X161027258Y-39203152D01*
X161027258Y-39203152D02*
X161122496Y-39250771D01*
X161122496Y-39250771D02*
X161170115Y-39346009D01*
X161170115Y-39346009D02*
X161170115Y-39441247D01*
X161170115Y-39441247D02*
X160693925Y-39536485D01*
X142027255Y-122808628D02*
X142217731Y-122808628D01*
X142217731Y-122808628D02*
X142312969Y-122880057D01*
X142312969Y-122880057D02*
X142408207Y-123022914D01*
X142408207Y-123022914D02*
X142455826Y-123308628D01*
X142455826Y-123308628D02*
X142455826Y-123808628D01*
X142455826Y-123808628D02*
X142408207Y-124094342D01*
X142408207Y-124094342D02*
X142312969Y-124237200D01*
X142312969Y-124237200D02*
X142217731Y-124308628D01*
X142217731Y-124308628D02*
X142027255Y-124308628D01*
X142027255Y-124308628D02*
X141932017Y-124237200D01*
X141932017Y-124237200D02*
X141836779Y-124094342D01*
X141836779Y-124094342D02*
X141789160Y-123808628D01*
X141789160Y-123808628D02*
X141789160Y-123308628D01*
X141789160Y-123308628D02*
X141836779Y-123022914D01*
X141836779Y-123022914D02*
X141932017Y-122880057D01*
X141932017Y-122880057D02*
X142027255Y-122808628D01*
X142836779Y-124237200D02*
X142932017Y-124308628D01*
X142932017Y-124308628D02*
X143122493Y-124308628D01*
X143122493Y-124308628D02*
X143217731Y-124237200D01*
X143217731Y-124237200D02*
X143265350Y-124094342D01*
X143265350Y-124094342D02*
X143265350Y-124022914D01*
X143265350Y-124022914D02*
X143217731Y-123880057D01*
X143217731Y-123880057D02*
X143122493Y-123808628D01*
X143122493Y-123808628D02*
X142979636Y-123808628D01*
X142979636Y-123808628D02*
X142884398Y-123737200D01*
X142884398Y-123737200D02*
X142836779Y-123594342D01*
X142836779Y-123594342D02*
X142836779Y-123522914D01*
X142836779Y-123522914D02*
X142884398Y-123380057D01*
X142884398Y-123380057D02*
X142979636Y-123308628D01*
X142979636Y-123308628D02*
X143122493Y-123308628D01*
X143122493Y-123308628D02*
X143217731Y-123380057D01*
X144122493Y-124237200D02*
X144027255Y-124308628D01*
X144027255Y-124308628D02*
X143836779Y-124308628D01*
X143836779Y-124308628D02*
X143741541Y-124237200D01*
X143741541Y-124237200D02*
X143693922Y-124165771D01*
X143693922Y-124165771D02*
X143646303Y-124022914D01*
X143646303Y-124022914D02*
X143646303Y-123594342D01*
X143646303Y-123594342D02*
X143693922Y-123451485D01*
X143693922Y-123451485D02*
X143741541Y-123380057D01*
X143741541Y-123380057D02*
X143836779Y-123308628D01*
X143836779Y-123308628D02*
X144027255Y-123308628D01*
X144027255Y-123308628D02*
X144122493Y-123380057D01*
X144551065Y-124308628D02*
X144551065Y-123308628D01*
X144551065Y-122808628D02*
X144503446Y-122880057D01*
X144503446Y-122880057D02*
X144551065Y-122951485D01*
X144551065Y-122951485D02*
X144598684Y-122880057D01*
X144598684Y-122880057D02*
X144551065Y-122808628D01*
X144551065Y-122808628D02*
X144551065Y-122951485D01*
X145170112Y-124308628D02*
X145074874Y-124237200D01*
X145074874Y-124237200D02*
X145027255Y-124094342D01*
X145027255Y-124094342D02*
X145027255Y-122808628D01*
X145979636Y-124308628D02*
X145979636Y-123522914D01*
X145979636Y-123522914D02*
X145932017Y-123380057D01*
X145932017Y-123380057D02*
X145836779Y-123308628D01*
X145836779Y-123308628D02*
X145646303Y-123308628D01*
X145646303Y-123308628D02*
X145551065Y-123380057D01*
X145979636Y-124237200D02*
X145884398Y-124308628D01*
X145884398Y-124308628D02*
X145646303Y-124308628D01*
X145646303Y-124308628D02*
X145551065Y-124237200D01*
X145551065Y-124237200D02*
X145503446Y-124094342D01*
X145503446Y-124094342D02*
X145503446Y-123951485D01*
X145503446Y-123951485D02*
X145551065Y-123808628D01*
X145551065Y-123808628D02*
X145646303Y-123737200D01*
X145646303Y-123737200D02*
X145884398Y-123737200D01*
X145884398Y-123737200D02*
X145979636Y-123665771D01*
X146312970Y-123308628D02*
X146693922Y-123308628D01*
X146455827Y-122808628D02*
X146455827Y-124094342D01*
X146455827Y-124094342D02*
X146503446Y-124237200D01*
X146503446Y-124237200D02*
X146598684Y-124308628D01*
X146598684Y-124308628D02*
X146693922Y-124308628D01*
X147170113Y-124308628D02*
X147074875Y-124237200D01*
X147074875Y-124237200D02*
X147027256Y-124165771D01*
X147027256Y-124165771D02*
X146979637Y-124022914D01*
X146979637Y-124022914D02*
X146979637Y-123594342D01*
X146979637Y-123594342D02*
X147027256Y-123451485D01*
X147027256Y-123451485D02*
X147074875Y-123380057D01*
X147074875Y-123380057D02*
X147170113Y-123308628D01*
X147170113Y-123308628D02*
X147312970Y-123308628D01*
X147312970Y-123308628D02*
X147408208Y-123380057D01*
X147408208Y-123380057D02*
X147455827Y-123451485D01*
X147455827Y-123451485D02*
X147503446Y-123594342D01*
X147503446Y-123594342D02*
X147503446Y-124022914D01*
X147503446Y-124022914D02*
X147455827Y-124165771D01*
X147455827Y-124165771D02*
X147408208Y-124237200D01*
X147408208Y-124237200D02*
X147312970Y-124308628D01*
X147312970Y-124308628D02*
X147170113Y-124308628D01*
X147932018Y-124308628D02*
X147932018Y-123308628D01*
X147932018Y-123594342D02*
X147979637Y-123451485D01*
X147979637Y-123451485D02*
X148027256Y-123380057D01*
X148027256Y-123380057D02*
X148122494Y-123308628D01*
X148122494Y-123308628D02*
X148217732Y-123308628D01*
X149789161Y-122808628D02*
X149312971Y-122808628D01*
X149312971Y-122808628D02*
X149265352Y-123522914D01*
X149265352Y-123522914D02*
X149312971Y-123451485D01*
X149312971Y-123451485D02*
X149408209Y-123380057D01*
X149408209Y-123380057D02*
X149646304Y-123380057D01*
X149646304Y-123380057D02*
X149741542Y-123451485D01*
X149741542Y-123451485D02*
X149789161Y-123522914D01*
X149789161Y-123522914D02*
X149836780Y-123665771D01*
X149836780Y-123665771D02*
X149836780Y-124022914D01*
X149836780Y-124022914D02*
X149789161Y-124165771D01*
X149789161Y-124165771D02*
X149741542Y-124237200D01*
X149741542Y-124237200D02*
X149646304Y-124308628D01*
X149646304Y-124308628D02*
X149408209Y-124308628D01*
X149408209Y-124308628D02*
X149312971Y-124237200D01*
X149312971Y-124237200D02*
X149265352Y-124165771D01*
X150741542Y-122808628D02*
X150265352Y-122808628D01*
X150265352Y-122808628D02*
X150217733Y-123522914D01*
X150217733Y-123522914D02*
X150265352Y-123451485D01*
X150265352Y-123451485D02*
X150360590Y-123380057D01*
X150360590Y-123380057D02*
X150598685Y-123380057D01*
X150598685Y-123380057D02*
X150693923Y-123451485D01*
X150693923Y-123451485D02*
X150741542Y-123522914D01*
X150741542Y-123522914D02*
X150789161Y-123665771D01*
X150789161Y-123665771D02*
X150789161Y-124022914D01*
X150789161Y-124022914D02*
X150741542Y-124165771D01*
X150741542Y-124165771D02*
X150693923Y-124237200D01*
X150693923Y-124237200D02*
X150598685Y-124308628D01*
X150598685Y-124308628D02*
X150360590Y-124308628D01*
X150360590Y-124308628D02*
X150265352Y-124237200D01*
X150265352Y-124237200D02*
X150217733Y-124165771D01*
X151693923Y-122808628D02*
X151217733Y-122808628D01*
X151217733Y-122808628D02*
X151170114Y-123522914D01*
X151170114Y-123522914D02*
X151217733Y-123451485D01*
X151217733Y-123451485D02*
X151312971Y-123380057D01*
X151312971Y-123380057D02*
X151551066Y-123380057D01*
X151551066Y-123380057D02*
X151646304Y-123451485D01*
X151646304Y-123451485D02*
X151693923Y-123522914D01*
X151693923Y-123522914D02*
X151741542Y-123665771D01*
X151741542Y-123665771D02*
X151741542Y-124022914D01*
X151741542Y-124022914D02*
X151693923Y-124165771D01*
X151693923Y-124165771D02*
X151646304Y-124237200D01*
X151646304Y-124237200D02*
X151551066Y-124308628D01*
X151551066Y-124308628D02*
X151312971Y-124308628D01*
X151312971Y-124308628D02*
X151217733Y-124237200D01*
X151217733Y-124237200D02*
X151170114Y-124165771D01*
X153360590Y-124308628D02*
X153360590Y-122808628D01*
X153360590Y-124237200D02*
X153265352Y-124308628D01*
X153265352Y-124308628D02*
X153074876Y-124308628D01*
X153074876Y-124308628D02*
X152979638Y-124237200D01*
X152979638Y-124237200D02*
X152932019Y-124165771D01*
X152932019Y-124165771D02*
X152884400Y-124022914D01*
X152884400Y-124022914D02*
X152884400Y-123594342D01*
X152884400Y-123594342D02*
X152932019Y-123451485D01*
X152932019Y-123451485D02*
X152979638Y-123380057D01*
X152979638Y-123380057D02*
X153074876Y-123308628D01*
X153074876Y-123308628D02*
X153265352Y-123308628D01*
X153265352Y-123308628D02*
X153360590Y-123380057D01*
X154217733Y-124237200D02*
X154122495Y-124308628D01*
X154122495Y-124308628D02*
X153932019Y-124308628D01*
X153932019Y-124308628D02*
X153836781Y-124237200D01*
X153836781Y-124237200D02*
X153789162Y-124094342D01*
X153789162Y-124094342D02*
X153789162Y-123522914D01*
X153789162Y-123522914D02*
X153836781Y-123380057D01*
X153836781Y-123380057D02*
X153932019Y-123308628D01*
X153932019Y-123308628D02*
X154122495Y-123308628D01*
X154122495Y-123308628D02*
X154217733Y-123380057D01*
X154217733Y-123380057D02*
X154265352Y-123522914D01*
X154265352Y-123522914D02*
X154265352Y-123665771D01*
X154265352Y-123665771D02*
X153789162Y-123808628D01*
X155979638Y-124308628D02*
X155408210Y-124308628D01*
X155693924Y-124308628D02*
X155693924Y-122808628D01*
X155693924Y-122808628D02*
X155598686Y-123022914D01*
X155598686Y-123022914D02*
X155503448Y-123165771D01*
X155503448Y-123165771D02*
X155408210Y-123237200D01*
X156408210Y-124308628D02*
X156408210Y-122808628D01*
X156408210Y-123522914D02*
X156979638Y-123522914D01*
X156979638Y-124308628D02*
X156979638Y-122808628D01*
X157360591Y-122808628D02*
X158027257Y-122808628D01*
X158027257Y-122808628D02*
X157360591Y-124308628D01*
X157360591Y-124308628D02*
X158027257Y-124308628D01*
X204670112Y-51022914D02*
X204812969Y-51094342D01*
X204812969Y-51094342D02*
X204860588Y-51165771D01*
X204860588Y-51165771D02*
X204908207Y-51308628D01*
X204908207Y-51308628D02*
X204908207Y-51522914D01*
X204908207Y-51522914D02*
X204860588Y-51665771D01*
X204860588Y-51665771D02*
X204812969Y-51737200D01*
X204812969Y-51737200D02*
X204717731Y-51808628D01*
X204717731Y-51808628D02*
X204336779Y-51808628D01*
X204336779Y-51808628D02*
X204336779Y-50308628D01*
X204336779Y-50308628D02*
X204670112Y-50308628D01*
X204670112Y-50308628D02*
X204765350Y-50380057D01*
X204765350Y-50380057D02*
X204812969Y-50451485D01*
X204812969Y-50451485D02*
X204860588Y-50594342D01*
X204860588Y-50594342D02*
X204860588Y-50737200D01*
X204860588Y-50737200D02*
X204812969Y-50880057D01*
X204812969Y-50880057D02*
X204765350Y-50951485D01*
X204765350Y-50951485D02*
X204670112Y-51022914D01*
X204670112Y-51022914D02*
X204336779Y-51022914D01*
X205336779Y-51808628D02*
X205336779Y-50808628D01*
X205336779Y-50308628D02*
X205289160Y-50380057D01*
X205289160Y-50380057D02*
X205336779Y-50451485D01*
X205336779Y-50451485D02*
X205384398Y-50380057D01*
X205384398Y-50380057D02*
X205336779Y-50308628D01*
X205336779Y-50308628D02*
X205336779Y-50451485D01*
X205765350Y-51737200D02*
X205860588Y-51808628D01*
X205860588Y-51808628D02*
X206051064Y-51808628D01*
X206051064Y-51808628D02*
X206146302Y-51737200D01*
X206146302Y-51737200D02*
X206193921Y-51594342D01*
X206193921Y-51594342D02*
X206193921Y-51522914D01*
X206193921Y-51522914D02*
X206146302Y-51380057D01*
X206146302Y-51380057D02*
X206051064Y-51308628D01*
X206051064Y-51308628D02*
X205908207Y-51308628D01*
X205908207Y-51308628D02*
X205812969Y-51237200D01*
X205812969Y-51237200D02*
X205765350Y-51094342D01*
X205765350Y-51094342D02*
X205765350Y-51022914D01*
X205765350Y-51022914D02*
X205812969Y-50880057D01*
X205812969Y-50880057D02*
X205908207Y-50808628D01*
X205908207Y-50808628D02*
X206051064Y-50808628D01*
X206051064Y-50808628D02*
X206146302Y-50880057D01*
X206479636Y-50808628D02*
X206860588Y-50808628D01*
X206622493Y-50308628D02*
X206622493Y-51594342D01*
X206622493Y-51594342D02*
X206670112Y-51737200D01*
X206670112Y-51737200D02*
X206765350Y-51808628D01*
X206765350Y-51808628D02*
X206860588Y-51808628D01*
X207622493Y-51808628D02*
X207622493Y-51022914D01*
X207622493Y-51022914D02*
X207574874Y-50880057D01*
X207574874Y-50880057D02*
X207479636Y-50808628D01*
X207479636Y-50808628D02*
X207289160Y-50808628D01*
X207289160Y-50808628D02*
X207193922Y-50880057D01*
X207622493Y-51737200D02*
X207527255Y-51808628D01*
X207527255Y-51808628D02*
X207289160Y-51808628D01*
X207289160Y-51808628D02*
X207193922Y-51737200D01*
X207193922Y-51737200D02*
X207146303Y-51594342D01*
X207146303Y-51594342D02*
X207146303Y-51451485D01*
X207146303Y-51451485D02*
X207193922Y-51308628D01*
X207193922Y-51308628D02*
X207289160Y-51237200D01*
X207289160Y-51237200D02*
X207527255Y-51237200D01*
X207527255Y-51237200D02*
X207622493Y-51165771D01*
X208098684Y-51808628D02*
X208098684Y-50308628D01*
X208098684Y-50880057D02*
X208193922Y-50808628D01*
X208193922Y-50808628D02*
X208384398Y-50808628D01*
X208384398Y-50808628D02*
X208479636Y-50880057D01*
X208479636Y-50880057D02*
X208527255Y-50951485D01*
X208527255Y-50951485D02*
X208574874Y-51094342D01*
X208574874Y-51094342D02*
X208574874Y-51522914D01*
X208574874Y-51522914D02*
X208527255Y-51665771D01*
X208527255Y-51665771D02*
X208479636Y-51737200D01*
X208479636Y-51737200D02*
X208384398Y-51808628D01*
X208384398Y-51808628D02*
X208193922Y-51808628D01*
X208193922Y-51808628D02*
X208098684Y-51737200D01*
X209003446Y-51808628D02*
X209003446Y-50808628D01*
X209003446Y-50308628D02*
X208955827Y-50380057D01*
X208955827Y-50380057D02*
X209003446Y-50451485D01*
X209003446Y-50451485D02*
X209051065Y-50380057D01*
X209051065Y-50380057D02*
X209003446Y-50308628D01*
X209003446Y-50308628D02*
X209003446Y-50451485D01*
X209622493Y-51808628D02*
X209527255Y-51737200D01*
X209527255Y-51737200D02*
X209479636Y-51594342D01*
X209479636Y-51594342D02*
X209479636Y-50308628D01*
X211051065Y-50308628D02*
X211051065Y-51380057D01*
X211051065Y-51380057D02*
X211003446Y-51594342D01*
X211003446Y-51594342D02*
X210908208Y-51737200D01*
X210908208Y-51737200D02*
X210765351Y-51808628D01*
X210765351Y-51808628D02*
X210670113Y-51808628D01*
X211527256Y-51808628D02*
X211527256Y-50308628D01*
X212098684Y-51808628D02*
X211670113Y-50951485D01*
X212098684Y-50308628D02*
X211527256Y-51165771D01*
X208836779Y-107268628D02*
X208836779Y-105768628D01*
X208836779Y-105768628D02*
X209074874Y-105768628D01*
X209074874Y-105768628D02*
X209217731Y-105840057D01*
X209217731Y-105840057D02*
X209312969Y-105982914D01*
X209312969Y-105982914D02*
X209360588Y-106125771D01*
X209360588Y-106125771D02*
X209408207Y-106411485D01*
X209408207Y-106411485D02*
X209408207Y-106625771D01*
X209408207Y-106625771D02*
X209360588Y-106911485D01*
X209360588Y-106911485D02*
X209312969Y-107054342D01*
X209312969Y-107054342D02*
X209217731Y-107197200D01*
X209217731Y-107197200D02*
X209074874Y-107268628D01*
X209074874Y-107268628D02*
X208836779Y-107268628D01*
X209836779Y-107268628D02*
X209836779Y-106268628D01*
X209836779Y-105768628D02*
X209789160Y-105840057D01*
X209789160Y-105840057D02*
X209836779Y-105911485D01*
X209836779Y-105911485D02*
X209884398Y-105840057D01*
X209884398Y-105840057D02*
X209836779Y-105768628D01*
X209836779Y-105768628D02*
X209836779Y-105911485D01*
X210265350Y-107197200D02*
X210360588Y-107268628D01*
X210360588Y-107268628D02*
X210551064Y-107268628D01*
X210551064Y-107268628D02*
X210646302Y-107197200D01*
X210646302Y-107197200D02*
X210693921Y-107054342D01*
X210693921Y-107054342D02*
X210693921Y-106982914D01*
X210693921Y-106982914D02*
X210646302Y-106840057D01*
X210646302Y-106840057D02*
X210551064Y-106768628D01*
X210551064Y-106768628D02*
X210408207Y-106768628D01*
X210408207Y-106768628D02*
X210312969Y-106697200D01*
X210312969Y-106697200D02*
X210265350Y-106554342D01*
X210265350Y-106554342D02*
X210265350Y-106482914D01*
X210265350Y-106482914D02*
X210312969Y-106340057D01*
X210312969Y-106340057D02*
X210408207Y-106268628D01*
X210408207Y-106268628D02*
X210551064Y-106268628D01*
X210551064Y-106268628D02*
X210646302Y-106340057D01*
X211122493Y-106268628D02*
X211122493Y-107768628D01*
X211122493Y-106340057D02*
X211217731Y-106268628D01*
X211217731Y-106268628D02*
X211408207Y-106268628D01*
X211408207Y-106268628D02*
X211503445Y-106340057D01*
X211503445Y-106340057D02*
X211551064Y-106411485D01*
X211551064Y-106411485D02*
X211598683Y-106554342D01*
X211598683Y-106554342D02*
X211598683Y-106982914D01*
X211598683Y-106982914D02*
X211551064Y-107125771D01*
X211551064Y-107125771D02*
X211503445Y-107197200D01*
X211503445Y-107197200D02*
X211408207Y-107268628D01*
X211408207Y-107268628D02*
X211217731Y-107268628D01*
X211217731Y-107268628D02*
X211122493Y-107197200D01*
X212170112Y-107268628D02*
X212074874Y-107197200D01*
X212074874Y-107197200D02*
X212027255Y-107054342D01*
X212027255Y-107054342D02*
X212027255Y-105768628D01*
X212979636Y-107268628D02*
X212979636Y-106482914D01*
X212979636Y-106482914D02*
X212932017Y-106340057D01*
X212932017Y-106340057D02*
X212836779Y-106268628D01*
X212836779Y-106268628D02*
X212646303Y-106268628D01*
X212646303Y-106268628D02*
X212551065Y-106340057D01*
X212979636Y-107197200D02*
X212884398Y-107268628D01*
X212884398Y-107268628D02*
X212646303Y-107268628D01*
X212646303Y-107268628D02*
X212551065Y-107197200D01*
X212551065Y-107197200D02*
X212503446Y-107054342D01*
X212503446Y-107054342D02*
X212503446Y-106911485D01*
X212503446Y-106911485D02*
X212551065Y-106768628D01*
X212551065Y-106768628D02*
X212646303Y-106697200D01*
X212646303Y-106697200D02*
X212884398Y-106697200D01*
X212884398Y-106697200D02*
X212979636Y-106625771D01*
X213360589Y-106268628D02*
X213598684Y-107268628D01*
X213836779Y-106268628D02*
X213598684Y-107268628D01*
X213598684Y-107268628D02*
X213503446Y-107625771D01*
X213503446Y-107625771D02*
X213455827Y-107697200D01*
X213455827Y-107697200D02*
X213360589Y-107768628D01*
X159836779Y-110869819D02*
X159836779Y-109869819D01*
X159836779Y-109869819D02*
X160217731Y-109869819D01*
X160217731Y-109869819D02*
X160312969Y-109917438D01*
X160312969Y-109917438D02*
X160360588Y-109965057D01*
X160360588Y-109965057D02*
X160408207Y-110060295D01*
X160408207Y-110060295D02*
X160408207Y-110203152D01*
X160408207Y-110203152D02*
X160360588Y-110298390D01*
X160360588Y-110298390D02*
X160312969Y-110346009D01*
X160312969Y-110346009D02*
X160217731Y-110393628D01*
X160217731Y-110393628D02*
X159836779Y-110393628D01*
X160979636Y-110869819D02*
X160884398Y-110822200D01*
X160884398Y-110822200D02*
X160836779Y-110774580D01*
X160836779Y-110774580D02*
X160789160Y-110679342D01*
X160789160Y-110679342D02*
X160789160Y-110393628D01*
X160789160Y-110393628D02*
X160836779Y-110298390D01*
X160836779Y-110298390D02*
X160884398Y-110250771D01*
X160884398Y-110250771D02*
X160979636Y-110203152D01*
X160979636Y-110203152D02*
X161122493Y-110203152D01*
X161122493Y-110203152D02*
X161217731Y-110250771D01*
X161217731Y-110250771D02*
X161265350Y-110298390D01*
X161265350Y-110298390D02*
X161312969Y-110393628D01*
X161312969Y-110393628D02*
X161312969Y-110679342D01*
X161312969Y-110679342D02*
X161265350Y-110774580D01*
X161265350Y-110774580D02*
X161217731Y-110822200D01*
X161217731Y-110822200D02*
X161122493Y-110869819D01*
X161122493Y-110869819D02*
X160979636Y-110869819D01*
X162170112Y-110869819D02*
X162170112Y-110346009D01*
X162170112Y-110346009D02*
X162122493Y-110250771D01*
X162122493Y-110250771D02*
X162027255Y-110203152D01*
X162027255Y-110203152D02*
X161836779Y-110203152D01*
X161836779Y-110203152D02*
X161741541Y-110250771D01*
X162170112Y-110822200D02*
X162074874Y-110869819D01*
X162074874Y-110869819D02*
X161836779Y-110869819D01*
X161836779Y-110869819D02*
X161741541Y-110822200D01*
X161741541Y-110822200D02*
X161693922Y-110726961D01*
X161693922Y-110726961D02*
X161693922Y-110631723D01*
X161693922Y-110631723D02*
X161741541Y-110536485D01*
X161741541Y-110536485D02*
X161836779Y-110488866D01*
X161836779Y-110488866D02*
X162074874Y-110488866D01*
X162074874Y-110488866D02*
X162170112Y-110441247D01*
X162646303Y-110869819D02*
X162646303Y-110203152D01*
X162646303Y-110393628D02*
X162693922Y-110298390D01*
X162693922Y-110298390D02*
X162741541Y-110250771D01*
X162741541Y-110250771D02*
X162836779Y-110203152D01*
X162836779Y-110203152D02*
X162932017Y-110203152D01*
X163122494Y-110203152D02*
X163503446Y-110203152D01*
X163265351Y-109869819D02*
X163265351Y-110726961D01*
X163265351Y-110726961D02*
X163312970Y-110822200D01*
X163312970Y-110822200D02*
X163408208Y-110869819D01*
X163408208Y-110869819D02*
X163503446Y-110869819D01*
X164265351Y-110869819D02*
X164265351Y-110346009D01*
X164265351Y-110346009D02*
X164217732Y-110250771D01*
X164217732Y-110250771D02*
X164122494Y-110203152D01*
X164122494Y-110203152D02*
X163932018Y-110203152D01*
X163932018Y-110203152D02*
X163836780Y-110250771D01*
X164265351Y-110822200D02*
X164170113Y-110869819D01*
X164170113Y-110869819D02*
X163932018Y-110869819D01*
X163932018Y-110869819D02*
X163836780Y-110822200D01*
X163836780Y-110822200D02*
X163789161Y-110726961D01*
X163789161Y-110726961D02*
X163789161Y-110631723D01*
X163789161Y-110631723D02*
X163836780Y-110536485D01*
X163836780Y-110536485D02*
X163932018Y-110488866D01*
X163932018Y-110488866D02*
X164170113Y-110488866D01*
X164170113Y-110488866D02*
X164265351Y-110441247D01*
X165693923Y-109869819D02*
X165884399Y-109869819D01*
X165884399Y-109869819D02*
X165979637Y-109917438D01*
X165979637Y-109917438D02*
X166074875Y-110012676D01*
X166074875Y-110012676D02*
X166122494Y-110203152D01*
X166122494Y-110203152D02*
X166122494Y-110536485D01*
X166122494Y-110536485D02*
X166074875Y-110726961D01*
X166074875Y-110726961D02*
X165979637Y-110822200D01*
X165979637Y-110822200D02*
X165884399Y-110869819D01*
X165884399Y-110869819D02*
X165693923Y-110869819D01*
X165693923Y-110869819D02*
X165598685Y-110822200D01*
X165598685Y-110822200D02*
X165503447Y-110726961D01*
X165503447Y-110726961D02*
X165455828Y-110536485D01*
X165455828Y-110536485D02*
X165455828Y-110203152D01*
X165455828Y-110203152D02*
X165503447Y-110012676D01*
X165503447Y-110012676D02*
X165598685Y-109917438D01*
X165598685Y-109917438D02*
X165693923Y-109869819D01*
X167122494Y-110869819D02*
X166789161Y-110393628D01*
X166551066Y-110869819D02*
X166551066Y-109869819D01*
X166551066Y-109869819D02*
X166932018Y-109869819D01*
X166932018Y-109869819D02*
X167027256Y-109917438D01*
X167027256Y-109917438D02*
X167074875Y-109965057D01*
X167074875Y-109965057D02*
X167122494Y-110060295D01*
X167122494Y-110060295D02*
X167122494Y-110203152D01*
X167122494Y-110203152D02*
X167074875Y-110298390D01*
X167074875Y-110298390D02*
X167027256Y-110346009D01*
X167027256Y-110346009D02*
X166932018Y-110393628D01*
X166932018Y-110393628D02*
X166551066Y-110393628D01*
X139266779Y-85714819D02*
X139266779Y-84714819D01*
X139266779Y-84714819D02*
X139838207Y-85714819D01*
X139838207Y-85714819D02*
X139838207Y-84714819D01*
X140742969Y-85048152D02*
X140742969Y-85714819D01*
X140314398Y-85048152D02*
X140314398Y-85571961D01*
X140314398Y-85571961D02*
X140362017Y-85667200D01*
X140362017Y-85667200D02*
X140457255Y-85714819D01*
X140457255Y-85714819D02*
X140600112Y-85714819D01*
X140600112Y-85714819D02*
X140695350Y-85667200D01*
X140695350Y-85667200D02*
X140742969Y-85619580D01*
X141219160Y-85714819D02*
X141219160Y-85048152D01*
X141219160Y-85143390D02*
X141266779Y-85095771D01*
X141266779Y-85095771D02*
X141362017Y-85048152D01*
X141362017Y-85048152D02*
X141504874Y-85048152D01*
X141504874Y-85048152D02*
X141600112Y-85095771D01*
X141600112Y-85095771D02*
X141647731Y-85191009D01*
X141647731Y-85191009D02*
X141647731Y-85714819D01*
X141647731Y-85191009D02*
X141695350Y-85095771D01*
X141695350Y-85095771D02*
X141790588Y-85048152D01*
X141790588Y-85048152D02*
X141933445Y-85048152D01*
X141933445Y-85048152D02*
X142028684Y-85095771D01*
X142028684Y-85095771D02*
X142076303Y-85191009D01*
X142076303Y-85191009D02*
X142076303Y-85714819D01*
X142981064Y-85714819D02*
X142981064Y-85191009D01*
X142981064Y-85191009D02*
X142933445Y-85095771D01*
X142933445Y-85095771D02*
X142838207Y-85048152D01*
X142838207Y-85048152D02*
X142647731Y-85048152D01*
X142647731Y-85048152D02*
X142552493Y-85095771D01*
X142981064Y-85667200D02*
X142885826Y-85714819D01*
X142885826Y-85714819D02*
X142647731Y-85714819D01*
X142647731Y-85714819D02*
X142552493Y-85667200D01*
X142552493Y-85667200D02*
X142504874Y-85571961D01*
X142504874Y-85571961D02*
X142504874Y-85476723D01*
X142504874Y-85476723D02*
X142552493Y-85381485D01*
X142552493Y-85381485D02*
X142647731Y-85333866D01*
X142647731Y-85333866D02*
X142885826Y-85333866D01*
X142885826Y-85333866D02*
X142981064Y-85286247D01*
X143457255Y-85714819D02*
X143457255Y-85048152D01*
X143457255Y-85238628D02*
X143504874Y-85143390D01*
X143504874Y-85143390D02*
X143552493Y-85095771D01*
X143552493Y-85095771D02*
X143647731Y-85048152D01*
X143647731Y-85048152D02*
X143742969Y-85048152D01*
X144504874Y-85714819D02*
X144504874Y-85191009D01*
X144504874Y-85191009D02*
X144457255Y-85095771D01*
X144457255Y-85095771D02*
X144362017Y-85048152D01*
X144362017Y-85048152D02*
X144171541Y-85048152D01*
X144171541Y-85048152D02*
X144076303Y-85095771D01*
X144504874Y-85667200D02*
X144409636Y-85714819D01*
X144409636Y-85714819D02*
X144171541Y-85714819D01*
X144171541Y-85714819D02*
X144076303Y-85667200D01*
X144076303Y-85667200D02*
X144028684Y-85571961D01*
X144028684Y-85571961D02*
X144028684Y-85476723D01*
X144028684Y-85476723D02*
X144076303Y-85381485D01*
X144076303Y-85381485D02*
X144171541Y-85333866D01*
X144171541Y-85333866D02*
X144409636Y-85333866D01*
X144409636Y-85333866D02*
X144504874Y-85286247D01*
X144838208Y-85048152D02*
X145219160Y-85048152D01*
X144981065Y-84714819D02*
X144981065Y-85571961D01*
X144981065Y-85571961D02*
X145028684Y-85667200D01*
X145028684Y-85667200D02*
X145123922Y-85714819D01*
X145123922Y-85714819D02*
X145219160Y-85714819D01*
X145695351Y-85714819D02*
X145600113Y-85667200D01*
X145600113Y-85667200D02*
X145552494Y-85619580D01*
X145552494Y-85619580D02*
X145504875Y-85524342D01*
X145504875Y-85524342D02*
X145504875Y-85238628D01*
X145504875Y-85238628D02*
X145552494Y-85143390D01*
X145552494Y-85143390D02*
X145600113Y-85095771D01*
X145600113Y-85095771D02*
X145695351Y-85048152D01*
X145695351Y-85048152D02*
X145838208Y-85048152D01*
X145838208Y-85048152D02*
X145933446Y-85095771D01*
X145933446Y-85095771D02*
X145981065Y-85143390D01*
X145981065Y-85143390D02*
X146028684Y-85238628D01*
X146028684Y-85238628D02*
X146028684Y-85524342D01*
X146028684Y-85524342D02*
X145981065Y-85619580D01*
X145981065Y-85619580D02*
X145933446Y-85667200D01*
X145933446Y-85667200D02*
X145838208Y-85714819D01*
X145838208Y-85714819D02*
X145695351Y-85714819D01*
X146457256Y-85714819D02*
X146457256Y-85048152D01*
X146457256Y-85238628D02*
X146504875Y-85143390D01*
X146504875Y-85143390D02*
X146552494Y-85095771D01*
X146552494Y-85095771D02*
X146647732Y-85048152D01*
X146647732Y-85048152D02*
X146742970Y-85048152D01*
X147838209Y-85048152D02*
X147838209Y-86048152D01*
X147838209Y-85095771D02*
X147933447Y-85048152D01*
X147933447Y-85048152D02*
X148123923Y-85048152D01*
X148123923Y-85048152D02*
X148219161Y-85095771D01*
X148219161Y-85095771D02*
X148266780Y-85143390D01*
X148266780Y-85143390D02*
X148314399Y-85238628D01*
X148314399Y-85238628D02*
X148314399Y-85524342D01*
X148314399Y-85524342D02*
X148266780Y-85619580D01*
X148266780Y-85619580D02*
X148219161Y-85667200D01*
X148219161Y-85667200D02*
X148123923Y-85714819D01*
X148123923Y-85714819D02*
X147933447Y-85714819D01*
X147933447Y-85714819D02*
X147838209Y-85667200D01*
X149123923Y-85667200D02*
X149028685Y-85714819D01*
X149028685Y-85714819D02*
X148838209Y-85714819D01*
X148838209Y-85714819D02*
X148742971Y-85667200D01*
X148742971Y-85667200D02*
X148695352Y-85571961D01*
X148695352Y-85571961D02*
X148695352Y-85191009D01*
X148695352Y-85191009D02*
X148742971Y-85095771D01*
X148742971Y-85095771D02*
X148838209Y-85048152D01*
X148838209Y-85048152D02*
X149028685Y-85048152D01*
X149028685Y-85048152D02*
X149123923Y-85095771D01*
X149123923Y-85095771D02*
X149171542Y-85191009D01*
X149171542Y-85191009D02*
X149171542Y-85286247D01*
X149171542Y-85286247D02*
X148695352Y-85381485D01*
X150790590Y-85048152D02*
X150790590Y-85714819D01*
X150552495Y-84667200D02*
X150314400Y-85381485D01*
X150314400Y-85381485D02*
X150933447Y-85381485D01*
X152076305Y-85714819D02*
X152076305Y-84714819D01*
X152076305Y-85095771D02*
X152171543Y-85048152D01*
X152171543Y-85048152D02*
X152362019Y-85048152D01*
X152362019Y-85048152D02*
X152457257Y-85095771D01*
X152457257Y-85095771D02*
X152504876Y-85143390D01*
X152504876Y-85143390D02*
X152552495Y-85238628D01*
X152552495Y-85238628D02*
X152552495Y-85524342D01*
X152552495Y-85524342D02*
X152504876Y-85619580D01*
X152504876Y-85619580D02*
X152457257Y-85667200D01*
X152457257Y-85667200D02*
X152362019Y-85714819D01*
X152362019Y-85714819D02*
X152171543Y-85714819D01*
X152171543Y-85714819D02*
X152076305Y-85667200D01*
X152981067Y-85714819D02*
X152981067Y-85048152D01*
X152981067Y-84714819D02*
X152933448Y-84762438D01*
X152933448Y-84762438D02*
X152981067Y-84810057D01*
X152981067Y-84810057D02*
X153028686Y-84762438D01*
X153028686Y-84762438D02*
X152981067Y-84714819D01*
X152981067Y-84714819D02*
X152981067Y-84810057D01*
X153314400Y-85048152D02*
X153695352Y-85048152D01*
X153457257Y-84714819D02*
X153457257Y-85571961D01*
X153457257Y-85571961D02*
X153504876Y-85667200D01*
X153504876Y-85667200D02*
X153600114Y-85714819D01*
X153600114Y-85714819D02*
X153695352Y-85714819D01*
X154028686Y-85714819D02*
X154028686Y-85048152D01*
X154028686Y-84714819D02*
X153981067Y-84762438D01*
X153981067Y-84762438D02*
X154028686Y-84810057D01*
X154028686Y-84810057D02*
X154076305Y-84762438D01*
X154076305Y-84762438D02*
X154028686Y-84714819D01*
X154028686Y-84714819D02*
X154028686Y-84810057D01*
X154504876Y-85333866D02*
X155266781Y-85333866D01*
X154885828Y-85714819D02*
X154885828Y-84952914D01*
X156171542Y-85714819D02*
X156171542Y-84714819D01*
X156171542Y-85667200D02*
X156076304Y-85714819D01*
X156076304Y-85714819D02*
X155885828Y-85714819D01*
X155885828Y-85714819D02*
X155790590Y-85667200D01*
X155790590Y-85667200D02*
X155742971Y-85619580D01*
X155742971Y-85619580D02*
X155695352Y-85524342D01*
X155695352Y-85524342D02*
X155695352Y-85238628D01*
X155695352Y-85238628D02*
X155742971Y-85143390D01*
X155742971Y-85143390D02*
X155790590Y-85095771D01*
X155790590Y-85095771D02*
X155885828Y-85048152D01*
X155885828Y-85048152D02*
X156076304Y-85048152D01*
X156076304Y-85048152D02*
X156171542Y-85095771D01*
X157028685Y-85667200D02*
X156933447Y-85714819D01*
X156933447Y-85714819D02*
X156742971Y-85714819D01*
X156742971Y-85714819D02*
X156647733Y-85667200D01*
X156647733Y-85667200D02*
X156600114Y-85571961D01*
X156600114Y-85571961D02*
X156600114Y-85191009D01*
X156600114Y-85191009D02*
X156647733Y-85095771D01*
X156647733Y-85095771D02*
X156742971Y-85048152D01*
X156742971Y-85048152D02*
X156933447Y-85048152D01*
X156933447Y-85048152D02*
X157028685Y-85095771D01*
X157028685Y-85095771D02*
X157076304Y-85191009D01*
X157076304Y-85191009D02*
X157076304Y-85286247D01*
X157076304Y-85286247D02*
X156600114Y-85381485D01*
X157933447Y-85667200D02*
X157838209Y-85714819D01*
X157838209Y-85714819D02*
X157647733Y-85714819D01*
X157647733Y-85714819D02*
X157552495Y-85667200D01*
X157552495Y-85667200D02*
X157504876Y-85619580D01*
X157504876Y-85619580D02*
X157457257Y-85524342D01*
X157457257Y-85524342D02*
X157457257Y-85238628D01*
X157457257Y-85238628D02*
X157504876Y-85143390D01*
X157504876Y-85143390D02*
X157552495Y-85095771D01*
X157552495Y-85095771D02*
X157647733Y-85048152D01*
X157647733Y-85048152D02*
X157838209Y-85048152D01*
X157838209Y-85048152D02*
X157933447Y-85095771D01*
X158504876Y-85714819D02*
X158409638Y-85667200D01*
X158409638Y-85667200D02*
X158362019Y-85619580D01*
X158362019Y-85619580D02*
X158314400Y-85524342D01*
X158314400Y-85524342D02*
X158314400Y-85238628D01*
X158314400Y-85238628D02*
X158362019Y-85143390D01*
X158362019Y-85143390D02*
X158409638Y-85095771D01*
X158409638Y-85095771D02*
X158504876Y-85048152D01*
X158504876Y-85048152D02*
X158647733Y-85048152D01*
X158647733Y-85048152D02*
X158742971Y-85095771D01*
X158742971Y-85095771D02*
X158790590Y-85143390D01*
X158790590Y-85143390D02*
X158838209Y-85238628D01*
X158838209Y-85238628D02*
X158838209Y-85524342D01*
X158838209Y-85524342D02*
X158790590Y-85619580D01*
X158790590Y-85619580D02*
X158742971Y-85667200D01*
X158742971Y-85667200D02*
X158647733Y-85714819D01*
X158647733Y-85714819D02*
X158504876Y-85714819D01*
X159695352Y-85714819D02*
X159695352Y-84714819D01*
X159695352Y-85667200D02*
X159600114Y-85714819D01*
X159600114Y-85714819D02*
X159409638Y-85714819D01*
X159409638Y-85714819D02*
X159314400Y-85667200D01*
X159314400Y-85667200D02*
X159266781Y-85619580D01*
X159266781Y-85619580D02*
X159219162Y-85524342D01*
X159219162Y-85524342D02*
X159219162Y-85238628D01*
X159219162Y-85238628D02*
X159266781Y-85143390D01*
X159266781Y-85143390D02*
X159314400Y-85095771D01*
X159314400Y-85095771D02*
X159409638Y-85048152D01*
X159409638Y-85048152D02*
X159600114Y-85048152D01*
X159600114Y-85048152D02*
X159695352Y-85095771D01*
X160314400Y-85714819D02*
X160219162Y-85667200D01*
X160219162Y-85667200D02*
X160171543Y-85619580D01*
X160171543Y-85619580D02*
X160123924Y-85524342D01*
X160123924Y-85524342D02*
X160123924Y-85238628D01*
X160123924Y-85238628D02*
X160171543Y-85143390D01*
X160171543Y-85143390D02*
X160219162Y-85095771D01*
X160219162Y-85095771D02*
X160314400Y-85048152D01*
X160314400Y-85048152D02*
X160457257Y-85048152D01*
X160457257Y-85048152D02*
X160552495Y-85095771D01*
X160552495Y-85095771D02*
X160600114Y-85143390D01*
X160600114Y-85143390D02*
X160647733Y-85238628D01*
X160647733Y-85238628D02*
X160647733Y-85524342D01*
X160647733Y-85524342D02*
X160600114Y-85619580D01*
X160600114Y-85619580D02*
X160552495Y-85667200D01*
X160552495Y-85667200D02*
X160457257Y-85714819D01*
X160457257Y-85714819D02*
X160314400Y-85714819D01*
X161076305Y-85714819D02*
X161076305Y-85048152D01*
X161076305Y-85238628D02*
X161123924Y-85143390D01*
X161123924Y-85143390D02*
X161171543Y-85095771D01*
X161171543Y-85095771D02*
X161266781Y-85048152D01*
X161266781Y-85048152D02*
X161362019Y-85048152D01*
X162790591Y-85191009D02*
X162933448Y-85238628D01*
X162933448Y-85238628D02*
X162981067Y-85286247D01*
X162981067Y-85286247D02*
X163028686Y-85381485D01*
X163028686Y-85381485D02*
X163028686Y-85524342D01*
X163028686Y-85524342D02*
X162981067Y-85619580D01*
X162981067Y-85619580D02*
X162933448Y-85667200D01*
X162933448Y-85667200D02*
X162838210Y-85714819D01*
X162838210Y-85714819D02*
X162457258Y-85714819D01*
X162457258Y-85714819D02*
X162457258Y-84714819D01*
X162457258Y-84714819D02*
X162790591Y-84714819D01*
X162790591Y-84714819D02*
X162885829Y-84762438D01*
X162885829Y-84762438D02*
X162933448Y-84810057D01*
X162933448Y-84810057D02*
X162981067Y-84905295D01*
X162981067Y-84905295D02*
X162981067Y-85000533D01*
X162981067Y-85000533D02*
X162933448Y-85095771D01*
X162933448Y-85095771D02*
X162885829Y-85143390D01*
X162885829Y-85143390D02*
X162790591Y-85191009D01*
X162790591Y-85191009D02*
X162457258Y-85191009D01*
X164028686Y-85619580D02*
X163981067Y-85667200D01*
X163981067Y-85667200D02*
X163838210Y-85714819D01*
X163838210Y-85714819D02*
X163742972Y-85714819D01*
X163742972Y-85714819D02*
X163600115Y-85667200D01*
X163600115Y-85667200D02*
X163504877Y-85571961D01*
X163504877Y-85571961D02*
X163457258Y-85476723D01*
X163457258Y-85476723D02*
X163409639Y-85286247D01*
X163409639Y-85286247D02*
X163409639Y-85143390D01*
X163409639Y-85143390D02*
X163457258Y-84952914D01*
X163457258Y-84952914D02*
X163504877Y-84857676D01*
X163504877Y-84857676D02*
X163600115Y-84762438D01*
X163600115Y-84762438D02*
X163742972Y-84714819D01*
X163742972Y-84714819D02*
X163838210Y-84714819D01*
X163838210Y-84714819D02*
X163981067Y-84762438D01*
X163981067Y-84762438D02*
X164028686Y-84810057D01*
X164457258Y-85714819D02*
X164457258Y-84714819D01*
X164457258Y-84714819D02*
X164695353Y-84714819D01*
X164695353Y-84714819D02*
X164838210Y-84762438D01*
X164838210Y-84762438D02*
X164933448Y-84857676D01*
X164933448Y-84857676D02*
X164981067Y-84952914D01*
X164981067Y-84952914D02*
X165028686Y-85143390D01*
X165028686Y-85143390D02*
X165028686Y-85286247D01*
X165028686Y-85286247D02*
X164981067Y-85476723D01*
X164981067Y-85476723D02*
X164933448Y-85571961D01*
X164933448Y-85571961D02*
X164838210Y-85667200D01*
X164838210Y-85667200D02*
X164695353Y-85714819D01*
X164695353Y-85714819D02*
X164457258Y-85714819D01*
X145136779Y-110869819D02*
X145136779Y-109869819D01*
X145136779Y-109869819D02*
X145517731Y-109869819D01*
X145517731Y-109869819D02*
X145612969Y-109917438D01*
X145612969Y-109917438D02*
X145660588Y-109965057D01*
X145660588Y-109965057D02*
X145708207Y-110060295D01*
X145708207Y-110060295D02*
X145708207Y-110203152D01*
X145708207Y-110203152D02*
X145660588Y-110298390D01*
X145660588Y-110298390D02*
X145612969Y-110346009D01*
X145612969Y-110346009D02*
X145517731Y-110393628D01*
X145517731Y-110393628D02*
X145136779Y-110393628D01*
X146279636Y-110869819D02*
X146184398Y-110822200D01*
X146184398Y-110822200D02*
X146136779Y-110774580D01*
X146136779Y-110774580D02*
X146089160Y-110679342D01*
X146089160Y-110679342D02*
X146089160Y-110393628D01*
X146089160Y-110393628D02*
X146136779Y-110298390D01*
X146136779Y-110298390D02*
X146184398Y-110250771D01*
X146184398Y-110250771D02*
X146279636Y-110203152D01*
X146279636Y-110203152D02*
X146422493Y-110203152D01*
X146422493Y-110203152D02*
X146517731Y-110250771D01*
X146517731Y-110250771D02*
X146565350Y-110298390D01*
X146565350Y-110298390D02*
X146612969Y-110393628D01*
X146612969Y-110393628D02*
X146612969Y-110679342D01*
X146612969Y-110679342D02*
X146565350Y-110774580D01*
X146565350Y-110774580D02*
X146517731Y-110822200D01*
X146517731Y-110822200D02*
X146422493Y-110869819D01*
X146422493Y-110869819D02*
X146279636Y-110869819D01*
X147470112Y-110869819D02*
X147470112Y-110346009D01*
X147470112Y-110346009D02*
X147422493Y-110250771D01*
X147422493Y-110250771D02*
X147327255Y-110203152D01*
X147327255Y-110203152D02*
X147136779Y-110203152D01*
X147136779Y-110203152D02*
X147041541Y-110250771D01*
X147470112Y-110822200D02*
X147374874Y-110869819D01*
X147374874Y-110869819D02*
X147136779Y-110869819D01*
X147136779Y-110869819D02*
X147041541Y-110822200D01*
X147041541Y-110822200D02*
X146993922Y-110726961D01*
X146993922Y-110726961D02*
X146993922Y-110631723D01*
X146993922Y-110631723D02*
X147041541Y-110536485D01*
X147041541Y-110536485D02*
X147136779Y-110488866D01*
X147136779Y-110488866D02*
X147374874Y-110488866D01*
X147374874Y-110488866D02*
X147470112Y-110441247D01*
X147946303Y-110869819D02*
X147946303Y-110203152D01*
X147946303Y-110393628D02*
X147993922Y-110298390D01*
X147993922Y-110298390D02*
X148041541Y-110250771D01*
X148041541Y-110250771D02*
X148136779Y-110203152D01*
X148136779Y-110203152D02*
X148232017Y-110203152D01*
X148422494Y-110203152D02*
X148803446Y-110203152D01*
X148565351Y-109869819D02*
X148565351Y-110726961D01*
X148565351Y-110726961D02*
X148612970Y-110822200D01*
X148612970Y-110822200D02*
X148708208Y-110869819D01*
X148708208Y-110869819D02*
X148803446Y-110869819D01*
X149565351Y-110869819D02*
X149565351Y-110346009D01*
X149565351Y-110346009D02*
X149517732Y-110250771D01*
X149517732Y-110250771D02*
X149422494Y-110203152D01*
X149422494Y-110203152D02*
X149232018Y-110203152D01*
X149232018Y-110203152D02*
X149136780Y-110250771D01*
X149565351Y-110822200D02*
X149470113Y-110869819D01*
X149470113Y-110869819D02*
X149232018Y-110869819D01*
X149232018Y-110869819D02*
X149136780Y-110822200D01*
X149136780Y-110822200D02*
X149089161Y-110726961D01*
X149089161Y-110726961D02*
X149089161Y-110631723D01*
X149089161Y-110631723D02*
X149136780Y-110536485D01*
X149136780Y-110536485D02*
X149232018Y-110488866D01*
X149232018Y-110488866D02*
X149470113Y-110488866D01*
X149470113Y-110488866D02*
X149565351Y-110441247D01*
X150755828Y-110584104D02*
X151232018Y-110584104D01*
X150660590Y-110869819D02*
X150993923Y-109869819D01*
X150993923Y-109869819D02*
X151327256Y-110869819D01*
X151660590Y-110869819D02*
X151660590Y-109869819D01*
X151660590Y-109869819D02*
X152232018Y-110869819D01*
X152232018Y-110869819D02*
X152232018Y-109869819D01*
X152708209Y-110869819D02*
X152708209Y-109869819D01*
X152708209Y-109869819D02*
X152946304Y-109869819D01*
X152946304Y-109869819D02*
X153089161Y-109917438D01*
X153089161Y-109917438D02*
X153184399Y-110012676D01*
X153184399Y-110012676D02*
X153232018Y-110107914D01*
X153232018Y-110107914D02*
X153279637Y-110298390D01*
X153279637Y-110298390D02*
X153279637Y-110441247D01*
X153279637Y-110441247D02*
X153232018Y-110631723D01*
X153232018Y-110631723D02*
X153184399Y-110726961D01*
X153184399Y-110726961D02*
X153089161Y-110822200D01*
X153089161Y-110822200D02*
X152946304Y-110869819D01*
X152946304Y-110869819D02*
X152708209Y-110869819D01*
X169266779Y-83794819D02*
X169266779Y-82794819D01*
X169266779Y-82794819D02*
X169838207Y-83794819D01*
X169838207Y-83794819D02*
X169838207Y-82794819D01*
X170742969Y-83128152D02*
X170742969Y-83794819D01*
X170314398Y-83128152D02*
X170314398Y-83651961D01*
X170314398Y-83651961D02*
X170362017Y-83747200D01*
X170362017Y-83747200D02*
X170457255Y-83794819D01*
X170457255Y-83794819D02*
X170600112Y-83794819D01*
X170600112Y-83794819D02*
X170695350Y-83747200D01*
X170695350Y-83747200D02*
X170742969Y-83699580D01*
X171219160Y-83794819D02*
X171219160Y-83128152D01*
X171219160Y-83223390D02*
X171266779Y-83175771D01*
X171266779Y-83175771D02*
X171362017Y-83128152D01*
X171362017Y-83128152D02*
X171504874Y-83128152D01*
X171504874Y-83128152D02*
X171600112Y-83175771D01*
X171600112Y-83175771D02*
X171647731Y-83271009D01*
X171647731Y-83271009D02*
X171647731Y-83794819D01*
X171647731Y-83271009D02*
X171695350Y-83175771D01*
X171695350Y-83175771D02*
X171790588Y-83128152D01*
X171790588Y-83128152D02*
X171933445Y-83128152D01*
X171933445Y-83128152D02*
X172028684Y-83175771D01*
X172028684Y-83175771D02*
X172076303Y-83271009D01*
X172076303Y-83271009D02*
X172076303Y-83794819D01*
X172981064Y-83794819D02*
X172981064Y-83271009D01*
X172981064Y-83271009D02*
X172933445Y-83175771D01*
X172933445Y-83175771D02*
X172838207Y-83128152D01*
X172838207Y-83128152D02*
X172647731Y-83128152D01*
X172647731Y-83128152D02*
X172552493Y-83175771D01*
X172981064Y-83747200D02*
X172885826Y-83794819D01*
X172885826Y-83794819D02*
X172647731Y-83794819D01*
X172647731Y-83794819D02*
X172552493Y-83747200D01*
X172552493Y-83747200D02*
X172504874Y-83651961D01*
X172504874Y-83651961D02*
X172504874Y-83556723D01*
X172504874Y-83556723D02*
X172552493Y-83461485D01*
X172552493Y-83461485D02*
X172647731Y-83413866D01*
X172647731Y-83413866D02*
X172885826Y-83413866D01*
X172885826Y-83413866D02*
X172981064Y-83366247D01*
X173457255Y-83794819D02*
X173457255Y-83128152D01*
X173457255Y-83318628D02*
X173504874Y-83223390D01*
X173504874Y-83223390D02*
X173552493Y-83175771D01*
X173552493Y-83175771D02*
X173647731Y-83128152D01*
X173647731Y-83128152D02*
X173742969Y-83128152D01*
X174504874Y-83794819D02*
X174504874Y-83271009D01*
X174504874Y-83271009D02*
X174457255Y-83175771D01*
X174457255Y-83175771D02*
X174362017Y-83128152D01*
X174362017Y-83128152D02*
X174171541Y-83128152D01*
X174171541Y-83128152D02*
X174076303Y-83175771D01*
X174504874Y-83747200D02*
X174409636Y-83794819D01*
X174409636Y-83794819D02*
X174171541Y-83794819D01*
X174171541Y-83794819D02*
X174076303Y-83747200D01*
X174076303Y-83747200D02*
X174028684Y-83651961D01*
X174028684Y-83651961D02*
X174028684Y-83556723D01*
X174028684Y-83556723D02*
X174076303Y-83461485D01*
X174076303Y-83461485D02*
X174171541Y-83413866D01*
X174171541Y-83413866D02*
X174409636Y-83413866D01*
X174409636Y-83413866D02*
X174504874Y-83366247D01*
X174838208Y-83128152D02*
X175219160Y-83128152D01*
X174981065Y-82794819D02*
X174981065Y-83651961D01*
X174981065Y-83651961D02*
X175028684Y-83747200D01*
X175028684Y-83747200D02*
X175123922Y-83794819D01*
X175123922Y-83794819D02*
X175219160Y-83794819D01*
X175695351Y-83794819D02*
X175600113Y-83747200D01*
X175600113Y-83747200D02*
X175552494Y-83699580D01*
X175552494Y-83699580D02*
X175504875Y-83604342D01*
X175504875Y-83604342D02*
X175504875Y-83318628D01*
X175504875Y-83318628D02*
X175552494Y-83223390D01*
X175552494Y-83223390D02*
X175600113Y-83175771D01*
X175600113Y-83175771D02*
X175695351Y-83128152D01*
X175695351Y-83128152D02*
X175838208Y-83128152D01*
X175838208Y-83128152D02*
X175933446Y-83175771D01*
X175933446Y-83175771D02*
X175981065Y-83223390D01*
X175981065Y-83223390D02*
X176028684Y-83318628D01*
X176028684Y-83318628D02*
X176028684Y-83604342D01*
X176028684Y-83604342D02*
X175981065Y-83699580D01*
X175981065Y-83699580D02*
X175933446Y-83747200D01*
X175933446Y-83747200D02*
X175838208Y-83794819D01*
X175838208Y-83794819D02*
X175695351Y-83794819D01*
X176457256Y-83794819D02*
X176457256Y-83128152D01*
X176457256Y-83318628D02*
X176504875Y-83223390D01*
X176504875Y-83223390D02*
X176552494Y-83175771D01*
X176552494Y-83175771D02*
X176647732Y-83128152D01*
X176647732Y-83128152D02*
X176742970Y-83128152D01*
X177838209Y-83128152D02*
X177838209Y-84128152D01*
X177838209Y-83175771D02*
X177933447Y-83128152D01*
X177933447Y-83128152D02*
X178123923Y-83128152D01*
X178123923Y-83128152D02*
X178219161Y-83175771D01*
X178219161Y-83175771D02*
X178266780Y-83223390D01*
X178266780Y-83223390D02*
X178314399Y-83318628D01*
X178314399Y-83318628D02*
X178314399Y-83604342D01*
X178314399Y-83604342D02*
X178266780Y-83699580D01*
X178266780Y-83699580D02*
X178219161Y-83747200D01*
X178219161Y-83747200D02*
X178123923Y-83794819D01*
X178123923Y-83794819D02*
X177933447Y-83794819D01*
X177933447Y-83794819D02*
X177838209Y-83747200D01*
X179123923Y-83747200D02*
X179028685Y-83794819D01*
X179028685Y-83794819D02*
X178838209Y-83794819D01*
X178838209Y-83794819D02*
X178742971Y-83747200D01*
X178742971Y-83747200D02*
X178695352Y-83651961D01*
X178695352Y-83651961D02*
X178695352Y-83271009D01*
X178695352Y-83271009D02*
X178742971Y-83175771D01*
X178742971Y-83175771D02*
X178838209Y-83128152D01*
X178838209Y-83128152D02*
X179028685Y-83128152D01*
X179028685Y-83128152D02*
X179123923Y-83175771D01*
X179123923Y-83175771D02*
X179171542Y-83271009D01*
X179171542Y-83271009D02*
X179171542Y-83366247D01*
X179171542Y-83366247D02*
X178695352Y-83461485D01*
X180790590Y-83128152D02*
X180790590Y-83794819D01*
X180552495Y-82747200D02*
X180314400Y-83461485D01*
X180314400Y-83461485D02*
X180933447Y-83461485D01*
X182076305Y-83794819D02*
X182076305Y-82794819D01*
X182076305Y-83175771D02*
X182171543Y-83128152D01*
X182171543Y-83128152D02*
X182362019Y-83128152D01*
X182362019Y-83128152D02*
X182457257Y-83175771D01*
X182457257Y-83175771D02*
X182504876Y-83223390D01*
X182504876Y-83223390D02*
X182552495Y-83318628D01*
X182552495Y-83318628D02*
X182552495Y-83604342D01*
X182552495Y-83604342D02*
X182504876Y-83699580D01*
X182504876Y-83699580D02*
X182457257Y-83747200D01*
X182457257Y-83747200D02*
X182362019Y-83794819D01*
X182362019Y-83794819D02*
X182171543Y-83794819D01*
X182171543Y-83794819D02*
X182076305Y-83747200D01*
X182981067Y-83794819D02*
X182981067Y-83128152D01*
X182981067Y-82794819D02*
X182933448Y-82842438D01*
X182933448Y-82842438D02*
X182981067Y-82890057D01*
X182981067Y-82890057D02*
X183028686Y-82842438D01*
X183028686Y-82842438D02*
X182981067Y-82794819D01*
X182981067Y-82794819D02*
X182981067Y-82890057D01*
X183314400Y-83128152D02*
X183695352Y-83128152D01*
X183457257Y-82794819D02*
X183457257Y-83651961D01*
X183457257Y-83651961D02*
X183504876Y-83747200D01*
X183504876Y-83747200D02*
X183600114Y-83794819D01*
X183600114Y-83794819D02*
X183695352Y-83794819D01*
X184028686Y-83794819D02*
X184028686Y-83128152D01*
X184028686Y-82794819D02*
X183981067Y-82842438D01*
X183981067Y-82842438D02*
X184028686Y-82890057D01*
X184028686Y-82890057D02*
X184076305Y-82842438D01*
X184076305Y-82842438D02*
X184028686Y-82794819D01*
X184028686Y-82794819D02*
X184028686Y-82890057D01*
X184504876Y-83413866D02*
X185266781Y-83413866D01*
X184885828Y-83794819D02*
X184885828Y-83032914D01*
X186171542Y-83794819D02*
X186171542Y-82794819D01*
X186171542Y-83747200D02*
X186076304Y-83794819D01*
X186076304Y-83794819D02*
X185885828Y-83794819D01*
X185885828Y-83794819D02*
X185790590Y-83747200D01*
X185790590Y-83747200D02*
X185742971Y-83699580D01*
X185742971Y-83699580D02*
X185695352Y-83604342D01*
X185695352Y-83604342D02*
X185695352Y-83318628D01*
X185695352Y-83318628D02*
X185742971Y-83223390D01*
X185742971Y-83223390D02*
X185790590Y-83175771D01*
X185790590Y-83175771D02*
X185885828Y-83128152D01*
X185885828Y-83128152D02*
X186076304Y-83128152D01*
X186076304Y-83128152D02*
X186171542Y-83175771D01*
X187028685Y-83747200D02*
X186933447Y-83794819D01*
X186933447Y-83794819D02*
X186742971Y-83794819D01*
X186742971Y-83794819D02*
X186647733Y-83747200D01*
X186647733Y-83747200D02*
X186600114Y-83651961D01*
X186600114Y-83651961D02*
X186600114Y-83271009D01*
X186600114Y-83271009D02*
X186647733Y-83175771D01*
X186647733Y-83175771D02*
X186742971Y-83128152D01*
X186742971Y-83128152D02*
X186933447Y-83128152D01*
X186933447Y-83128152D02*
X187028685Y-83175771D01*
X187028685Y-83175771D02*
X187076304Y-83271009D01*
X187076304Y-83271009D02*
X187076304Y-83366247D01*
X187076304Y-83366247D02*
X186600114Y-83461485D01*
X187933447Y-83747200D02*
X187838209Y-83794819D01*
X187838209Y-83794819D02*
X187647733Y-83794819D01*
X187647733Y-83794819D02*
X187552495Y-83747200D01*
X187552495Y-83747200D02*
X187504876Y-83699580D01*
X187504876Y-83699580D02*
X187457257Y-83604342D01*
X187457257Y-83604342D02*
X187457257Y-83318628D01*
X187457257Y-83318628D02*
X187504876Y-83223390D01*
X187504876Y-83223390D02*
X187552495Y-83175771D01*
X187552495Y-83175771D02*
X187647733Y-83128152D01*
X187647733Y-83128152D02*
X187838209Y-83128152D01*
X187838209Y-83128152D02*
X187933447Y-83175771D01*
X188504876Y-83794819D02*
X188409638Y-83747200D01*
X188409638Y-83747200D02*
X188362019Y-83699580D01*
X188362019Y-83699580D02*
X188314400Y-83604342D01*
X188314400Y-83604342D02*
X188314400Y-83318628D01*
X188314400Y-83318628D02*
X188362019Y-83223390D01*
X188362019Y-83223390D02*
X188409638Y-83175771D01*
X188409638Y-83175771D02*
X188504876Y-83128152D01*
X188504876Y-83128152D02*
X188647733Y-83128152D01*
X188647733Y-83128152D02*
X188742971Y-83175771D01*
X188742971Y-83175771D02*
X188790590Y-83223390D01*
X188790590Y-83223390D02*
X188838209Y-83318628D01*
X188838209Y-83318628D02*
X188838209Y-83604342D01*
X188838209Y-83604342D02*
X188790590Y-83699580D01*
X188790590Y-83699580D02*
X188742971Y-83747200D01*
X188742971Y-83747200D02*
X188647733Y-83794819D01*
X188647733Y-83794819D02*
X188504876Y-83794819D01*
X189695352Y-83794819D02*
X189695352Y-82794819D01*
X189695352Y-83747200D02*
X189600114Y-83794819D01*
X189600114Y-83794819D02*
X189409638Y-83794819D01*
X189409638Y-83794819D02*
X189314400Y-83747200D01*
X189314400Y-83747200D02*
X189266781Y-83699580D01*
X189266781Y-83699580D02*
X189219162Y-83604342D01*
X189219162Y-83604342D02*
X189219162Y-83318628D01*
X189219162Y-83318628D02*
X189266781Y-83223390D01*
X189266781Y-83223390D02*
X189314400Y-83175771D01*
X189314400Y-83175771D02*
X189409638Y-83128152D01*
X189409638Y-83128152D02*
X189600114Y-83128152D01*
X189600114Y-83128152D02*
X189695352Y-83175771D01*
X190314400Y-83794819D02*
X190219162Y-83747200D01*
X190219162Y-83747200D02*
X190171543Y-83699580D01*
X190171543Y-83699580D02*
X190123924Y-83604342D01*
X190123924Y-83604342D02*
X190123924Y-83318628D01*
X190123924Y-83318628D02*
X190171543Y-83223390D01*
X190171543Y-83223390D02*
X190219162Y-83175771D01*
X190219162Y-83175771D02*
X190314400Y-83128152D01*
X190314400Y-83128152D02*
X190457257Y-83128152D01*
X190457257Y-83128152D02*
X190552495Y-83175771D01*
X190552495Y-83175771D02*
X190600114Y-83223390D01*
X190600114Y-83223390D02*
X190647733Y-83318628D01*
X190647733Y-83318628D02*
X190647733Y-83604342D01*
X190647733Y-83604342D02*
X190600114Y-83699580D01*
X190600114Y-83699580D02*
X190552495Y-83747200D01*
X190552495Y-83747200D02*
X190457257Y-83794819D01*
X190457257Y-83794819D02*
X190314400Y-83794819D01*
X191076305Y-83794819D02*
X191076305Y-83128152D01*
X191076305Y-83318628D02*
X191123924Y-83223390D01*
X191123924Y-83223390D02*
X191171543Y-83175771D01*
X191171543Y-83175771D02*
X191266781Y-83128152D01*
X191266781Y-83128152D02*
X191362019Y-83128152D01*
X192790591Y-83271009D02*
X192933448Y-83318628D01*
X192933448Y-83318628D02*
X192981067Y-83366247D01*
X192981067Y-83366247D02*
X193028686Y-83461485D01*
X193028686Y-83461485D02*
X193028686Y-83604342D01*
X193028686Y-83604342D02*
X192981067Y-83699580D01*
X192981067Y-83699580D02*
X192933448Y-83747200D01*
X192933448Y-83747200D02*
X192838210Y-83794819D01*
X192838210Y-83794819D02*
X192457258Y-83794819D01*
X192457258Y-83794819D02*
X192457258Y-82794819D01*
X192457258Y-82794819D02*
X192790591Y-82794819D01*
X192790591Y-82794819D02*
X192885829Y-82842438D01*
X192885829Y-82842438D02*
X192933448Y-82890057D01*
X192933448Y-82890057D02*
X192981067Y-82985295D01*
X192981067Y-82985295D02*
X192981067Y-83080533D01*
X192981067Y-83080533D02*
X192933448Y-83175771D01*
X192933448Y-83175771D02*
X192885829Y-83223390D01*
X192885829Y-83223390D02*
X192790591Y-83271009D01*
X192790591Y-83271009D02*
X192457258Y-83271009D01*
X194028686Y-83699580D02*
X193981067Y-83747200D01*
X193981067Y-83747200D02*
X193838210Y-83794819D01*
X193838210Y-83794819D02*
X193742972Y-83794819D01*
X193742972Y-83794819D02*
X193600115Y-83747200D01*
X193600115Y-83747200D02*
X193504877Y-83651961D01*
X193504877Y-83651961D02*
X193457258Y-83556723D01*
X193457258Y-83556723D02*
X193409639Y-83366247D01*
X193409639Y-83366247D02*
X193409639Y-83223390D01*
X193409639Y-83223390D02*
X193457258Y-83032914D01*
X193457258Y-83032914D02*
X193504877Y-82937676D01*
X193504877Y-82937676D02*
X193600115Y-82842438D01*
X193600115Y-82842438D02*
X193742972Y-82794819D01*
X193742972Y-82794819D02*
X193838210Y-82794819D01*
X193838210Y-82794819D02*
X193981067Y-82842438D01*
X193981067Y-82842438D02*
X194028686Y-82890057D01*
X194457258Y-83794819D02*
X194457258Y-82794819D01*
X194457258Y-82794819D02*
X194695353Y-82794819D01*
X194695353Y-82794819D02*
X194838210Y-82842438D01*
X194838210Y-82842438D02*
X194933448Y-82937676D01*
X194933448Y-82937676D02*
X194981067Y-83032914D01*
X194981067Y-83032914D02*
X195028686Y-83223390D01*
X195028686Y-83223390D02*
X195028686Y-83366247D01*
X195028686Y-83366247D02*
X194981067Y-83556723D01*
X194981067Y-83556723D02*
X194933448Y-83651961D01*
X194933448Y-83651961D02*
X194838210Y-83747200D01*
X194838210Y-83747200D02*
X194695353Y-83794819D01*
X194695353Y-83794819D02*
X194457258Y-83794819D01*
X146833333Y-119454819D02*
X146500000Y-118978628D01*
X146261905Y-119454819D02*
X146261905Y-118454819D01*
X146261905Y-118454819D02*
X146642857Y-118454819D01*
X146642857Y-118454819D02*
X146738095Y-118502438D01*
X146738095Y-118502438D02*
X146785714Y-118550057D01*
X146785714Y-118550057D02*
X146833333Y-118645295D01*
X146833333Y-118645295D02*
X146833333Y-118788152D01*
X146833333Y-118788152D02*
X146785714Y-118883390D01*
X146785714Y-118883390D02*
X146738095Y-118931009D01*
X146738095Y-118931009D02*
X146642857Y-118978628D01*
X146642857Y-118978628D02*
X146261905Y-118978628D01*
X147166667Y-118454819D02*
X147785714Y-118454819D01*
X147785714Y-118454819D02*
X147452381Y-118835771D01*
X147452381Y-118835771D02*
X147595238Y-118835771D01*
X147595238Y-118835771D02*
X147690476Y-118883390D01*
X147690476Y-118883390D02*
X147738095Y-118931009D01*
X147738095Y-118931009D02*
X147785714Y-119026247D01*
X147785714Y-119026247D02*
X147785714Y-119264342D01*
X147785714Y-119264342D02*
X147738095Y-119359580D01*
X147738095Y-119359580D02*
X147690476Y-119407200D01*
X147690476Y-119407200D02*
X147595238Y-119454819D01*
X147595238Y-119454819D02*
X147309524Y-119454819D01*
X147309524Y-119454819D02*
X147214286Y-119407200D01*
X147214286Y-119407200D02*
X147166667Y-119359580D01*
X158783333Y-43059580D02*
X158735714Y-43107200D01*
X158735714Y-43107200D02*
X158592857Y-43154819D01*
X158592857Y-43154819D02*
X158497619Y-43154819D01*
X158497619Y-43154819D02*
X158354762Y-43107200D01*
X158354762Y-43107200D02*
X158259524Y-43011961D01*
X158259524Y-43011961D02*
X158211905Y-42916723D01*
X158211905Y-42916723D02*
X158164286Y-42726247D01*
X158164286Y-42726247D02*
X158164286Y-42583390D01*
X158164286Y-42583390D02*
X158211905Y-42392914D01*
X158211905Y-42392914D02*
X158259524Y-42297676D01*
X158259524Y-42297676D02*
X158354762Y-42202438D01*
X158354762Y-42202438D02*
X158497619Y-42154819D01*
X158497619Y-42154819D02*
X158592857Y-42154819D01*
X158592857Y-42154819D02*
X158735714Y-42202438D01*
X158735714Y-42202438D02*
X158783333Y-42250057D01*
X159735714Y-43154819D02*
X159164286Y-43154819D01*
X159450000Y-43154819D02*
X159450000Y-42154819D01*
X159450000Y-42154819D02*
X159354762Y-42297676D01*
X159354762Y-42297676D02*
X159259524Y-42392914D01*
X159259524Y-42392914D02*
X159164286Y-42440533D01*
X145048095Y-72129819D02*
X145048095Y-72939342D01*
X145048095Y-72939342D02*
X145095714Y-73034580D01*
X145095714Y-73034580D02*
X145143333Y-73082200D01*
X145143333Y-73082200D02*
X145238571Y-73129819D01*
X145238571Y-73129819D02*
X145429047Y-73129819D01*
X145429047Y-73129819D02*
X145524285Y-73082200D01*
X145524285Y-73082200D02*
X145571904Y-73034580D01*
X145571904Y-73034580D02*
X145619523Y-72939342D01*
X145619523Y-72939342D02*
X145619523Y-72129819D01*
X146571904Y-72129819D02*
X146095714Y-72129819D01*
X146095714Y-72129819D02*
X146048095Y-72606009D01*
X146048095Y-72606009D02*
X146095714Y-72558390D01*
X146095714Y-72558390D02*
X146190952Y-72510771D01*
X146190952Y-72510771D02*
X146429047Y-72510771D01*
X146429047Y-72510771D02*
X146524285Y-72558390D01*
X146524285Y-72558390D02*
X146571904Y-72606009D01*
X146571904Y-72606009D02*
X146619523Y-72701247D01*
X146619523Y-72701247D02*
X146619523Y-72939342D01*
X146619523Y-72939342D02*
X146571904Y-73034580D01*
X146571904Y-73034580D02*
X146524285Y-73082200D01*
X146524285Y-73082200D02*
X146429047Y-73129819D01*
X146429047Y-73129819D02*
X146190952Y-73129819D01*
X146190952Y-73129819D02*
X146095714Y-73082200D01*
X146095714Y-73082200D02*
X146048095Y-73034580D01*
X206857142Y-85204819D02*
X206523809Y-84728628D01*
X206285714Y-85204819D02*
X206285714Y-84204819D01*
X206285714Y-84204819D02*
X206666666Y-84204819D01*
X206666666Y-84204819D02*
X206761904Y-84252438D01*
X206761904Y-84252438D02*
X206809523Y-84300057D01*
X206809523Y-84300057D02*
X206857142Y-84395295D01*
X206857142Y-84395295D02*
X206857142Y-84538152D01*
X206857142Y-84538152D02*
X206809523Y-84633390D01*
X206809523Y-84633390D02*
X206761904Y-84681009D01*
X206761904Y-84681009D02*
X206666666Y-84728628D01*
X206666666Y-84728628D02*
X206285714Y-84728628D01*
X207809523Y-85204819D02*
X207238095Y-85204819D01*
X207523809Y-85204819D02*
X207523809Y-84204819D01*
X207523809Y-84204819D02*
X207428571Y-84347676D01*
X207428571Y-84347676D02*
X207333333Y-84442914D01*
X207333333Y-84442914D02*
X207238095Y-84490533D01*
X208380952Y-84633390D02*
X208285714Y-84585771D01*
X208285714Y-84585771D02*
X208238095Y-84538152D01*
X208238095Y-84538152D02*
X208190476Y-84442914D01*
X208190476Y-84442914D02*
X208190476Y-84395295D01*
X208190476Y-84395295D02*
X208238095Y-84300057D01*
X208238095Y-84300057D02*
X208285714Y-84252438D01*
X208285714Y-84252438D02*
X208380952Y-84204819D01*
X208380952Y-84204819D02*
X208571428Y-84204819D01*
X208571428Y-84204819D02*
X208666666Y-84252438D01*
X208666666Y-84252438D02*
X208714285Y-84300057D01*
X208714285Y-84300057D02*
X208761904Y-84395295D01*
X208761904Y-84395295D02*
X208761904Y-84442914D01*
X208761904Y-84442914D02*
X208714285Y-84538152D01*
X208714285Y-84538152D02*
X208666666Y-84585771D01*
X208666666Y-84585771D02*
X208571428Y-84633390D01*
X208571428Y-84633390D02*
X208380952Y-84633390D01*
X208380952Y-84633390D02*
X208285714Y-84681009D01*
X208285714Y-84681009D02*
X208238095Y-84728628D01*
X208238095Y-84728628D02*
X208190476Y-84823866D01*
X208190476Y-84823866D02*
X208190476Y-85014342D01*
X208190476Y-85014342D02*
X208238095Y-85109580D01*
X208238095Y-85109580D02*
X208285714Y-85157200D01*
X208285714Y-85157200D02*
X208380952Y-85204819D01*
X208380952Y-85204819D02*
X208571428Y-85204819D01*
X208571428Y-85204819D02*
X208666666Y-85157200D01*
X208666666Y-85157200D02*
X208714285Y-85109580D01*
X208714285Y-85109580D02*
X208761904Y-85014342D01*
X208761904Y-85014342D02*
X208761904Y-84823866D01*
X208761904Y-84823866D02*
X208714285Y-84728628D01*
X208714285Y-84728628D02*
X208666666Y-84681009D01*
X208666666Y-84681009D02*
X208571428Y-84633390D01*
X206857142Y-66204819D02*
X206523809Y-65728628D01*
X206285714Y-66204819D02*
X206285714Y-65204819D01*
X206285714Y-65204819D02*
X206666666Y-65204819D01*
X206666666Y-65204819D02*
X206761904Y-65252438D01*
X206761904Y-65252438D02*
X206809523Y-65300057D01*
X206809523Y-65300057D02*
X206857142Y-65395295D01*
X206857142Y-65395295D02*
X206857142Y-65538152D01*
X206857142Y-65538152D02*
X206809523Y-65633390D01*
X206809523Y-65633390D02*
X206761904Y-65681009D01*
X206761904Y-65681009D02*
X206666666Y-65728628D01*
X206666666Y-65728628D02*
X206285714Y-65728628D01*
X207809523Y-66204819D02*
X207238095Y-66204819D01*
X207523809Y-66204819D02*
X207523809Y-65204819D01*
X207523809Y-65204819D02*
X207428571Y-65347676D01*
X207428571Y-65347676D02*
X207333333Y-65442914D01*
X207333333Y-65442914D02*
X207238095Y-65490533D01*
X208666666Y-65538152D02*
X208666666Y-66204819D01*
X208428571Y-65157200D02*
X208190476Y-65871485D01*
X208190476Y-65871485D02*
X208809523Y-65871485D01*
X189333333Y-89954819D02*
X189000000Y-89478628D01*
X188761905Y-89954819D02*
X188761905Y-88954819D01*
X188761905Y-88954819D02*
X189142857Y-88954819D01*
X189142857Y-88954819D02*
X189238095Y-89002438D01*
X189238095Y-89002438D02*
X189285714Y-89050057D01*
X189285714Y-89050057D02*
X189333333Y-89145295D01*
X189333333Y-89145295D02*
X189333333Y-89288152D01*
X189333333Y-89288152D02*
X189285714Y-89383390D01*
X189285714Y-89383390D02*
X189238095Y-89431009D01*
X189238095Y-89431009D02*
X189142857Y-89478628D01*
X189142857Y-89478628D02*
X188761905Y-89478628D01*
X190238095Y-88954819D02*
X189761905Y-88954819D01*
X189761905Y-88954819D02*
X189714286Y-89431009D01*
X189714286Y-89431009D02*
X189761905Y-89383390D01*
X189761905Y-89383390D02*
X189857143Y-89335771D01*
X189857143Y-89335771D02*
X190095238Y-89335771D01*
X190095238Y-89335771D02*
X190190476Y-89383390D01*
X190190476Y-89383390D02*
X190238095Y-89431009D01*
X190238095Y-89431009D02*
X190285714Y-89526247D01*
X190285714Y-89526247D02*
X190285714Y-89764342D01*
X190285714Y-89764342D02*
X190238095Y-89859580D01*
X190238095Y-89859580D02*
X190190476Y-89907200D01*
X190190476Y-89907200D02*
X190095238Y-89954819D01*
X190095238Y-89954819D02*
X189857143Y-89954819D01*
X189857143Y-89954819D02*
X189761905Y-89907200D01*
X189761905Y-89907200D02*
X189714286Y-89859580D01*
X189333333Y-104204819D02*
X189000000Y-103728628D01*
X188761905Y-104204819D02*
X188761905Y-103204819D01*
X188761905Y-103204819D02*
X189142857Y-103204819D01*
X189142857Y-103204819D02*
X189238095Y-103252438D01*
X189238095Y-103252438D02*
X189285714Y-103300057D01*
X189285714Y-103300057D02*
X189333333Y-103395295D01*
X189333333Y-103395295D02*
X189333333Y-103538152D01*
X189333333Y-103538152D02*
X189285714Y-103633390D01*
X189285714Y-103633390D02*
X189238095Y-103681009D01*
X189238095Y-103681009D02*
X189142857Y-103728628D01*
X189142857Y-103728628D02*
X188761905Y-103728628D01*
X189904762Y-103633390D02*
X189809524Y-103585771D01*
X189809524Y-103585771D02*
X189761905Y-103538152D01*
X189761905Y-103538152D02*
X189714286Y-103442914D01*
X189714286Y-103442914D02*
X189714286Y-103395295D01*
X189714286Y-103395295D02*
X189761905Y-103300057D01*
X189761905Y-103300057D02*
X189809524Y-103252438D01*
X189809524Y-103252438D02*
X189904762Y-103204819D01*
X189904762Y-103204819D02*
X190095238Y-103204819D01*
X190095238Y-103204819D02*
X190190476Y-103252438D01*
X190190476Y-103252438D02*
X190238095Y-103300057D01*
X190238095Y-103300057D02*
X190285714Y-103395295D01*
X190285714Y-103395295D02*
X190285714Y-103442914D01*
X190285714Y-103442914D02*
X190238095Y-103538152D01*
X190238095Y-103538152D02*
X190190476Y-103585771D01*
X190190476Y-103585771D02*
X190095238Y-103633390D01*
X190095238Y-103633390D02*
X189904762Y-103633390D01*
X189904762Y-103633390D02*
X189809524Y-103681009D01*
X189809524Y-103681009D02*
X189761905Y-103728628D01*
X189761905Y-103728628D02*
X189714286Y-103823866D01*
X189714286Y-103823866D02*
X189714286Y-104014342D01*
X189714286Y-104014342D02*
X189761905Y-104109580D01*
X189761905Y-104109580D02*
X189809524Y-104157200D01*
X189809524Y-104157200D02*
X189904762Y-104204819D01*
X189904762Y-104204819D02*
X190095238Y-104204819D01*
X190095238Y-104204819D02*
X190190476Y-104157200D01*
X190190476Y-104157200D02*
X190238095Y-104109580D01*
X190238095Y-104109580D02*
X190285714Y-104014342D01*
X190285714Y-104014342D02*
X190285714Y-103823866D01*
X190285714Y-103823866D02*
X190238095Y-103728628D01*
X190238095Y-103728628D02*
X190190476Y-103681009D01*
X190190476Y-103681009D02*
X190095238Y-103633390D01*
X206857142Y-61454819D02*
X206523809Y-60978628D01*
X206285714Y-61454819D02*
X206285714Y-60454819D01*
X206285714Y-60454819D02*
X206666666Y-60454819D01*
X206666666Y-60454819D02*
X206761904Y-60502438D01*
X206761904Y-60502438D02*
X206809523Y-60550057D01*
X206809523Y-60550057D02*
X206857142Y-60645295D01*
X206857142Y-60645295D02*
X206857142Y-60788152D01*
X206857142Y-60788152D02*
X206809523Y-60883390D01*
X206809523Y-60883390D02*
X206761904Y-60931009D01*
X206761904Y-60931009D02*
X206666666Y-60978628D01*
X206666666Y-60978628D02*
X206285714Y-60978628D01*
X207809523Y-61454819D02*
X207238095Y-61454819D01*
X207523809Y-61454819D02*
X207523809Y-60454819D01*
X207523809Y-60454819D02*
X207428571Y-60597676D01*
X207428571Y-60597676D02*
X207333333Y-60692914D01*
X207333333Y-60692914D02*
X207238095Y-60740533D01*
X208142857Y-60454819D02*
X208761904Y-60454819D01*
X208761904Y-60454819D02*
X208428571Y-60835771D01*
X208428571Y-60835771D02*
X208571428Y-60835771D01*
X208571428Y-60835771D02*
X208666666Y-60883390D01*
X208666666Y-60883390D02*
X208714285Y-60931009D01*
X208714285Y-60931009D02*
X208761904Y-61026247D01*
X208761904Y-61026247D02*
X208761904Y-61264342D01*
X208761904Y-61264342D02*
X208714285Y-61359580D01*
X208714285Y-61359580D02*
X208666666Y-61407200D01*
X208666666Y-61407200D02*
X208571428Y-61454819D01*
X208571428Y-61454819D02*
X208285714Y-61454819D01*
X208285714Y-61454819D02*
X208190476Y-61407200D01*
X208190476Y-61407200D02*
X208142857Y-61359580D01*
X189333333Y-94704819D02*
X189000000Y-94228628D01*
X188761905Y-94704819D02*
X188761905Y-93704819D01*
X188761905Y-93704819D02*
X189142857Y-93704819D01*
X189142857Y-93704819D02*
X189238095Y-93752438D01*
X189238095Y-93752438D02*
X189285714Y-93800057D01*
X189285714Y-93800057D02*
X189333333Y-93895295D01*
X189333333Y-93895295D02*
X189333333Y-94038152D01*
X189333333Y-94038152D02*
X189285714Y-94133390D01*
X189285714Y-94133390D02*
X189238095Y-94181009D01*
X189238095Y-94181009D02*
X189142857Y-94228628D01*
X189142857Y-94228628D02*
X188761905Y-94228628D01*
X190190476Y-93704819D02*
X190000000Y-93704819D01*
X190000000Y-93704819D02*
X189904762Y-93752438D01*
X189904762Y-93752438D02*
X189857143Y-93800057D01*
X189857143Y-93800057D02*
X189761905Y-93942914D01*
X189761905Y-93942914D02*
X189714286Y-94133390D01*
X189714286Y-94133390D02*
X189714286Y-94514342D01*
X189714286Y-94514342D02*
X189761905Y-94609580D01*
X189761905Y-94609580D02*
X189809524Y-94657200D01*
X189809524Y-94657200D02*
X189904762Y-94704819D01*
X189904762Y-94704819D02*
X190095238Y-94704819D01*
X190095238Y-94704819D02*
X190190476Y-94657200D01*
X190190476Y-94657200D02*
X190238095Y-94609580D01*
X190238095Y-94609580D02*
X190285714Y-94514342D01*
X190285714Y-94514342D02*
X190285714Y-94276247D01*
X190285714Y-94276247D02*
X190238095Y-94181009D01*
X190238095Y-94181009D02*
X190190476Y-94133390D01*
X190190476Y-94133390D02*
X190095238Y-94085771D01*
X190095238Y-94085771D02*
X189904762Y-94085771D01*
X189904762Y-94085771D02*
X189809524Y-94133390D01*
X189809524Y-94133390D02*
X189761905Y-94181009D01*
X189761905Y-94181009D02*
X189714286Y-94276247D01*
X159663333Y-118509580D02*
X159615714Y-118557200D01*
X159615714Y-118557200D02*
X159472857Y-118604819D01*
X159472857Y-118604819D02*
X159377619Y-118604819D01*
X159377619Y-118604819D02*
X159234762Y-118557200D01*
X159234762Y-118557200D02*
X159139524Y-118461961D01*
X159139524Y-118461961D02*
X159091905Y-118366723D01*
X159091905Y-118366723D02*
X159044286Y-118176247D01*
X159044286Y-118176247D02*
X159044286Y-118033390D01*
X159044286Y-118033390D02*
X159091905Y-117842914D01*
X159091905Y-117842914D02*
X159139524Y-117747676D01*
X159139524Y-117747676D02*
X159234762Y-117652438D01*
X159234762Y-117652438D02*
X159377619Y-117604819D01*
X159377619Y-117604819D02*
X159472857Y-117604819D01*
X159472857Y-117604819D02*
X159615714Y-117652438D01*
X159615714Y-117652438D02*
X159663333Y-117700057D01*
X160520476Y-117938152D02*
X160520476Y-118604819D01*
X160282381Y-117557200D02*
X160044286Y-118271485D01*
X160044286Y-118271485D02*
X160663333Y-118271485D01*
X171916667Y-46157200D02*
X172059524Y-46204819D01*
X172059524Y-46204819D02*
X172297619Y-46204819D01*
X172297619Y-46204819D02*
X172392857Y-46157200D01*
X172392857Y-46157200D02*
X172440476Y-46109580D01*
X172440476Y-46109580D02*
X172488095Y-46014342D01*
X172488095Y-46014342D02*
X172488095Y-45919104D01*
X172488095Y-45919104D02*
X172440476Y-45823866D01*
X172440476Y-45823866D02*
X172392857Y-45776247D01*
X172392857Y-45776247D02*
X172297619Y-45728628D01*
X172297619Y-45728628D02*
X172107143Y-45681009D01*
X172107143Y-45681009D02*
X172011905Y-45633390D01*
X172011905Y-45633390D02*
X171964286Y-45585771D01*
X171964286Y-45585771D02*
X171916667Y-45490533D01*
X171916667Y-45490533D02*
X171916667Y-45395295D01*
X171916667Y-45395295D02*
X171964286Y-45300057D01*
X171964286Y-45300057D02*
X172011905Y-45252438D01*
X172011905Y-45252438D02*
X172107143Y-45204819D01*
X172107143Y-45204819D02*
X172345238Y-45204819D01*
X172345238Y-45204819D02*
X172488095Y-45252438D01*
X172821429Y-45204819D02*
X173059524Y-46204819D01*
X173059524Y-46204819D02*
X173250000Y-45490533D01*
X173250000Y-45490533D02*
X173440476Y-46204819D01*
X173440476Y-46204819D02*
X173678572Y-45204819D01*
X174583333Y-46204819D02*
X174011905Y-46204819D01*
X174297619Y-46204819D02*
X174297619Y-45204819D01*
X174297619Y-45204819D02*
X174202381Y-45347676D01*
X174202381Y-45347676D02*
X174107143Y-45442914D01*
X174107143Y-45442914D02*
X174011905Y-45490533D01*
X157038095Y-72629819D02*
X157038095Y-73439342D01*
X157038095Y-73439342D02*
X157085714Y-73534580D01*
X157085714Y-73534580D02*
X157133333Y-73582200D01*
X157133333Y-73582200D02*
X157228571Y-73629819D01*
X157228571Y-73629819D02*
X157419047Y-73629819D01*
X157419047Y-73629819D02*
X157514285Y-73582200D01*
X157514285Y-73582200D02*
X157561904Y-73534580D01*
X157561904Y-73534580D02*
X157609523Y-73439342D01*
X157609523Y-73439342D02*
X157609523Y-72629819D01*
X158514285Y-72629819D02*
X158323809Y-72629819D01*
X158323809Y-72629819D02*
X158228571Y-72677438D01*
X158228571Y-72677438D02*
X158180952Y-72725057D01*
X158180952Y-72725057D02*
X158085714Y-72867914D01*
X158085714Y-72867914D02*
X158038095Y-73058390D01*
X158038095Y-73058390D02*
X158038095Y-73439342D01*
X158038095Y-73439342D02*
X158085714Y-73534580D01*
X158085714Y-73534580D02*
X158133333Y-73582200D01*
X158133333Y-73582200D02*
X158228571Y-73629819D01*
X158228571Y-73629819D02*
X158419047Y-73629819D01*
X158419047Y-73629819D02*
X158514285Y-73582200D01*
X158514285Y-73582200D02*
X158561904Y-73534580D01*
X158561904Y-73534580D02*
X158609523Y-73439342D01*
X158609523Y-73439342D02*
X158609523Y-73201247D01*
X158609523Y-73201247D02*
X158561904Y-73106009D01*
X158561904Y-73106009D02*
X158514285Y-73058390D01*
X158514285Y-73058390D02*
X158419047Y-73010771D01*
X158419047Y-73010771D02*
X158228571Y-73010771D01*
X158228571Y-73010771D02*
X158133333Y-73058390D01*
X158133333Y-73058390D02*
X158085714Y-73106009D01*
X158085714Y-73106009D02*
X158038095Y-73201247D01*
X206857142Y-70954819D02*
X206523809Y-70478628D01*
X206285714Y-70954819D02*
X206285714Y-69954819D01*
X206285714Y-69954819D02*
X206666666Y-69954819D01*
X206666666Y-69954819D02*
X206761904Y-70002438D01*
X206761904Y-70002438D02*
X206809523Y-70050057D01*
X206809523Y-70050057D02*
X206857142Y-70145295D01*
X206857142Y-70145295D02*
X206857142Y-70288152D01*
X206857142Y-70288152D02*
X206809523Y-70383390D01*
X206809523Y-70383390D02*
X206761904Y-70431009D01*
X206761904Y-70431009D02*
X206666666Y-70478628D01*
X206666666Y-70478628D02*
X206285714Y-70478628D01*
X207809523Y-70954819D02*
X207238095Y-70954819D01*
X207523809Y-70954819D02*
X207523809Y-69954819D01*
X207523809Y-69954819D02*
X207428571Y-70097676D01*
X207428571Y-70097676D02*
X207333333Y-70192914D01*
X207333333Y-70192914D02*
X207238095Y-70240533D01*
X208714285Y-69954819D02*
X208238095Y-69954819D01*
X208238095Y-69954819D02*
X208190476Y-70431009D01*
X208190476Y-70431009D02*
X208238095Y-70383390D01*
X208238095Y-70383390D02*
X208333333Y-70335771D01*
X208333333Y-70335771D02*
X208571428Y-70335771D01*
X208571428Y-70335771D02*
X208666666Y-70383390D01*
X208666666Y-70383390D02*
X208714285Y-70431009D01*
X208714285Y-70431009D02*
X208761904Y-70526247D01*
X208761904Y-70526247D02*
X208761904Y-70764342D01*
X208761904Y-70764342D02*
X208714285Y-70859580D01*
X208714285Y-70859580D02*
X208666666Y-70907200D01*
X208666666Y-70907200D02*
X208571428Y-70954819D01*
X208571428Y-70954819D02*
X208333333Y-70954819D01*
X208333333Y-70954819D02*
X208238095Y-70907200D01*
X208238095Y-70907200D02*
X208190476Y-70859580D01*
X167713333Y-54454819D02*
X167380000Y-53978628D01*
X167141905Y-54454819D02*
X167141905Y-53454819D01*
X167141905Y-53454819D02*
X167522857Y-53454819D01*
X167522857Y-53454819D02*
X167618095Y-53502438D01*
X167618095Y-53502438D02*
X167665714Y-53550057D01*
X167665714Y-53550057D02*
X167713333Y-53645295D01*
X167713333Y-53645295D02*
X167713333Y-53788152D01*
X167713333Y-53788152D02*
X167665714Y-53883390D01*
X167665714Y-53883390D02*
X167618095Y-53931009D01*
X167618095Y-53931009D02*
X167522857Y-53978628D01*
X167522857Y-53978628D02*
X167141905Y-53978628D01*
X168665714Y-54454819D02*
X168094286Y-54454819D01*
X168380000Y-54454819D02*
X168380000Y-53454819D01*
X168380000Y-53454819D02*
X168284762Y-53597676D01*
X168284762Y-53597676D02*
X168189524Y-53692914D01*
X168189524Y-53692914D02*
X168094286Y-53740533D01*
X215296905Y-98017319D02*
X215296905Y-98826842D01*
X215296905Y-98826842D02*
X215344524Y-98922080D01*
X215344524Y-98922080D02*
X215392143Y-98969700D01*
X215392143Y-98969700D02*
X215487381Y-99017319D01*
X215487381Y-99017319D02*
X215677857Y-99017319D01*
X215677857Y-99017319D02*
X215773095Y-98969700D01*
X215773095Y-98969700D02*
X215820714Y-98922080D01*
X215820714Y-98922080D02*
X215868333Y-98826842D01*
X215868333Y-98826842D02*
X215868333Y-98017319D01*
X216868333Y-99017319D02*
X216296905Y-99017319D01*
X216582619Y-99017319D02*
X216582619Y-98017319D01*
X216582619Y-98017319D02*
X216487381Y-98160176D01*
X216487381Y-98160176D02*
X216392143Y-98255414D01*
X216392143Y-98255414D02*
X216296905Y-98303033D01*
X217820714Y-99017319D02*
X217249286Y-99017319D01*
X217535000Y-99017319D02*
X217535000Y-98017319D01*
X217535000Y-98017319D02*
X217439762Y-98160176D01*
X217439762Y-98160176D02*
X217344524Y-98255414D01*
X217344524Y-98255414D02*
X217249286Y-98303033D01*
X188857142Y-113704819D02*
X188523809Y-113228628D01*
X188285714Y-113704819D02*
X188285714Y-112704819D01*
X188285714Y-112704819D02*
X188666666Y-112704819D01*
X188666666Y-112704819D02*
X188761904Y-112752438D01*
X188761904Y-112752438D02*
X188809523Y-112800057D01*
X188809523Y-112800057D02*
X188857142Y-112895295D01*
X188857142Y-112895295D02*
X188857142Y-113038152D01*
X188857142Y-113038152D02*
X188809523Y-113133390D01*
X188809523Y-113133390D02*
X188761904Y-113181009D01*
X188761904Y-113181009D02*
X188666666Y-113228628D01*
X188666666Y-113228628D02*
X188285714Y-113228628D01*
X189809523Y-113704819D02*
X189238095Y-113704819D01*
X189523809Y-113704819D02*
X189523809Y-112704819D01*
X189523809Y-112704819D02*
X189428571Y-112847676D01*
X189428571Y-112847676D02*
X189333333Y-112942914D01*
X189333333Y-112942914D02*
X189238095Y-112990533D01*
X190428571Y-112704819D02*
X190523809Y-112704819D01*
X190523809Y-112704819D02*
X190619047Y-112752438D01*
X190619047Y-112752438D02*
X190666666Y-112800057D01*
X190666666Y-112800057D02*
X190714285Y-112895295D01*
X190714285Y-112895295D02*
X190761904Y-113085771D01*
X190761904Y-113085771D02*
X190761904Y-113323866D01*
X190761904Y-113323866D02*
X190714285Y-113514342D01*
X190714285Y-113514342D02*
X190666666Y-113609580D01*
X190666666Y-113609580D02*
X190619047Y-113657200D01*
X190619047Y-113657200D02*
X190523809Y-113704819D01*
X190523809Y-113704819D02*
X190428571Y-113704819D01*
X190428571Y-113704819D02*
X190333333Y-113657200D01*
X190333333Y-113657200D02*
X190285714Y-113609580D01*
X190285714Y-113609580D02*
X190238095Y-113514342D01*
X190238095Y-113514342D02*
X190190476Y-113323866D01*
X190190476Y-113323866D02*
X190190476Y-113085771D01*
X190190476Y-113085771D02*
X190238095Y-112895295D01*
X190238095Y-112895295D02*
X190285714Y-112800057D01*
X190285714Y-112800057D02*
X190333333Y-112752438D01*
X190333333Y-112752438D02*
X190428571Y-112704819D01*
X147748095Y-99679819D02*
X147748095Y-100489342D01*
X147748095Y-100489342D02*
X147795714Y-100584580D01*
X147795714Y-100584580D02*
X147843333Y-100632200D01*
X147843333Y-100632200D02*
X147938571Y-100679819D01*
X147938571Y-100679819D02*
X148129047Y-100679819D01*
X148129047Y-100679819D02*
X148224285Y-100632200D01*
X148224285Y-100632200D02*
X148271904Y-100584580D01*
X148271904Y-100584580D02*
X148319523Y-100489342D01*
X148319523Y-100489342D02*
X148319523Y-99679819D01*
X148700476Y-99679819D02*
X149319523Y-99679819D01*
X149319523Y-99679819D02*
X148986190Y-100060771D01*
X148986190Y-100060771D02*
X149129047Y-100060771D01*
X149129047Y-100060771D02*
X149224285Y-100108390D01*
X149224285Y-100108390D02*
X149271904Y-100156009D01*
X149271904Y-100156009D02*
X149319523Y-100251247D01*
X149319523Y-100251247D02*
X149319523Y-100489342D01*
X149319523Y-100489342D02*
X149271904Y-100584580D01*
X149271904Y-100584580D02*
X149224285Y-100632200D01*
X149224285Y-100632200D02*
X149129047Y-100679819D01*
X149129047Y-100679819D02*
X148843333Y-100679819D01*
X148843333Y-100679819D02*
X148748095Y-100632200D01*
X148748095Y-100632200D02*
X148700476Y-100584580D01*
X188857142Y-118454819D02*
X188523809Y-117978628D01*
X188285714Y-118454819D02*
X188285714Y-117454819D01*
X188285714Y-117454819D02*
X188666666Y-117454819D01*
X188666666Y-117454819D02*
X188761904Y-117502438D01*
X188761904Y-117502438D02*
X188809523Y-117550057D01*
X188809523Y-117550057D02*
X188857142Y-117645295D01*
X188857142Y-117645295D02*
X188857142Y-117788152D01*
X188857142Y-117788152D02*
X188809523Y-117883390D01*
X188809523Y-117883390D02*
X188761904Y-117931009D01*
X188761904Y-117931009D02*
X188666666Y-117978628D01*
X188666666Y-117978628D02*
X188285714Y-117978628D01*
X189809523Y-118454819D02*
X189238095Y-118454819D01*
X189523809Y-118454819D02*
X189523809Y-117454819D01*
X189523809Y-117454819D02*
X189428571Y-117597676D01*
X189428571Y-117597676D02*
X189333333Y-117692914D01*
X189333333Y-117692914D02*
X189238095Y-117740533D01*
X190761904Y-118454819D02*
X190190476Y-118454819D01*
X190476190Y-118454819D02*
X190476190Y-117454819D01*
X190476190Y-117454819D02*
X190380952Y-117597676D01*
X190380952Y-117597676D02*
X190285714Y-117692914D01*
X190285714Y-117692914D02*
X190190476Y-117740533D01*
X162568095Y-100104819D02*
X162568095Y-100914342D01*
X162568095Y-100914342D02*
X162615714Y-101009580D01*
X162615714Y-101009580D02*
X162663333Y-101057200D01*
X162663333Y-101057200D02*
X162758571Y-101104819D01*
X162758571Y-101104819D02*
X162949047Y-101104819D01*
X162949047Y-101104819D02*
X163044285Y-101057200D01*
X163044285Y-101057200D02*
X163091904Y-101009580D01*
X163091904Y-101009580D02*
X163139523Y-100914342D01*
X163139523Y-100914342D02*
X163139523Y-100104819D01*
X163520476Y-100104819D02*
X164187142Y-100104819D01*
X164187142Y-100104819D02*
X163758571Y-101104819D01*
X159333333Y-114659580D02*
X159285714Y-114707200D01*
X159285714Y-114707200D02*
X159142857Y-114754819D01*
X159142857Y-114754819D02*
X159047619Y-114754819D01*
X159047619Y-114754819D02*
X158904762Y-114707200D01*
X158904762Y-114707200D02*
X158809524Y-114611961D01*
X158809524Y-114611961D02*
X158761905Y-114516723D01*
X158761905Y-114516723D02*
X158714286Y-114326247D01*
X158714286Y-114326247D02*
X158714286Y-114183390D01*
X158714286Y-114183390D02*
X158761905Y-113992914D01*
X158761905Y-113992914D02*
X158809524Y-113897676D01*
X158809524Y-113897676D02*
X158904762Y-113802438D01*
X158904762Y-113802438D02*
X159047619Y-113754819D01*
X159047619Y-113754819D02*
X159142857Y-113754819D01*
X159142857Y-113754819D02*
X159285714Y-113802438D01*
X159285714Y-113802438D02*
X159333333Y-113850057D01*
X159666667Y-113754819D02*
X160285714Y-113754819D01*
X160285714Y-113754819D02*
X159952381Y-114135771D01*
X159952381Y-114135771D02*
X160095238Y-114135771D01*
X160095238Y-114135771D02*
X160190476Y-114183390D01*
X160190476Y-114183390D02*
X160238095Y-114231009D01*
X160238095Y-114231009D02*
X160285714Y-114326247D01*
X160285714Y-114326247D02*
X160285714Y-114564342D01*
X160285714Y-114564342D02*
X160238095Y-114659580D01*
X160238095Y-114659580D02*
X160190476Y-114707200D01*
X160190476Y-114707200D02*
X160095238Y-114754819D01*
X160095238Y-114754819D02*
X159809524Y-114754819D01*
X159809524Y-114754819D02*
X159714286Y-114707200D01*
X159714286Y-114707200D02*
X159666667Y-114659580D01*
X188293333Y-54694819D02*
X187960000Y-54218628D01*
X187721905Y-54694819D02*
X187721905Y-53694819D01*
X187721905Y-53694819D02*
X188102857Y-53694819D01*
X188102857Y-53694819D02*
X188198095Y-53742438D01*
X188198095Y-53742438D02*
X188245714Y-53790057D01*
X188245714Y-53790057D02*
X188293333Y-53885295D01*
X188293333Y-53885295D02*
X188293333Y-54028152D01*
X188293333Y-54028152D02*
X188245714Y-54123390D01*
X188245714Y-54123390D02*
X188198095Y-54171009D01*
X188198095Y-54171009D02*
X188102857Y-54218628D01*
X188102857Y-54218628D02*
X187721905Y-54218628D01*
X189150476Y-54028152D02*
X189150476Y-54694819D01*
X188912381Y-53647200D02*
X188674286Y-54361485D01*
X188674286Y-54361485D02*
X189293333Y-54361485D01*
X206857142Y-56704819D02*
X206523809Y-56228628D01*
X206285714Y-56704819D02*
X206285714Y-55704819D01*
X206285714Y-55704819D02*
X206666666Y-55704819D01*
X206666666Y-55704819D02*
X206761904Y-55752438D01*
X206761904Y-55752438D02*
X206809523Y-55800057D01*
X206809523Y-55800057D02*
X206857142Y-55895295D01*
X206857142Y-55895295D02*
X206857142Y-56038152D01*
X206857142Y-56038152D02*
X206809523Y-56133390D01*
X206809523Y-56133390D02*
X206761904Y-56181009D01*
X206761904Y-56181009D02*
X206666666Y-56228628D01*
X206666666Y-56228628D02*
X206285714Y-56228628D01*
X207809523Y-56704819D02*
X207238095Y-56704819D01*
X207523809Y-56704819D02*
X207523809Y-55704819D01*
X207523809Y-55704819D02*
X207428571Y-55847676D01*
X207428571Y-55847676D02*
X207333333Y-55942914D01*
X207333333Y-55942914D02*
X207238095Y-55990533D01*
X208190476Y-55800057D02*
X208238095Y-55752438D01*
X208238095Y-55752438D02*
X208333333Y-55704819D01*
X208333333Y-55704819D02*
X208571428Y-55704819D01*
X208571428Y-55704819D02*
X208666666Y-55752438D01*
X208666666Y-55752438D02*
X208714285Y-55800057D01*
X208714285Y-55800057D02*
X208761904Y-55895295D01*
X208761904Y-55895295D02*
X208761904Y-55990533D01*
X208761904Y-55990533D02*
X208714285Y-56133390D01*
X208714285Y-56133390D02*
X208142857Y-56704819D01*
X208142857Y-56704819D02*
X208761904Y-56704819D01*
X207604819Y-45571904D02*
X208414342Y-45571904D01*
X208414342Y-45571904D02*
X208509580Y-45524285D01*
X208509580Y-45524285D02*
X208557200Y-45476666D01*
X208557200Y-45476666D02*
X208604819Y-45381428D01*
X208604819Y-45381428D02*
X208604819Y-45190952D01*
X208604819Y-45190952D02*
X208557200Y-45095714D01*
X208557200Y-45095714D02*
X208509580Y-45048095D01*
X208509580Y-45048095D02*
X208414342Y-45000476D01*
X208414342Y-45000476D02*
X207604819Y-45000476D01*
X207700057Y-44571904D02*
X207652438Y-44524285D01*
X207652438Y-44524285D02*
X207604819Y-44429047D01*
X207604819Y-44429047D02*
X207604819Y-44190952D01*
X207604819Y-44190952D02*
X207652438Y-44095714D01*
X207652438Y-44095714D02*
X207700057Y-44048095D01*
X207700057Y-44048095D02*
X207795295Y-44000476D01*
X207795295Y-44000476D02*
X207890533Y-44000476D01*
X207890533Y-44000476D02*
X208033390Y-44048095D01*
X208033390Y-44048095D02*
X208604819Y-44619523D01*
X208604819Y-44619523D02*
X208604819Y-44000476D01*
X206857142Y-80454819D02*
X206523809Y-79978628D01*
X206285714Y-80454819D02*
X206285714Y-79454819D01*
X206285714Y-79454819D02*
X206666666Y-79454819D01*
X206666666Y-79454819D02*
X206761904Y-79502438D01*
X206761904Y-79502438D02*
X206809523Y-79550057D01*
X206809523Y-79550057D02*
X206857142Y-79645295D01*
X206857142Y-79645295D02*
X206857142Y-79788152D01*
X206857142Y-79788152D02*
X206809523Y-79883390D01*
X206809523Y-79883390D02*
X206761904Y-79931009D01*
X206761904Y-79931009D02*
X206666666Y-79978628D01*
X206666666Y-79978628D02*
X206285714Y-79978628D01*
X207809523Y-80454819D02*
X207238095Y-80454819D01*
X207523809Y-80454819D02*
X207523809Y-79454819D01*
X207523809Y-79454819D02*
X207428571Y-79597676D01*
X207428571Y-79597676D02*
X207333333Y-79692914D01*
X207333333Y-79692914D02*
X207238095Y-79740533D01*
X208142857Y-79454819D02*
X208809523Y-79454819D01*
X208809523Y-79454819D02*
X208380952Y-80454819D01*
X185666667Y-45907200D02*
X185809524Y-45954819D01*
X185809524Y-45954819D02*
X186047619Y-45954819D01*
X186047619Y-45954819D02*
X186142857Y-45907200D01*
X186142857Y-45907200D02*
X186190476Y-45859580D01*
X186190476Y-45859580D02*
X186238095Y-45764342D01*
X186238095Y-45764342D02*
X186238095Y-45669104D01*
X186238095Y-45669104D02*
X186190476Y-45573866D01*
X186190476Y-45573866D02*
X186142857Y-45526247D01*
X186142857Y-45526247D02*
X186047619Y-45478628D01*
X186047619Y-45478628D02*
X185857143Y-45431009D01*
X185857143Y-45431009D02*
X185761905Y-45383390D01*
X185761905Y-45383390D02*
X185714286Y-45335771D01*
X185714286Y-45335771D02*
X185666667Y-45240533D01*
X185666667Y-45240533D02*
X185666667Y-45145295D01*
X185666667Y-45145295D02*
X185714286Y-45050057D01*
X185714286Y-45050057D02*
X185761905Y-45002438D01*
X185761905Y-45002438D02*
X185857143Y-44954819D01*
X185857143Y-44954819D02*
X186095238Y-44954819D01*
X186095238Y-44954819D02*
X186238095Y-45002438D01*
X186571429Y-44954819D02*
X186809524Y-45954819D01*
X186809524Y-45954819D02*
X187000000Y-45240533D01*
X187000000Y-45240533D02*
X187190476Y-45954819D01*
X187190476Y-45954819D02*
X187428572Y-44954819D01*
X187761905Y-45050057D02*
X187809524Y-45002438D01*
X187809524Y-45002438D02*
X187904762Y-44954819D01*
X187904762Y-44954819D02*
X188142857Y-44954819D01*
X188142857Y-44954819D02*
X188238095Y-45002438D01*
X188238095Y-45002438D02*
X188285714Y-45050057D01*
X188285714Y-45050057D02*
X188333333Y-45145295D01*
X188333333Y-45145295D02*
X188333333Y-45240533D01*
X188333333Y-45240533D02*
X188285714Y-45383390D01*
X188285714Y-45383390D02*
X187714286Y-45954819D01*
X187714286Y-45954819D02*
X188333333Y-45954819D01*
X189333333Y-108954819D02*
X189000000Y-108478628D01*
X188761905Y-108954819D02*
X188761905Y-107954819D01*
X188761905Y-107954819D02*
X189142857Y-107954819D01*
X189142857Y-107954819D02*
X189238095Y-108002438D01*
X189238095Y-108002438D02*
X189285714Y-108050057D01*
X189285714Y-108050057D02*
X189333333Y-108145295D01*
X189333333Y-108145295D02*
X189333333Y-108288152D01*
X189333333Y-108288152D02*
X189285714Y-108383390D01*
X189285714Y-108383390D02*
X189238095Y-108431009D01*
X189238095Y-108431009D02*
X189142857Y-108478628D01*
X189142857Y-108478628D02*
X188761905Y-108478628D01*
X189809524Y-108954819D02*
X190000000Y-108954819D01*
X190000000Y-108954819D02*
X190095238Y-108907200D01*
X190095238Y-108907200D02*
X190142857Y-108859580D01*
X190142857Y-108859580D02*
X190238095Y-108716723D01*
X190238095Y-108716723D02*
X190285714Y-108526247D01*
X190285714Y-108526247D02*
X190285714Y-108145295D01*
X190285714Y-108145295D02*
X190238095Y-108050057D01*
X190238095Y-108050057D02*
X190190476Y-108002438D01*
X190190476Y-108002438D02*
X190095238Y-107954819D01*
X190095238Y-107954819D02*
X189904762Y-107954819D01*
X189904762Y-107954819D02*
X189809524Y-108002438D01*
X189809524Y-108002438D02*
X189761905Y-108050057D01*
X189761905Y-108050057D02*
X189714286Y-108145295D01*
X189714286Y-108145295D02*
X189714286Y-108383390D01*
X189714286Y-108383390D02*
X189761905Y-108478628D01*
X189761905Y-108478628D02*
X189809524Y-108526247D01*
X189809524Y-108526247D02*
X189904762Y-108573866D01*
X189904762Y-108573866D02*
X190095238Y-108573866D01*
X190095238Y-108573866D02*
X190190476Y-108526247D01*
X190190476Y-108526247D02*
X190238095Y-108478628D01*
X190238095Y-108478628D02*
X190285714Y-108383390D01*
X145738095Y-51954819D02*
X145738095Y-52764342D01*
X145738095Y-52764342D02*
X145785714Y-52859580D01*
X145785714Y-52859580D02*
X145833333Y-52907200D01*
X145833333Y-52907200D02*
X145928571Y-52954819D01*
X145928571Y-52954819D02*
X146119047Y-52954819D01*
X146119047Y-52954819D02*
X146214285Y-52907200D01*
X146214285Y-52907200D02*
X146261904Y-52859580D01*
X146261904Y-52859580D02*
X146309523Y-52764342D01*
X146309523Y-52764342D02*
X146309523Y-51954819D01*
X147214285Y-52288152D02*
X147214285Y-52954819D01*
X146976190Y-51907200D02*
X146738095Y-52621485D01*
X146738095Y-52621485D02*
X147357142Y-52621485D01*
X146333333Y-115204819D02*
X146000000Y-114728628D01*
X145761905Y-115204819D02*
X145761905Y-114204819D01*
X145761905Y-114204819D02*
X146142857Y-114204819D01*
X146142857Y-114204819D02*
X146238095Y-114252438D01*
X146238095Y-114252438D02*
X146285714Y-114300057D01*
X146285714Y-114300057D02*
X146333333Y-114395295D01*
X146333333Y-114395295D02*
X146333333Y-114538152D01*
X146333333Y-114538152D02*
X146285714Y-114633390D01*
X146285714Y-114633390D02*
X146238095Y-114681009D01*
X146238095Y-114681009D02*
X146142857Y-114728628D01*
X146142857Y-114728628D02*
X145761905Y-114728628D01*
X146714286Y-114300057D02*
X146761905Y-114252438D01*
X146761905Y-114252438D02*
X146857143Y-114204819D01*
X146857143Y-114204819D02*
X147095238Y-114204819D01*
X147095238Y-114204819D02*
X147190476Y-114252438D01*
X147190476Y-114252438D02*
X147238095Y-114300057D01*
X147238095Y-114300057D02*
X147285714Y-114395295D01*
X147285714Y-114395295D02*
X147285714Y-114490533D01*
X147285714Y-114490533D02*
X147238095Y-114633390D01*
X147238095Y-114633390D02*
X146666667Y-115204819D01*
X146666667Y-115204819D02*
X147285714Y-115204819D01*
X158833333Y-47609580D02*
X158785714Y-47657200D01*
X158785714Y-47657200D02*
X158642857Y-47704819D01*
X158642857Y-47704819D02*
X158547619Y-47704819D01*
X158547619Y-47704819D02*
X158404762Y-47657200D01*
X158404762Y-47657200D02*
X158309524Y-47561961D01*
X158309524Y-47561961D02*
X158261905Y-47466723D01*
X158261905Y-47466723D02*
X158214286Y-47276247D01*
X158214286Y-47276247D02*
X158214286Y-47133390D01*
X158214286Y-47133390D02*
X158261905Y-46942914D01*
X158261905Y-46942914D02*
X158309524Y-46847676D01*
X158309524Y-46847676D02*
X158404762Y-46752438D01*
X158404762Y-46752438D02*
X158547619Y-46704819D01*
X158547619Y-46704819D02*
X158642857Y-46704819D01*
X158642857Y-46704819D02*
X158785714Y-46752438D01*
X158785714Y-46752438D02*
X158833333Y-46800057D01*
X159214286Y-46800057D02*
X159261905Y-46752438D01*
X159261905Y-46752438D02*
X159357143Y-46704819D01*
X159357143Y-46704819D02*
X159595238Y-46704819D01*
X159595238Y-46704819D02*
X159690476Y-46752438D01*
X159690476Y-46752438D02*
X159738095Y-46800057D01*
X159738095Y-46800057D02*
X159785714Y-46895295D01*
X159785714Y-46895295D02*
X159785714Y-46990533D01*
X159785714Y-46990533D02*
X159738095Y-47133390D01*
X159738095Y-47133390D02*
X159166667Y-47704819D01*
X159166667Y-47704819D02*
X159785714Y-47704819D01*
X203761905Y-97794819D02*
X203761905Y-98604342D01*
X203761905Y-98604342D02*
X203809524Y-98699580D01*
X203809524Y-98699580D02*
X203857143Y-98747200D01*
X203857143Y-98747200D02*
X203952381Y-98794819D01*
X203952381Y-98794819D02*
X204142857Y-98794819D01*
X204142857Y-98794819D02*
X204238095Y-98747200D01*
X204238095Y-98747200D02*
X204285714Y-98699580D01*
X204285714Y-98699580D02*
X204333333Y-98604342D01*
X204333333Y-98604342D02*
X204333333Y-97794819D01*
X205333333Y-98794819D02*
X204761905Y-98794819D01*
X205047619Y-98794819D02*
X205047619Y-97794819D01*
X205047619Y-97794819D02*
X204952381Y-97937676D01*
X204952381Y-97937676D02*
X204857143Y-98032914D01*
X204857143Y-98032914D02*
X204761905Y-98080533D01*
X205952381Y-97794819D02*
X206047619Y-97794819D01*
X206047619Y-97794819D02*
X206142857Y-97842438D01*
X206142857Y-97842438D02*
X206190476Y-97890057D01*
X206190476Y-97890057D02*
X206238095Y-97985295D01*
X206238095Y-97985295D02*
X206285714Y-98175771D01*
X206285714Y-98175771D02*
X206285714Y-98413866D01*
X206285714Y-98413866D02*
X206238095Y-98604342D01*
X206238095Y-98604342D02*
X206190476Y-98699580D01*
X206190476Y-98699580D02*
X206142857Y-98747200D01*
X206142857Y-98747200D02*
X206047619Y-98794819D01*
X206047619Y-98794819D02*
X205952381Y-98794819D01*
X205952381Y-98794819D02*
X205857143Y-98747200D01*
X205857143Y-98747200D02*
X205809524Y-98699580D01*
X205809524Y-98699580D02*
X205761905Y-98604342D01*
X205761905Y-98604342D02*
X205714286Y-98413866D01*
X205714286Y-98413866D02*
X205714286Y-98175771D01*
X205714286Y-98175771D02*
X205761905Y-97985295D01*
X205761905Y-97985295D02*
X205809524Y-97890057D01*
X205809524Y-97890057D02*
X205857143Y-97842438D01*
X205857143Y-97842438D02*
X205952381Y-97794819D01*
X189333333Y-99454819D02*
X189000000Y-98978628D01*
X188761905Y-99454819D02*
X188761905Y-98454819D01*
X188761905Y-98454819D02*
X189142857Y-98454819D01*
X189142857Y-98454819D02*
X189238095Y-98502438D01*
X189238095Y-98502438D02*
X189285714Y-98550057D01*
X189285714Y-98550057D02*
X189333333Y-98645295D01*
X189333333Y-98645295D02*
X189333333Y-98788152D01*
X189333333Y-98788152D02*
X189285714Y-98883390D01*
X189285714Y-98883390D02*
X189238095Y-98931009D01*
X189238095Y-98931009D02*
X189142857Y-98978628D01*
X189142857Y-98978628D02*
X188761905Y-98978628D01*
X189666667Y-98454819D02*
X190333333Y-98454819D01*
X190333333Y-98454819D02*
X189904762Y-99454819D01*
X167788095Y-117744819D02*
X167788095Y-118554342D01*
X167788095Y-118554342D02*
X167835714Y-118649580D01*
X167835714Y-118649580D02*
X167883333Y-118697200D01*
X167883333Y-118697200D02*
X167978571Y-118744819D01*
X167978571Y-118744819D02*
X168169047Y-118744819D01*
X168169047Y-118744819D02*
X168264285Y-118697200D01*
X168264285Y-118697200D02*
X168311904Y-118649580D01*
X168311904Y-118649580D02*
X168359523Y-118554342D01*
X168359523Y-118554342D02*
X168359523Y-117744819D01*
X169359523Y-118744819D02*
X168788095Y-118744819D01*
X169073809Y-118744819D02*
X169073809Y-117744819D01*
X169073809Y-117744819D02*
X168978571Y-117887676D01*
X168978571Y-117887676D02*
X168883333Y-117982914D01*
X168883333Y-117982914D02*
X168788095Y-118030533D01*
X206857142Y-75704819D02*
X206523809Y-75228628D01*
X206285714Y-75704819D02*
X206285714Y-74704819D01*
X206285714Y-74704819D02*
X206666666Y-74704819D01*
X206666666Y-74704819D02*
X206761904Y-74752438D01*
X206761904Y-74752438D02*
X206809523Y-74800057D01*
X206809523Y-74800057D02*
X206857142Y-74895295D01*
X206857142Y-74895295D02*
X206857142Y-75038152D01*
X206857142Y-75038152D02*
X206809523Y-75133390D01*
X206809523Y-75133390D02*
X206761904Y-75181009D01*
X206761904Y-75181009D02*
X206666666Y-75228628D01*
X206666666Y-75228628D02*
X206285714Y-75228628D01*
X207809523Y-75704819D02*
X207238095Y-75704819D01*
X207523809Y-75704819D02*
X207523809Y-74704819D01*
X207523809Y-74704819D02*
X207428571Y-74847676D01*
X207428571Y-74847676D02*
X207333333Y-74942914D01*
X207333333Y-74942914D02*
X207238095Y-74990533D01*
X208666666Y-74704819D02*
X208476190Y-74704819D01*
X208476190Y-74704819D02*
X208380952Y-74752438D01*
X208380952Y-74752438D02*
X208333333Y-74800057D01*
X208333333Y-74800057D02*
X208238095Y-74942914D01*
X208238095Y-74942914D02*
X208190476Y-75133390D01*
X208190476Y-75133390D02*
X208190476Y-75514342D01*
X208190476Y-75514342D02*
X208238095Y-75609580D01*
X208238095Y-75609580D02*
X208285714Y-75657200D01*
X208285714Y-75657200D02*
X208380952Y-75704819D01*
X208380952Y-75704819D02*
X208571428Y-75704819D01*
X208571428Y-75704819D02*
X208666666Y-75657200D01*
X208666666Y-75657200D02*
X208714285Y-75609580D01*
X208714285Y-75609580D02*
X208761904Y-75514342D01*
X208761904Y-75514342D02*
X208761904Y-75276247D01*
X208761904Y-75276247D02*
X208714285Y-75181009D01*
X208714285Y-75181009D02*
X208666666Y-75133390D01*
X208666666Y-75133390D02*
X208571428Y-75085771D01*
X208571428Y-75085771D02*
X208380952Y-75085771D01*
X208380952Y-75085771D02*
X208285714Y-75133390D01*
X208285714Y-75133390D02*
X208238095Y-75181009D01*
X208238095Y-75181009D02*
X208190476Y-75276247D01*
X146166666Y-48454819D02*
X146166666Y-49169104D01*
X146166666Y-49169104D02*
X146119047Y-49311961D01*
X146119047Y-49311961D02*
X146023809Y-49407200D01*
X146023809Y-49407200D02*
X145880952Y-49454819D01*
X145880952Y-49454819D02*
X145785714Y-49454819D01*
X147166666Y-49454819D02*
X146595238Y-49454819D01*
X146880952Y-49454819D02*
X146880952Y-48454819D01*
X146880952Y-48454819D02*
X146785714Y-48597676D01*
X146785714Y-48597676D02*
X146690476Y-48692914D01*
X146690476Y-48692914D02*
X146595238Y-48740533D01*
X175448095Y-72044819D02*
X175448095Y-72854342D01*
X175448095Y-72854342D02*
X175495714Y-72949580D01*
X175495714Y-72949580D02*
X175543333Y-72997200D01*
X175543333Y-72997200D02*
X175638571Y-73044819D01*
X175638571Y-73044819D02*
X175829047Y-73044819D01*
X175829047Y-73044819D02*
X175924285Y-72997200D01*
X175924285Y-72997200D02*
X175971904Y-72949580D01*
X175971904Y-72949580D02*
X176019523Y-72854342D01*
X176019523Y-72854342D02*
X176019523Y-72044819D01*
X176638571Y-72473390D02*
X176543333Y-72425771D01*
X176543333Y-72425771D02*
X176495714Y-72378152D01*
X176495714Y-72378152D02*
X176448095Y-72282914D01*
X176448095Y-72282914D02*
X176448095Y-72235295D01*
X176448095Y-72235295D02*
X176495714Y-72140057D01*
X176495714Y-72140057D02*
X176543333Y-72092438D01*
X176543333Y-72092438D02*
X176638571Y-72044819D01*
X176638571Y-72044819D02*
X176829047Y-72044819D01*
X176829047Y-72044819D02*
X176924285Y-72092438D01*
X176924285Y-72092438D02*
X176971904Y-72140057D01*
X176971904Y-72140057D02*
X177019523Y-72235295D01*
X177019523Y-72235295D02*
X177019523Y-72282914D01*
X177019523Y-72282914D02*
X176971904Y-72378152D01*
X176971904Y-72378152D02*
X176924285Y-72425771D01*
X176924285Y-72425771D02*
X176829047Y-72473390D01*
X176829047Y-72473390D02*
X176638571Y-72473390D01*
X176638571Y-72473390D02*
X176543333Y-72521009D01*
X176543333Y-72521009D02*
X176495714Y-72568628D01*
X176495714Y-72568628D02*
X176448095Y-72663866D01*
X176448095Y-72663866D02*
X176448095Y-72854342D01*
X176448095Y-72854342D02*
X176495714Y-72949580D01*
X176495714Y-72949580D02*
X176543333Y-72997200D01*
X176543333Y-72997200D02*
X176638571Y-73044819D01*
X176638571Y-73044819D02*
X176829047Y-73044819D01*
X176829047Y-73044819D02*
X176924285Y-72997200D01*
X176924285Y-72997200D02*
X176971904Y-72949580D01*
X176971904Y-72949580D02*
X177019523Y-72854342D01*
X177019523Y-72854342D02*
X177019523Y-72663866D01*
X177019523Y-72663866D02*
X176971904Y-72568628D01*
X176971904Y-72568628D02*
X176924285Y-72521009D01*
X176924285Y-72521009D02*
X176829047Y-72473390D01*
X188928095Y-70169819D02*
X188928095Y-70979342D01*
X188928095Y-70979342D02*
X188975714Y-71074580D01*
X188975714Y-71074580D02*
X189023333Y-71122200D01*
X189023333Y-71122200D02*
X189118571Y-71169819D01*
X189118571Y-71169819D02*
X189309047Y-71169819D01*
X189309047Y-71169819D02*
X189404285Y-71122200D01*
X189404285Y-71122200D02*
X189451904Y-71074580D01*
X189451904Y-71074580D02*
X189499523Y-70979342D01*
X189499523Y-70979342D02*
X189499523Y-70169819D01*
X190023333Y-71169819D02*
X190213809Y-71169819D01*
X190213809Y-71169819D02*
X190309047Y-71122200D01*
X190309047Y-71122200D02*
X190356666Y-71074580D01*
X190356666Y-71074580D02*
X190451904Y-70931723D01*
X190451904Y-70931723D02*
X190499523Y-70741247D01*
X190499523Y-70741247D02*
X190499523Y-70360295D01*
X190499523Y-70360295D02*
X190451904Y-70265057D01*
X190451904Y-70265057D02*
X190404285Y-70217438D01*
X190404285Y-70217438D02*
X190309047Y-70169819D01*
X190309047Y-70169819D02*
X190118571Y-70169819D01*
X190118571Y-70169819D02*
X190023333Y-70217438D01*
X190023333Y-70217438D02*
X189975714Y-70265057D01*
X189975714Y-70265057D02*
X189928095Y-70360295D01*
X189928095Y-70360295D02*
X189928095Y-70598390D01*
X189928095Y-70598390D02*
X189975714Y-70693628D01*
X189975714Y-70693628D02*
X190023333Y-70741247D01*
X190023333Y-70741247D02*
X190118571Y-70788866D01*
X190118571Y-70788866D02*
X190309047Y-70788866D01*
X190309047Y-70788866D02*
X190404285Y-70741247D01*
X190404285Y-70741247D02*
X190451904Y-70693628D01*
X190451904Y-70693628D02*
X190499523Y-70598390D01*
D12*
%TO.C,R3*%
X141690000Y-119000000D02*
X142380000Y-119000000D01*
X142380000Y-117280000D02*
X142380000Y-120720000D01*
X142380000Y-120720000D02*
X151620000Y-120720000D01*
X151620000Y-117280000D02*
X142380000Y-117280000D01*
X151620000Y-120720000D02*
X151620000Y-117280000D01*
X152310000Y-119000000D02*
X151620000Y-119000000D01*
%TO.C,C1*%
X156730000Y-41430000D02*
X156730000Y-41445000D01*
X156730000Y-41430000D02*
X161270000Y-41430000D01*
X156730000Y-43555000D02*
X156730000Y-43570000D01*
X156730000Y-43570000D02*
X161270000Y-43570000D01*
X161270000Y-41430000D02*
X161270000Y-41445000D01*
X161270000Y-43555000D02*
X161270000Y-43570000D01*
%TO.C,U5*%
X143160000Y-61970000D02*
X143160000Y-82410000D01*
X143160000Y-82410000D02*
X148460000Y-82410000D01*
X144810000Y-61970000D02*
X143160000Y-61970000D01*
X148460000Y-61970000D02*
X146810000Y-61970000D01*
X148460000Y-82410000D02*
X148460000Y-61970000D01*
X146810000Y-61970000D02*
G75*
G02*
X144810000Y-61970000I-1000000J0D01*
G01*
%TO.C,R18*%
X202190000Y-84500000D02*
X202880000Y-84500000D01*
X202880000Y-82780000D02*
X202880000Y-86220000D01*
X202880000Y-86220000D02*
X212120000Y-86220000D01*
X212120000Y-82780000D02*
X202880000Y-82780000D01*
X212120000Y-86220000D02*
X212120000Y-82780000D01*
X212810000Y-84500000D02*
X212120000Y-84500000D01*
%TO.C,R14*%
X202190000Y-65500000D02*
X202880000Y-65500000D01*
X202880000Y-63780000D02*
X202880000Y-67220000D01*
X202880000Y-67220000D02*
X212120000Y-67220000D01*
X212120000Y-63780000D02*
X202880000Y-63780000D01*
X212120000Y-67220000D02*
X212120000Y-63780000D01*
X212810000Y-65500000D02*
X212120000Y-65500000D01*
%TO.C,R5*%
X184190000Y-89250000D02*
X184880000Y-89250000D01*
X184880000Y-87530000D02*
X184880000Y-90970000D01*
X184880000Y-90970000D02*
X194120000Y-90970000D01*
X194120000Y-87530000D02*
X184880000Y-87530000D01*
X194120000Y-90970000D02*
X194120000Y-87530000D01*
X194810000Y-89250000D02*
X194120000Y-89250000D01*
%TO.C,R8*%
X184190000Y-103500000D02*
X184880000Y-103500000D01*
X184880000Y-101780000D02*
X184880000Y-105220000D01*
X184880000Y-105220000D02*
X194120000Y-105220000D01*
X194120000Y-101780000D02*
X184880000Y-101780000D01*
X194120000Y-105220000D02*
X194120000Y-101780000D01*
X194810000Y-103500000D02*
X194120000Y-103500000D01*
%TO.C,R13*%
X202190000Y-60750000D02*
X202880000Y-60750000D01*
X202880000Y-59030000D02*
X202880000Y-62470000D01*
X202880000Y-62470000D02*
X212120000Y-62470000D01*
X212120000Y-59030000D02*
X202880000Y-59030000D01*
X212120000Y-62470000D02*
X212120000Y-59030000D01*
X212810000Y-60750000D02*
X212120000Y-60750000D01*
%TO.C,R6*%
X184190000Y-94000000D02*
X184880000Y-94000000D01*
X184880000Y-92280000D02*
X184880000Y-95720000D01*
X184880000Y-95720000D02*
X194120000Y-95720000D01*
X194120000Y-92280000D02*
X184880000Y-92280000D01*
X194120000Y-95720000D02*
X194120000Y-92280000D01*
X194810000Y-94000000D02*
X194120000Y-94000000D01*
%TO.C,C4*%
X162620000Y-120000000D02*
G75*
G02*
X157380000Y-120000000I-2620000J0D01*
G01*
X157380000Y-120000000D02*
G75*
G02*
X162620000Y-120000000I2620000J0D01*
G01*
%TO.C,SW1*%
X170000000Y-44750000D02*
X170000000Y-46250000D01*
X171250000Y-48750000D02*
X175750000Y-48750000D01*
X175750000Y-42250000D02*
X171250000Y-42250000D01*
X177000000Y-46250000D02*
X177000000Y-44750000D01*
%TO.C,U6*%
X155160000Y-61970000D02*
X155160000Y-82410000D01*
X155160000Y-82410000D02*
X160460000Y-82410000D01*
X156810000Y-61970000D02*
X155160000Y-61970000D01*
X160460000Y-61970000D02*
X158810000Y-61970000D01*
X160460000Y-82410000D02*
X160460000Y-61970000D01*
X158810000Y-61970000D02*
G75*
G02*
X156810000Y-61970000I-1000000J0D01*
G01*
%TO.C,R15*%
X202190000Y-70250000D02*
X202880000Y-70250000D01*
X202880000Y-68530000D02*
X202880000Y-71970000D01*
X202880000Y-71970000D02*
X212120000Y-71970000D01*
X212120000Y-68530000D02*
X202880000Y-68530000D01*
X212120000Y-71970000D02*
X212120000Y-68530000D01*
X212810000Y-70250000D02*
X212120000Y-70250000D01*
%TO.C,R1*%
X160920000Y-54500000D02*
X162880000Y-54500000D01*
X162880000Y-52780000D02*
X162880000Y-56220000D01*
X162880000Y-56220000D02*
X172120000Y-56220000D01*
X172120000Y-52780000D02*
X162880000Y-52780000D01*
X172120000Y-56220000D02*
X172120000Y-52780000D01*
X174080000Y-54500000D02*
X172120000Y-54500000D01*
%TO.C,U11*%
X212370000Y-89710000D02*
X214000000Y-89710000D01*
X212370000Y-91340000D02*
X212370000Y-89710000D01*
D11*
X212730000Y-90070000D02*
X212730000Y-102770000D01*
X212730000Y-102770000D02*
X220350000Y-102770000D01*
X220350000Y-90070000D02*
X212730000Y-90070000D01*
X220350000Y-102770000D02*
X220350000Y-90070000D01*
D12*
%TO.C,R10*%
X184190000Y-113000000D02*
X184880000Y-113000000D01*
X184880000Y-111280000D02*
X184880000Y-114720000D01*
X184880000Y-114720000D02*
X194120000Y-114720000D01*
X194120000Y-111280000D02*
X184880000Y-111280000D01*
X194120000Y-114720000D02*
X194120000Y-111280000D01*
X194810000Y-113000000D02*
X194120000Y-113000000D01*
%TO.C,U3*%
X145860000Y-91045000D02*
X145860000Y-108945000D01*
X145860000Y-108945000D02*
X151160000Y-108945000D01*
X147510000Y-91045000D02*
X145860000Y-91045000D01*
X151160000Y-91045000D02*
X149510000Y-91045000D01*
X151160000Y-108945000D02*
X151160000Y-91045000D01*
X149510000Y-91045000D02*
G75*
G02*
X147510000Y-91045000I-1000000J0D01*
G01*
%TO.C,R11*%
X184190000Y-117750000D02*
X184880000Y-117750000D01*
X184880000Y-116030000D02*
X184880000Y-119470000D01*
X184880000Y-119470000D02*
X194120000Y-119470000D01*
X194120000Y-116030000D02*
X184880000Y-116030000D01*
X194120000Y-119470000D02*
X194120000Y-116030000D01*
X194810000Y-117750000D02*
X194120000Y-117750000D01*
%TO.C,U7*%
X160160000Y-90970000D02*
X160160000Y-108870000D01*
X160160000Y-108870000D02*
X165460000Y-108870000D01*
X161810000Y-90970000D02*
X160160000Y-90970000D01*
X165460000Y-90970000D02*
X163810000Y-90970000D01*
X165460000Y-108870000D02*
X165460000Y-90970000D01*
X163810000Y-90970000D02*
G75*
G02*
X161810000Y-90970000I-1000000J0D01*
G01*
%TO.C,C3*%
X157230000Y-113430000D02*
X157230000Y-113445000D01*
X157230000Y-113430000D02*
X161770000Y-113430000D01*
X157230000Y-115555000D02*
X157230000Y-115570000D01*
X157230000Y-115570000D02*
X161770000Y-115570000D01*
X161770000Y-113430000D02*
X161770000Y-113445000D01*
X161770000Y-115555000D02*
X161770000Y-115570000D01*
%TO.C,R4*%
X181420000Y-54500000D02*
X183380000Y-54500000D01*
X183380000Y-52780000D02*
X183380000Y-56220000D01*
X183380000Y-56220000D02*
X192620000Y-56220000D01*
X192620000Y-52780000D02*
X183380000Y-52780000D01*
X192620000Y-56220000D02*
X192620000Y-52780000D01*
X194580000Y-54500000D02*
X192620000Y-54500000D01*
%TO.C,R12*%
X202190000Y-56000000D02*
X202880000Y-56000000D01*
X202880000Y-54280000D02*
X202880000Y-57720000D01*
X202880000Y-57720000D02*
X212120000Y-57720000D01*
X212120000Y-54280000D02*
X202880000Y-54280000D01*
X212120000Y-57720000D02*
X212120000Y-54280000D01*
X212810000Y-56000000D02*
X212120000Y-56000000D01*
%TO.C,U2*%
X198970000Y-42160000D02*
X198970000Y-43810000D01*
X198970000Y-45810000D02*
X198970000Y-47460000D01*
X198970000Y-47460000D02*
X216870000Y-47460000D01*
X216870000Y-42160000D02*
X198970000Y-42160000D01*
X216870000Y-47460000D02*
X216870000Y-42160000D01*
X198970000Y-43810000D02*
G75*
G02*
X198970000Y-45810000I0J-1000000D01*
G01*
%TO.C,R17*%
X202190000Y-79750000D02*
X202880000Y-79750000D01*
X202880000Y-78030000D02*
X202880000Y-81470000D01*
X202880000Y-81470000D02*
X212120000Y-81470000D01*
X212120000Y-78030000D02*
X202880000Y-78030000D01*
X212120000Y-81470000D02*
X212120000Y-78030000D01*
X212810000Y-79750000D02*
X212120000Y-79750000D01*
%TO.C,SW2*%
X183500000Y-44750000D02*
X183500000Y-46250000D01*
X184750000Y-48750000D02*
X189250000Y-48750000D01*
X189250000Y-42250000D02*
X184750000Y-42250000D01*
X190500000Y-46250000D02*
X190500000Y-44750000D01*
%TO.C,R9*%
X184190000Y-108250000D02*
X184880000Y-108250000D01*
X184880000Y-106530000D02*
X184880000Y-109970000D01*
X184880000Y-109970000D02*
X194120000Y-109970000D01*
X194120000Y-106530000D02*
X184880000Y-106530000D01*
X194120000Y-109970000D02*
X194120000Y-106530000D01*
X194810000Y-108250000D02*
X194120000Y-108250000D01*
%TO.C,U4*%
X141380000Y-53675000D02*
X141380000Y-58316000D01*
X141380000Y-53675000D02*
X151620000Y-53675000D01*
X141380000Y-55185000D02*
X151620000Y-55185000D01*
X141380000Y-58316000D02*
X151620000Y-58316000D01*
X144650000Y-53675000D02*
X144650000Y-55185000D01*
X148351000Y-53675000D02*
X148351000Y-55185000D01*
X151620000Y-53675000D02*
X151620000Y-58316000D01*
%TO.C,R2*%
X141690000Y-114500000D02*
X142380000Y-114500000D01*
X142380000Y-112780000D02*
X142380000Y-116220000D01*
X142380000Y-116220000D02*
X151620000Y-116220000D01*
X151620000Y-112780000D02*
X142380000Y-112780000D01*
X151620000Y-116220000D02*
X151620000Y-112780000D01*
X152310000Y-114500000D02*
X151620000Y-114500000D01*
%TO.C,C2*%
X156730000Y-46430000D02*
X156730000Y-46445000D01*
X156730000Y-46430000D02*
X161270000Y-46430000D01*
X156730000Y-48555000D02*
X156730000Y-48570000D01*
X156730000Y-48570000D02*
X161270000Y-48570000D01*
X161270000Y-46430000D02*
X161270000Y-46445000D01*
X161270000Y-48555000D02*
X161270000Y-48570000D01*
%TO.C,U10*%
X201370000Y-89670000D02*
X203000000Y-89670000D01*
X201370000Y-91300000D02*
X201370000Y-89670000D01*
D11*
X201730000Y-90030000D02*
X201730000Y-102730000D01*
X201730000Y-102730000D02*
X209350000Y-102730000D01*
X209350000Y-90030000D02*
X201730000Y-90030000D01*
X209350000Y-102730000D02*
X209350000Y-90030000D01*
D12*
%TO.C,R7*%
X184190000Y-98750000D02*
X184880000Y-98750000D01*
X184880000Y-97030000D02*
X184880000Y-100470000D01*
X184880000Y-100470000D02*
X194120000Y-100470000D01*
X194120000Y-97030000D02*
X184880000Y-97030000D01*
X194120000Y-100470000D02*
X194120000Y-97030000D01*
X194810000Y-98750000D02*
X194120000Y-98750000D01*
%TO.C,U1*%
X165860000Y-112870000D02*
X165860000Y-123150000D01*
X165860000Y-123150000D02*
X171160000Y-123150000D01*
X167510000Y-112870000D02*
X165860000Y-112870000D01*
X171160000Y-112870000D02*
X169510000Y-112870000D01*
X171160000Y-123150000D02*
X171160000Y-112870000D01*
X169510000Y-112870000D02*
G75*
G02*
X167510000Y-112870000I-1000000J0D01*
G01*
%TO.C,R16*%
X202190000Y-75000000D02*
X202880000Y-75000000D01*
X202880000Y-73280000D02*
X202880000Y-76720000D01*
X202880000Y-76720000D02*
X212120000Y-76720000D01*
X212120000Y-73280000D02*
X202880000Y-73280000D01*
X212120000Y-76720000D02*
X212120000Y-73280000D01*
X212810000Y-75000000D02*
X212120000Y-75000000D01*
%TO.C,J1*%
X141440000Y-50456000D02*
X141440000Y-40535000D01*
X142725000Y-46264000D02*
X142772000Y-46218000D01*
X142930000Y-46470000D02*
X142965000Y-46434000D01*
X145034000Y-43956000D02*
X145069000Y-43921000D01*
X145227000Y-44172000D02*
X145274000Y-44126000D01*
X151560000Y-40535000D02*
X141440000Y-40535000D01*
X151560000Y-41095000D02*
X141440000Y-41095000D01*
X151560000Y-42595000D02*
X141440000Y-42595000D01*
X151560000Y-47496000D02*
X141440000Y-47496000D01*
X151560000Y-50456000D02*
X141440000Y-50456000D01*
X151560000Y-50456000D02*
X151560000Y-40535000D01*
X151800000Y-40295000D02*
X151300000Y-40295000D01*
X151800000Y-41035000D02*
X151800000Y-40295000D01*
X147464573Y-45878042D02*
G75*
G02*
X147465000Y-44511000I1535427J683042D01*
G01*
X148316682Y-43660244D02*
G75*
G02*
X149000000Y-43515000I683318J-1534756D01*
G01*
X148971195Y-43514747D02*
G75*
G02*
X149684000Y-43660000I28806J-1680254D01*
G01*
X149683042Y-46730427D02*
G75*
G02*
X148316000Y-46730000I-683041J1535420D01*
G01*
X150535427Y-44511958D02*
G75*
G02*
X150535000Y-45879000I-1535420J-683041D01*
G01*
X145680000Y-45195000D02*
G75*
G02*
X142320000Y-45195000I-1680000J0D01*
G01*
X142320000Y-45195000D02*
G75*
G02*
X145680000Y-45195000I1680000J0D01*
G01*
%TO.C,U8*%
X173040000Y-60510000D02*
X173040000Y-80950000D01*
X173040000Y-80950000D02*
X178340000Y-80950000D01*
X174690000Y-60510000D02*
X173040000Y-60510000D01*
X178340000Y-60510000D02*
X176690000Y-60510000D01*
X178340000Y-80950000D02*
X178340000Y-60510000D01*
X176690000Y-60510000D02*
G75*
G02*
X174690000Y-60510000I-1000000J0D01*
G01*
%TO.C,U9*%
X190690000Y-60510000D02*
G75*
G02*
X188690000Y-60510000I-1000000J0D01*
G01*
X192340000Y-80950000D02*
X192340000Y-60510000D01*
X192340000Y-60510000D02*
X190690000Y-60510000D01*
X188690000Y-60510000D02*
X187040000Y-60510000D01*
X187040000Y-80950000D02*
X192340000Y-80950000D01*
X187040000Y-60510000D02*
X187040000Y-80950000D01*
%TD*%
M02*
